<?xml version="1.0" encoding="utf-8"?>
<!-- Generator: Adobe Illustrator 24.1.0, SVG Export Plug-In . SVG Version: 6.00 Build 0)  -->
<svg version="1.1" id="Layer_1" xmlns="http://www.w3.org/2000/svg" xmlns:xlink="http://www.w3.org/1999/xlink" x="0px" y="0px"
	 viewBox="0 0 116.344841 39.3009682" enable-background="new 0 0 116.344841 39.3009682" xml:space="preserve">
<rect fill="#FFFFFF" width="110.6129837" height="39.3009682"/>
<path d="M113.9123764,33.7766571c1.3537292,0,2.4324646,1.1065025,2.4324646,2.4866714
	c0,1.4038315-1.0787354,2.4953499-2.4418945,2.4953499c-1.3545227,0-2.4544678-1.0915184-2.4544678-2.4953499
	c0-1.3801689,1.0999451-2.4866714,2.4544678-2.4866714H113.9123764z M113.9029465,34.1638908
	c-1.0889587,0-1.9822845,0.940094-1.9822845,2.0994377c0,1.1806412,0.8933258,2.1104813,1.9917145,2.1104813
	c1.1030884,0.0118294,1.9822693-0.9298401,1.9822693-2.1025925c0-1.1672325-0.8791809-2.1073265-1.9822693-2.1073265H113.9029465z
	 M113.4378281,37.7113266h-0.439209v-2.7745399c0.2325745-0.0315437,0.4549103-0.0654564,0.7817535-0.0654564
	c0.4195557,0,0.6937561,0.089119,0.8587494,0.2113609c0.1642151,0.1198807,0.2529907,0.3067932,0.2529907,0.571785
	c0,0.3635788-0.2427673,0.5851936-0.5397644,0.6758919v0.020504c0.2443542,0.0425873,0.4093475,0.2649918,0.4627686,0.6758919
	c0.0659943,0.4282455,0.1320038,0.5946541,0.1759949,0.6845627h-0.4604034
	c-0.0667877-0.0899086-0.1343536-0.343071-0.1893463-0.706646c-0.0660095-0.3572693-0.2412109-0.4866104-0.5924072-0.4866104
	h-0.3111267V37.7113266z M113.4378281,36.17342h0.3205566c0.3645477,0,0.6725311-0.1317062,0.6725311-0.4739876
	c0-0.2429123-0.1775513-0.4874001-0.6725311-0.4874001c-0.1406403,0-0.2404175,0.0134087-0.3205566,0.0244522V36.17342z"/>
<path d="M0,39.3009682h110.6129837V0H0V39.3009682z M0.8956757,7.6800613h54.4249649v22.7365456H0.8956757V7.6800613z
	 M97.2171249,38.2843742H0.8956757v-7.0025978h96.3214493V38.2843742z M109.6560287,38.2843742H98.1049423v-7.0025978h11.5510864
	V38.2843742z M109.6560287,30.4000435H56.2681656V0.899086h53.3878632V30.4000435z M14.0652695,5.9386826h-0.9538116
	l-0.2309875-0.7926102h-1.2225342l-0.2388458,0.7926102h-0.7770386l1.2123108-3.8668442h1.0261078L14.0652695,5.9386826z
	 M12.6761856,4.4346924l-0.4014893-1.3580933L11.870079,4.4346924H12.6761856z M15.6735611,2.0718384
	c0.5444794,0,1.0143127,0.0354843,1.4268036,0.4361343c0.4085541,0.3935471,0.584549,0.9298401,0.584549,1.4874268
	c0,0.518158-0.1547852,1.0205383-0.4910583,1.4085617c-0.3731995,0.4235153-0.8383179,0.5347214-1.3725891,0.5347214h-1.2445221
	V2.0718384H15.6735611z M15.4574966,5.2123184h0.2969818c0.3724213,0,0.6073456-0.073349,0.811615-0.4101105
	c0.1484985-0.2492218,0.2089996-0.5457611,0.2089996-0.8351974c0-0.3028488-0.0872192-0.6293564-0.2695007-0.873848
	c-0.2034912-0.2720871-0.430542-0.3091583-0.7432556-0.3091583h-0.3048401V5.2123184z M21.2990494,4.4126053
	c0,0.4211502,0.007843,0.8620148-0.3087769,1.1782761c-0.3024902,0.3091583-0.7487488,0.4053726-1.1628113,0.4053726
	c-0.3975525,0-0.8540344-0.0615158-1.1580963-0.3328171c-0.3747711-0.3320313-0.3896942-0.777626-0.3896942-1.2508316V2.0718384
	h0.9577484v2.3407669c0,0.1798172-0.004715,0.4408646,0.0832825,0.597023
	c0.1154938,0.2026901,0.3535461,0.2578964,0.5648956,0.2578964c0.1799316,0,0.4368439-0.0552063,0.5484161-0.2066345
	c0.1209869-0.1750793,0.1052704-0.4471741,0.1052704-0.6482849V2.0718384h0.7597656V4.4126053z M24.4614182,5.1713028v0.7673798
	h-2.4026184V2.0718384h0.8815308v3.0994644H24.4614182z M27.0800858,2.8392105h-0.9490967v3.099472h-0.8823242v-3.099472h-0.9585266
	V2.0718384h2.7899475V2.8392105z M29.5597,3.1783371c-0.1100006-0.3265076-0.3158417-0.457428-0.6521149-0.457428
	c-0.236496,0-0.521698,0.0630951-0.521698,0.3604202c0,0.2839279,0.3299866,0.3517532,0.5444794,0.3896027
	c0.3079834,0.0686188,0.7220459,0.1451187,0.9860382,0.3280869c0.3072052,0.2066345,0.4973297,0.5291977,0.4973297,0.9132843
	c0,0.3761902-0.1767731,0.7389832-0.4698334,0.9700623c-0.3024902,0.241333-0.7149658,0.3138885-1.0960236,0.3138885
	c-0.7118378,0-1.3553009-0.3138885-1.5273743-1.0725861l0.8155365-0.1900711
	c0.1107941,0.4053726,0.3967743,0.5473328,0.7896118,0.5473328c0.2514191,0,0.5884857-0.0962143,0.5884857-0.4164124
	c0-0.3233566-0.4297791-0.3832932-0.6607666-0.4361343c-0.6717529-0.1388092-1.3340912-0.3414993-1.3340912-1.1877365
	c0-0.3596344,0.1367188-0.6774673,0.4085541-0.9077606c0.2749939-0.2373886,0.6002655-0.3162537,0.9483185-0.3162537
	c0.6599731,0,1.1997375,0.2373886,1.4330902,0.9085464L29.5597,3.1783371z M33.0614853,5.3874054
	c-0.2749939-0.3990707-0.3959808-0.9014511-0.3959808-1.3872757c0-1.0260544,0.500473-1.9834976,1.6200714-1.9834976
	c0.5020447,0,0.9003906,0.1711349,1.2013092,0.5914993c0.2710571,0.3777695,0.4085541,0.9258957,0.4085541,1.3919983
	c0,0.4392929-0.1147156,0.9755859-0.3567047,1.3431091c-0.294632,0.4400787-0.7408905,0.6530151-1.2531586,0.6530151
	S33.3592606,5.8148575,33.0614853,5.3874054 M33.7120285,3.1964798c-0.0864258,0.228714-0.1209869,0.5615311-0.1209869,0.8036499
	c0,0.4858246,0.0714874,1.2563553,0.6945343,1.2563553c0.3032684,0,0.4698334-0.1506348,0.5688324-0.4392929
	c0.0887909-0.2365952,0.1154938-0.5552216,0.1154938-0.8115387c0-0.282341-0.0267029-0.612793-0.1374969-0.8730545
	c-0.1107788-0.2594757-0.2710571-0.3769836-0.5468292-0.3769836C33.9823074,2.7556152,33.8180923,2.9125595,33.7120285,3.1964798
	 M39.4820786,5.9386826h-0.7534637l-1.4519501-2.5978775h-0.0204315v2.5978775h-0.6835327V2.0718384h0.9538116L38.7883224,4.34478
	h0.0110016V2.0718384h0.6827545V5.9386826z M42.69944,5.1713028v0.7673798h-2.4026184V2.0718384h0.8823242v3.0994644H42.69944z
	 M44.446022,4.3116531v1.6270294h-0.8799744V4.3116531l-1.1981659-2.2398148h1.026886l0.7259674,1.4716568l0.7181244-1.4716568
	h0.7935333L44.446022,4.3116531z"/>
<g>
	<path d="M103.8337326,32.7218094c-2.7758179,0-5.0244446,1.0165939-5.0244446,2.2697906
		c0,1.2531929,2.2486267,2.2713661,5.0244446,2.2713661c2.7750244,0,5.0244293-1.0181732,5.0244293-2.2713661
		C108.8581619,33.7384033,106.608757,32.7218094,103.8337326,32.7218094 M108.5022507,34.831501h-0.9223938
		c-0.0620728-0.5394516-0.4399872-1.0292168-1.0182343-1.3998909
		C107.6466446,33.7573318,108.3851852,34.2683907,108.5022507,34.831501 M107.2388687,34.831501h-1.1510162
		c-0.045578-0.6396141-0.3511963-1.2035103-0.8139648-1.5907478
		C106.3596878,33.5278282,107.1367416,34.1256409,107.2388687,34.831501 M103.8337326,36.9238396
		c-1.0630341,0-1.925705-0.8659592-1.925705-1.9322395c0-1.06707,0.8626709-1.9298744,1.925705-1.9298744
		c1.0622406,0,1.9249115,0.8628044,1.9249115,1.9298744C105.7586441,36.0578804,104.8959732,36.9238396,103.8337326,36.9238396
		 M101.5796127,34.831501h-1.1510315c0.1021423-0.7058601,0.8791809-1.3036728,1.9642029-1.5907478
		C101.9292374,33.6279907,101.6243973,34.1918869,101.5796127,34.831501 M101.1058426,33.4316101
		c-0.5806274,0.3706741-0.9577484,0.8604393-1.0190277,1.3998909h-0.9231873
		C99.2838516,34.2683907,100.0200272,33.7573318,101.1058426,33.4316101 M99.1675644,35.169838h0.9216003
		c0.0707092,0.5339279,0.4415588,1.0165939,1.0166779,1.3809586C100.0333786,36.229023,99.2979813,35.7274284,99.1675644,35.169838
		 M100.4293747,35.169838h1.150238c0.0494995,0.632515,0.3543396,1.1924667,0.8131714,1.5718193
		C101.3163986,36.457737,100.544075,35.8693886,100.4293747,35.169838 M106.087059,35.169838h1.150238
		c-0.1131287,0.6995506-0.8878174,1.287899-1.9634094,1.5718193
		C105.7319412,36.3623047,106.0375595,35.8023529,106.087059,35.169838 M106.5616226,36.5507965
		c0.575119-0.3643646,0.9483032-0.8470306,1.0174561-1.3809586h0.9192352
		C108.3686905,35.7274284,107.6348495,36.229023,106.5616226,36.5507965"/>
	<path d="M103.5608749,34.991993c0-0.1466904,0.1170654-0.2649918,0.2647705-0.2649918
		c0.1445618,0,0.2639923,0.1183014,0.2639923,0.2649918c0,0.1466942-0.1194305,0.2681503-0.2639923,0.2681503
		C103.6779404,35.2601433,103.5608749,35.1386871,103.5608749,34.991993"/>
	<path d="M103.8339767,33.8258667l0.3543396-0.3541107c-0.2176361-0.2184601-0.4934082-0.2184601-0.7102661,0
		L103.8339767,33.8258667z"/>
	<path d="M104.1171341,34.2402344c0-0.2728767,0.2191925-0.4929161,0.4918365-0.4929161
		c0.2726288,0,0.4934082,0.2200394,0.4934082,0.4929161c0,0.2744598-0.2207794,0.4960747-0.4934082,0.4960747
		C104.3363266,34.7363091,104.1171341,34.5146942,104.1171341,34.2402344"/>
	<path d="M102.5611649,34.2402344c0-0.2728767,0.2207642-0.4929161,0.4918365-0.4929161
		c0.273407,0,0.4910431,0.2200394,0.4910431,0.4929161c0,0.2744598-0.2176361,0.4960747-0.4910431,0.4960747
		C102.781929,34.7363091,102.5611649,34.5146942,102.5611649,34.2402344"/>
	<path d="M102.5895309,35.7698593c0-0.2705116,0.2207642-0.4952812,0.4910431-0.4952812
		c0.2726288,0,0.4934082,0.2247696,0.4934082,0.4952812c0,0.2720909-0.2207794,0.4937096-0.4934082,0.4937096
		C102.8102951,36.2635689,102.5895309,36.0419502,102.5895309,35.7698593"/>
	<path d="M104.0749435,35.7606316c0-0.2728767,0.219986-0.4944954,0.4926147-0.4944954
		c0.2734222,0,0.4918365,0.2216187,0.4918365,0.4944954c0,0.2752457-0.2184143,0.4937096-0.4918365,0.4937096
		C104.2949295,36.2543411,104.0749435,36.0358772,104.0749435,35.7606316"/>
	<path d="M103.8254929,36.1464462l-0.3574982,0.3517494c0.2176361,0.2208252,0.4918365,0.2208252,0.7110443,0
		L103.8254929,36.1464462z"/>
	<path d="M104.9618912,34.9942818l0.3511963,0.3572693c0.2215576-0.2200394,0.2215576-0.4960747,0-0.7129555L104.9618912,34.9942818
		z"/>
	<path d="M102.6699905,34.9942818l-0.3543549,0.3572693c-0.2184143-0.2200394-0.2184143-0.4960747,0-0.7129555
		L102.6699905,34.9942818z"/>
</g>
<g>
	<polygon points="17.3905869,32.8231506 18.3247604,35.1000404 18.3247604,32.8231506 18.9485855,32.8231506 18.9485855,36.4873085 
		18.2312546,36.4873085 17.1218796,33.8365936 17.1218796,36.4873085 16.497261,36.4873085 16.497261,32.8231506 	"/>
	<path d="M21.6555099,35.1312714c0,0.8675385-0.311142,1.410141-1.0991669,1.410141
		c-0.7762604,0-1.0952454-0.5370827-1.0952454-1.410141c0-0.8438759,0.294632-1.4117165,1.0999451-1.4117165
		C21.3593063,33.7195549,21.6555099,34.2873955,21.6555099,35.1312714 M20.5563431,34.2463837
		c-0.2412109,0-0.3174286,0.2184639-0.3174286,0.8848877c0,0.7200546,0.098999,0.8848877,0.3221283,0.8848877
		c0.2184296,0,0.3174286-0.1585236,0.3174286-0.8848877c0-0.6963921-0.0872192-0.8848877-0.3174286-0.8848877H20.5563431z"/>
	<path d="M26.1628036,34.6592522c0,0.6711578-0.1210022,1.8825569-1.3254547,1.8825569
		c-1.1683044,0-1.3222961-1.1451492-1.3222961-1.8825569c0-0.7034912,0.1367035-1.8896484,1.3222961-1.8896484
		C25.9985886,32.7696037,26.1628036,33.8942451,26.1628036,34.6592522 M24.3573074,34.6592522
		c0,0.7863045,0.0754242,1.2311134,0.4800415,1.2311134c0.4116974,0,0.4824066-0.4582138,0.4824066-1.2311134
		c0-0.7705269-0.0667725-1.2342644-0.4824066-1.2342644C24.4327316,33.4249878,24.3573074,33.8634872,24.3573074,34.6592522"/>
	<path d="M27.4087448,33.7797279v0.3690987c0.1099854-0.2263489,0.2506256-0.4290352,0.6725311-0.4290352
		c0.1045074,0,0.4116974,0,0.5971222,0.2854996c0.1100006,0.1687737,0.1100006,0.4361305,0.1100006,0.7027016v1.7800293h-0.748764
		v-1.7800293c0-0.241333-0.024353-0.401432-0.2577057-0.401432c-0.3339081,0-0.3339081,0.2649918-0.3339081,0.5930786v1.5883827
		h-0.7503204v-2.7082939H27.4087448z"/>
	<path d="M30.0139694,35.2602196c-0.0062866,0.3667336-0.0141449,0.7626457,0.3590546,0.7626457
		c0.3221283,0,0.3614197-0.2941742,0.3849945-0.4684715L31.428978,35.59935
		c-0.0526428,0.2523727-0.2034912,0.9424591-1.0732422,0.9424591c-0.824173,0-1.1195831-0.6514435-1.1195831-1.3722839
		c0-0.175087,0.0212097-0.6041222,0.2011261-0.932209c0.1924896-0.3485909,0.5476227-0.5173683,0.9145355-0.5173683
		c0.4706268,0,0.7605438,0.2649956,0.8815308,0.495285c0.190918,0.3675194,0.1956329,0.7129593,0.1956329,1.0449867H30.0139694z
		 M30.7179489,34.8232956c0.0054932-0.1490555,0.0164948-0.604908-0.3504181-0.604908
		c-0.3386383,0-0.3449249,0.4132614-0.3496246,0.604908H30.7179489z"/>
	<path d="M34.9747849,35.8899727h0.6002502v0.5978127h-2.0137024v-0.5978127h0.6120453v-2.1641083
		c-0.1665649,0.1711426-0.3150482,0.3012733-0.6120453,0.4613724v-0.7200546
		c0.4329071-0.2310791,0.6466217-0.4684677,0.7990417-0.6758881h0.6144104V35.8899727z"/>
	<path d="M35.9853287,32.8231506h2.1661224v0.6159515c-0.3716278,0.5173683-0.8571777,1.2792244-0.8870392,3.0482063h-0.8689575
		c0.0046997-0.2728767,0.0172729-0.8604355,0.2844086-1.5875893c0.2639923-0.7129593,0.5963287-1.1199112,0.782547-1.3565102
		h-1.5360107L35.9853287,32.8231506z"/>
	<path d="M39.7866745,34.5652466c0.0220032-0.1537895,0.0652161-0.4755669,0.4486237-0.6963959
		c0.1893616-0.1088371,0.4148407-0.1490593,0.6379852-0.1490593c0.2859802,0,0.5813904,0.073349,0.7841034,0.2854996
		c0.1657715,0.1648331,0.1744232,0.4724121,0.1744232,0.8044434v1.074955c0,0.4605827,0.0172882,0.5086937,0.0455627,0.6033325
		h-0.696106c-0.033783-0.109623-0.0377197-0.1711388-0.0377197-0.4179955
		c-0.1005707,0.1758728-0.273407,0.4716263-0.7440338,0.4716263c-0.3629913,0-0.7063293-0.2074203-0.7063293-0.7413483
		c0-0.7531815,0.5837555-0.9495583,1.3898773-0.9905701v-0.1080475c0-0.2350235,0-0.482666-0.2679291-0.482666
		c-0.2529907,0-0.3009186,0.2026863-0.3237,0.4195709L39.7866745,34.5652466z M41.0830612,35.1914482
		c-0.4329224,0.0559959-0.6144104,0.1601028-0.6144104,0.5118484c0,0.1908569,0.0738525,0.3407059,0.2521973,0.3407059
		c0.0942841,0,0.1759949-0.045742,0.2467041-0.1498489c0.1029358-0.1537895,0.115509-0.3249321,0.115509-0.5702057V35.1914482z"/>
	<path d="M43.1446915,33.7797279v0.3690987c0.1092072-0.2263489,0.2521973-0.4290352,0.6733246-0.4290352
		c0.1029205,0,0.4109039,0,0.5955505,0.2854996c0.1099854,0.1687737,0.1099854,0.4361305,0.1099854,0.7027016v1.7800293h-0.7495422
		v-1.7800293c0-0.241333-0.0227814-0.401432-0.2569122-0.401432c-0.3339081,0-0.3339081,0.2649918-0.3339081,0.5930786v1.5883827
		h-0.7503357v-2.7082939H43.1446915z"/>
	<path d="M47.1372147,32.823391v3.6641579h-0.6945496v-0.4432335c-0.0769958,0.195591-0.1917114,0.4810905-0.6167603,0.4810905
		c-0.7228241,0-0.860321-0.8391457-0.860321-1.3762283c0-0.2168846,0-1.4085617,0.8917542-1.4085617
		c0.3614044,0,0.471405,0.1774483,0.5413361,0.2862854V32.823391H47.1372147z M46.398674,34.9157295
		c0-0.2405434,0-0.6750984-0.3276367-0.6750984c-0.2906952,0-0.3284149,0.3533249-0.3284149,0.7870903
		c0,0.5268326,0,0.9771614,0.3229218,0.9771614c0.3331299,0,0.3331299-0.4124718,0.3331299-0.6088524V34.9157295z"/>
	<path d="M50.0401535,32.8231506v2.0923424c0,0.5339279,0,0.9747925,0.5209045,0.9747925
		c0.2459106,0,0.3606262-0.1167221,0.4211273-0.2421188c0.0652008-0.1435394,0.0652008-0.3320313,0.0652008-0.7326736v-2.0923424
		h0.6733398v2.0623703c0,0.6474991,0,1.1514587-0.4431305,1.4487877c-0.1689148,0.1112022-0.4085541,0.2074203-0.7872467,0.2074203
		c-1.2421722,0-1.2476654-0.8438759-1.2476654-1.626236v-2.0923424H50.0401535z"/>
	<path d="M53.0984879,33.7797279v0.3690987c0.1099854-0.2263489,0.2514038-0.4290352,0.6725311-0.4290352
		c0.1045074,0,0.4109192,0,0.5971222,0.2854996c0.1092072,0.1687737,0.1092072,0.4361305,0.1092072,0.7027016v1.7800293h-0.7479706
		v-1.7800293c0-0.241333-0.024353-0.401432-0.2577057-0.401432c-0.3339081,0-0.3339081,0.2649918-0.3339081,0.5930786v1.5883827
		h-0.7495422v-2.7082939H53.0984879z"/>
	<path d="M57.0918045,32.823391v3.6641579h-0.6937714v-0.4432335c-0.0769958,0.195591-0.1916962,0.4810905-0.6191101,0.4810905
		c-0.7220459,0-0.8595428-0.8391457-0.8595428-1.3762283c0-0.2168846,0-1.4085617,0.8925476-1.4085617
		c0.3598328,0,0.4698334,0.1774483,0.5413361,0.2862854V32.823391H57.0918045z M56.3532639,34.9157295
		c0-0.2405434,0-0.6750984-0.3284302-0.6750984c-0.2891235,0-0.3268433,0.3533249-0.3268433,0.7870903
		c0,0.5268326,0,0.9771614,0.3221436,0.9771614c0.3331299,0,0.3331299-0.4124718,0.3331299-0.6088524V34.9157295z"/>
	<path d="M58.3553238,35.2602196c-0.004715,0.3667336-0.0125732,0.7626457,0.3590546,0.7626457
		c0.3237,0,0.3621979-0.2941742,0.3857727-0.4684715l0.6725464,0.0449562
		c-0.0557861,0.2523727-0.202713,0.9424591-1.072464,0.9424591c-0.8265381,0-1.1219482-0.6514435-1.1219482-1.3722839
		c0-0.175087,0.0220032-0.6041222,0.202713-0.932209c0.1901245-0.3485909,0.5460358-0.5173683,0.9137421-0.5173683
		c0.4698334,0,0.7597504,0.2649956,0.8815308,0.495285c0.1901398,0.3675194,0.1964264,0.7129593,0.1964264,1.0449867H58.3553238z
		 M59.0608749,34.8232956c0.0054932-0.1490555,0.0157013-0.604908-0.3504181-0.604908
		c-0.3378448,0-0.3449249,0.4132614-0.3488464,0.604908H59.0608749z"/>
	<path d="M60.9153214,33.7797279v0.6553879c0.0667725-0.2310829,0.1964111-0.6948204,0.6340332-0.6948204
		c0.0542145,0,0.0927124,0.0070992,0.1320038,0.0197182v0.7342491c-0.0675659-0.0102501-0.1005707-0.0102501-0.1257172-0.0102501
		c-0.5531158,0-0.5531158,0.6262016-0.5531158,0.8320465v1.1719627h-0.7503204v-2.7082939H60.9153214z"/>
	<path d="M64.6568832,32.8259926l1.038681,3.6617928h-0.8155518l-0.186203-0.7516022h-1.0229492l-0.1807098,0.7516022h-0.7385406
		l1.0928802-3.6617928H64.6568832z M64.5468979,35.1036682l-0.3669281-1.4921608l-0.3551178,1.4921608H64.5468979z"/>
	<path d="M68.0306778,32.823391v3.6641579H67.33535v-0.4432335c-0.0762177,0.195591-0.1901398,0.4810905-0.6191101,0.4810905
		c-0.719696,0-0.8579712-0.8391457-0.8579712-1.3762283c0-0.2168846,0-1.4085617,0.8909607-1.4085617
		c0.3629913,0,0.4721985,0.1774483,0.5437012,0.2862854V32.823391H68.0306778z M67.2929306,34.9157295
		c0-0.2405434,0-0.6750984-0.3284302-0.6750984c-0.2914734,0-0.3291931,0.3533249-0.3291931,0.7870903
		c0,0.5268326,0,0.9771614,0.3237,0.9771614c0.3339233,0,0.3339233-0.4124718,0.3339233-0.6088524V34.9157295z"/>
	<path d="M68.6310349,33.7797279h0.7118225v0.3690987c0.0762024-0.1553688,0.2144928-0.4290352,0.6568298-0.4290352
		c0.4580536,0,0.5350494,0.2713013,0.5814056,0.4290352c0.0809174-0.1837578,0.2231293-0.4290352,0.6615448-0.4290352
		c0.686676,0,0.686676,0.5055351,0.686676,0.993721v1.7745094h-0.7479706v-1.6980057c0-0.3060036,0-0.4834557-0.2404175-0.4834557
		c-0.273407,0-0.285202,0.2153053-0.285202,0.604908v1.5765533h-0.7495422v-1.7137794
		c0-0.3312416-0.0109863-0.4605827-0.2341309-0.4605827c-0.2679138,0-0.2914886,0.216095-0.2914886,0.5978088v1.5765533h-0.749527
		V33.7797279z"/>
	<path d="M72.4881668,32.8028336h0.7589722v0.7484131h-0.7589722V32.8028336z M73.2432022,36.4882584h-0.748764v-2.708252h0.748764
		V36.4882584z"/>
	<path d="M74.6825027,32.9217377v0.8596497h0.4973297v0.5915031h-0.4973297v0.9937248c0,0.5102692,0,0.5765152,0.5358276,0.5433922
		v0.5773048c-0.1107788,0.0244484-0.2631989,0.0544205-0.4651184,0.0544205c-0.2474976,0-0.5201263-0.0583611-0.674118-0.2784004
		c-0.1312103-0.1932259-0.1312103-0.4668922-0.1312103-0.8139076v-1.0765343h-0.2938385v-0.5915031h0.3323364l0.0605011-0.7973442
		L74.6825027,32.9217377z"/>
	<path d="M76.4049606,32.9217377v0.8596497h0.4973297v0.5915031h-0.4973297v0.9937248c0,0.5102692,0,0.5765152,0.5350342,0.5433922
		v0.5773048c-0.1092072,0.0244484-0.2624054,0.0544205-0.464325,0.0544205c-0.2467041,0-0.5193481-0.0583611-0.6733398-0.2784004
		c-0.1319885-0.1932259-0.1319885-0.4668922-0.1319885-0.8139076v-1.0765343h-0.2954102v-0.5915031h0.3346863l0.0612946-0.7973442
		L76.4049606,32.9217377z"/>
	<path d="M77.9459915,35.2602196c-0.0055084,0.3667336-0.0110016,0.7626457,0.3614044,0.7626457
		c0.3229218,0,0.3606262-0.2941742,0.3826294-0.4684715l0.6733246,0.0449562
		c-0.0549927,0.2523727-0.2026978,0.9424591-1.0732422,0.9424591c-0.8249664,0-1.1203766-0.6514435-1.1203766-1.3722839
		c0-0.175087,0.0220032-0.6041222,0.2019196-0.932209c0.1924896-0.3485909,0.5476227-0.5173683,0.9129639-0.5173683
		c0.4706268,0,0.761322,0.2649956,0.8807526,0.495285c0.1932678,0.3675194,0.1979828,0.7129593,0.1979828,1.0449867H77.9459915z
		 M78.6507492,34.8232956c0.0086365-0.1490555,0.0172729-0.604908-0.3488464-0.604908
		c-0.3386383,0-0.3433533,0.4132614-0.3504181,0.604908H78.6507492z"/>
	<path d="M81.8960037,32.823391v3.6641579h-0.6961212v-0.4432335c-0.0754242,0.195591-0.190918,0.4810905-0.6167603,0.4810905
		c-0.7220306,0-0.8595276-0.8391457-0.8595276-1.3762283c0-0.2168846,0-1.4085617,0.8917542-1.4085617
		c0.3614044,0,0.4706116,0.1774483,0.5413361,0.2862854V32.823391H81.8960037z M81.1566849,34.9157295
		c0-0.2405434,0-0.6750984-0.3268585-0.6750984c-0.2914734,0-0.3307648,0.3533249-0.3307648,0.7870903
		c0,0.5268326,0,0.9771614,0.3244934,0.9771614c0.3331299,0,0.3331299-0.4124718,0.3331299-0.6088524V34.9157295z"/>
</g>
<g>
	<path d="M61.2138748,8.8133774c-0.0550079,1.0236969-0.4462738,1.8486481-1.1950226,1.8486481
		c-1.0449677,0-1.2916718-1.4464264-1.2916718-2.5978775c0-0.9180145,0.1547852-2.6065521,1.3003082-2.6065521
		c0.5193329,0,0.7762451,0.348587,0.9310303,0.6821976c0.2003479,0.4377136,0.2254944,0.9692764,0.2388458,1.2729111
		l-0.6819763,0.0741348c-0.0204163-0.4014359-0.0518494-1.1270065-0.4831848-1.1270065
		c-0.4258423,0-0.5130463,0.765007-0.5130463,1.7879105c0,0.8470306,0.0659943,1.6120377,0.5130463,1.6120377
		c0.4069824,0,0.4627686-0.7405548,0.4894714-1.0142288L61.2138748,8.8133774z"/>
	<polygon points="64.0803604,10.5863037 63.3308182,10.5863037 63.3308182,8.5168381 62.5034866,8.5168381 62.5034866,10.5863037 
		61.7523727,10.5863037 61.7523727,5.5325165 62.5034866,5.5325165 62.5034866,7.571228 63.3308182,7.571228 63.3308182,5.5325165 
		64.0803604,5.5325165 	"/>
	<polygon points="66.9108505,5.5323563 66.9108505,6.4046249 65.5791092,6.4046249 65.5791092,7.5710678 66.6122818,7.5710678 
		66.6122818,8.4409714 65.5791092,8.4409714 65.5791092,9.6854935 66.9108505,9.6854935 66.9108505,10.5861511 
		64.8287888,10.5861511 64.8287888,5.5323563 	"/>
	<path d="M69.7451248,8.8133774c-0.0581512,1.0236969-0.4470673,1.8486481-1.1981659,1.8486481
		c-1.0441742,0-1.2885284-1.4464264-1.2885284-2.5978775c0-0.9180145,0.1532135-2.6065521,1.2979431-2.6065521
		c0.5201263,0,0.777832,0.348587,0.9310455,0.6821976c0.1995544,0.4377136,0.2254791,0.9692764,0.2411957,1.2729111
		l-0.6835327,0.0741348c-0.0196533-0.4014359-0.0518646-1.1270065-0.4832001-1.1270065
		c-0.4258423,0-0.5138397,0.765007-0.5138397,1.7879105c0,0.8470306,0.0667877,1.6120377,0.5138397,1.6120377
		c0.406189,0,0.4635468-0.7405548,0.4894714-1.0142288L69.7451248,8.8133774z"/>
	<polygon points="71.0325394,5.5323563 71.0325394,7.6388931 71.8645706,5.5323563 72.6258926,5.5323563 71.7679367,7.389679 
		72.6981735,10.5861511 71.9211349,10.5861511 71.3145981,8.2603683 71.0325394,8.8739548 71.0325394,10.5861511 
		70.2829971,10.5861511 70.2829971,5.5323563 	"/>
	<polygon points="76.2545853,5.5323563 76.2545853,6.4795532 75.5560989,6.4795532 75.5560989,10.5861511 74.8081436,10.5861511 
		74.8081436,6.4795532 74.1238022,6.4795532 74.1238022,5.5323563 	"/>
	<polygon points="78.9522934,10.5863037 78.2019577,10.5863037 78.2019577,8.5168381 77.3746414,8.5168381 77.3746414,10.5863037 
		76.6250992,10.5863037 76.6250992,5.5325165 77.3746414,5.5325165 77.3746414,7.571228 78.2019577,7.571228 78.2019577,5.5325165 
		78.9522934,5.5325165 	"/>
	<rect x="79.7015152" y="5.5330582" width="0.7495422" height="5.053833"/>
	<path d="M82.6704636,6.9865036c-0.0424347-0.180603-0.1398621-0.6269913-0.4832001-0.6269913
		c-0.2522125,0-0.3590546,0.2563171-0.3590546,0.4613724c0,0.3485947,0.2247009,0.4708405,0.5908356,0.6751022
		c0.3841858,0.2184601,0.9459534,0.5299835,0.9459534,1.552887c0,0.8628082-0.4124756,1.6128311-1.2193756,1.6128311
		c-0.2451324,0-0.6159821-0.0678253-0.8933258-0.5299835c-0.190918-0.3265076-0.2514191-0.6364594-0.2930603-0.8564987
		l0.6576233-0.2736664c0.0400696,0.228714,0.1390686,0.7586975,0.5491943,0.7586975
		c0.2584839,0,0.4376221-0.2121506,0.4376221-0.5449677c0-0.3572693-0.2160645-0.5000153-0.4737701-0.6356659
		c-0.4666901-0.2508011-1.031601-0.5473404-1.031601-1.5765533c0-0.7886658,0.3449097-1.5449982,1.0936737-1.5449982
		c0.8540344,0,1.0323792,0.838356,1.1038818,1.1719589L82.6704636,6.9865036z"/>
	<path d="M85.3389359,5.5322037h1.1659546c0.3394165,0,0.7236176,0,0.9357452,0.4314041
		c0.128067,0.2586823,0.1791382,0.584404,0.1791382,0.9030228c0,0.8107529-0.3284149,0.9929352-0.4886932,1.0812683
		c0.1154938,0.0630951,0.2223511,0.1159363,0.3441315,0.3123093c0.1233521,0.1971664,0.2388458,0.5000153,0.2388458,0.9259033
		c0,0.4369202-0.1304169,0.94561-0.377121,1.1664352c-0.2616425,0.2334518-0.5240631,0.2334518-0.8320465,0.2334518h-1.1659546
		V5.5322037z M86.0633469,7.5709152h0.2419891c0.2050629,0,0.5491791,0,0.5491791-0.6285706
		c0-0.5907135-0.3441162-0.5907135-0.4934082-0.5907135h-0.29776V7.5709152z M86.0633469,9.7153015h0.3700409
		c0.3229218,0,0.5146332-0.1671906,0.5146332-0.66642c0-0.6601181-0.3496399-0.6601181-0.5193329-0.6601181h-0.3653412V9.7153015z"
		/>
	<path d="M90.6905289,8.0639801c0,0.9227448-0.1123505,2.5978775-1.2413788,2.5978775
		c-1.1007385,0-1.2437286-1.5836487-1.2437286-2.5978775c0-0.9692688,0.128067-2.6065445,1.2437286-2.6065445
		C90.5381088,5.4574356,90.6905289,7.0103226,90.6905289,8.0639801 M88.9966049,8.0639801
		c0,1.0828476,0.0707092,1.6956406,0.4525452,1.6956406c0.384201,0,0.4501953-0.6277771,0.4501953-1.6956406
		c0-1.0615463-0.062851-1.7043076-0.4501953-1.7043076C89.0673141,6.3596725,88.9966049,6.9637909,88.9966049,8.0639801"/>
	<polygon points="91.8568802,5.5323563 92.2670059,6.8510132 92.6983414,5.5323563 93.417244,5.5323563 92.6111221,7.8202896 
		93.5217361,10.5861511 92.6983414,10.5861511 92.1962814,8.9346771 91.6361008,10.5861511 90.9171982,10.5861511 
		91.8568802,7.9953766 91.0177689,5.5323563 	"/>
	<polygon points="60.8823929,13.1140671 60.8823929,13.9847641 59.6009445,13.9847641 59.6009445,15.3034134 60.5877609,15.3034134 
		60.5877609,16.1748962 59.6009445,16.1748962 59.6009445,18.1678619 58.8514023,18.1678619 58.8514023,13.1140671 	"/>
	<path d="M63.5922165,15.6456985c0,0.9227448-0.1131439,2.5970917-1.2445221,2.5970917
		c-1.0983887,0-1.242157-1.5828629-1.242157-2.5970917c0-0.9700623,0.1288452-2.6065445,1.242157-2.6065445
		C63.4382248,13.0391541,63.5922165,14.592041,63.5922165,15.6456985 M61.8967209,15.6456985
		c0,1.082058,0.0722809,1.6948509,0.4509735,1.6948509c0.3873444,0,0.4525604-0.6269913,0.4525604-1.6948509
		c0-1.0623322-0.0620728-1.705101-0.4525604-1.705101C61.9690018,13.9405975,61.8967209,14.5447235,61.8967209,15.6456985"/>
	<path d="M65.2910233,13.114151c0.3441162,0,0.6788177,0,0.9396667,0.4314041
		c0.1822815,0.29496,0.2474976,0.6971817,0.2474976,1.0978241c0,0.8943481-0.3127136,1.168808-0.4824219,1.3186531
		l0.6309052,2.2059097h-0.8210297l-0.458847-1.9929695h-0.3794708v1.9929695h-0.748764v-5.053791H65.2910233z M64.9673233,13.932785
		v1.4243393h0.3339081c0.3237,0,0.4431305-0.3131027,0.4431305-0.7287292c0-0.69561-0.3441315-0.69561-0.4729919-0.69561H64.9673233
		z"/>
	<path d="M69.9997635,14.5690079c-0.040863-0.180603-0.1390686-0.6285629-0.4824219-0.6285629
		c-0.2521973,0-0.3606262,0.257103-0.3606262,0.4613724c0,0.348587,0.2278442,0.470047,0.5924072,0.6758881
		c0.3849792,0.2176743,0.944397,0.5299835,0.944397,1.5520973c0,0.8628044-0.4109192,1.6128273-1.2170258,1.6128273
		c-0.2459259,0-0.6167603-0.0686111-0.8948975-0.5299835c-0.1885529-0.3272972-0.249054-0.6356697-0.2914886-0.8564949
		l0.6576233-0.2728806c0.0416412,0.228714,0.1382751,0.7579117,0.5499725,0.7579117
		c0.256134,0,0.4368439-0.2113647,0.4368439-0.5449715c0-0.3564796-0.2160645-0.4992256-0.4729767-0.6356659
		c-0.468277-0.2507973-1.0331726-0.5473328-1.0331726-1.5765457c0-0.7878876,0.3441162-1.54422,1.0960236-1.54422
		c0.8508911,0,1.031601,0.838356,1.1030884,1.1719666L69.9997635,14.5690079z"/>
	<path d="M72.2442245,13.114151c0.3598328,0,0.7346039,0,0.9915314,0.3864441
		c0.2357025,0.3635788,0.2891235,0.8478241,0.2891235,1.1964111c0,0.5000229-0.0950623,1.0079193-0.359848,1.3115578
		c-0.2576904,0.2949638-0.6796112,0.2949638-0.8901672,0.2949638H72.008522v1.8644142h-0.7511139v-5.053791H72.2442245z
		 M72.008522,13.932785v1.4984741h0.2357025c0.2631989,0,0.4831848-0.0828094,0.4831848-0.7563324
		c0-0.7421417-0.3181915-0.7421417-0.4831848-0.7421417H72.008522z"/>
	<polygon points="76.0650711,13.1140671 76.0650711,13.9847641 74.7356949,13.9847641 74.7356949,15.1527786 75.7672958,15.1527786 
		75.7672958,16.0226822 74.7356949,16.0226822 74.7356949,17.2672005 76.0650711,17.2672005 76.0650711,18.1678619 
		73.984581,18.1678619 73.984581,13.1140671 	"/>
	<path d="M78.9001236,16.395092c-0.0573578,1.0229073-0.4470673,1.8478546-1.1973877,1.8478546
		c-1.0433807,0-1.2885132-1.4464188-1.2885132-2.5970879c0-0.9188004,0.1531982-2.6065521,1.2987213-2.6065521
		c0.5177765,0,0.7762604,0.3485947,0.9286804,0.6814117c0.2011414,0.4369202,0.2278442,0.9700623,0.2427826,1.2737045
		l-0.6827698,0.0733414c-0.0212097-0.4006424-0.0518494-1.1270065-0.4831848-1.1270065
		c-0.4258423,0-0.5146179,0.7642212-0.5146179,1.7879105c0,0.8470306,0.0675659,1.6120415,0.5146179,1.6120415
		c0.4054108,0,0.4619751-0.7405624,0.4871216-1.0142288L78.9001236,16.395092z"/>
	<rect x="79.4375229" y="13.1144791" width="0.7518921" height="5.053833"/>
	<polygon points="82.9674454,13.1140671 82.9674454,13.9847641 81.6875687,13.9847641 81.6875687,15.3034134 82.6751633,15.3034134 
		82.6751633,16.1748962 81.6875687,16.1748962 81.6875687,18.1678619 80.9380264,18.1678619 80.9380264,13.1140671 	"/>
	<rect x="83.3148727" y="13.1144791" width="0.749527" height="5.053833"/>
	<path d="M87.1766586,16.395092c-0.0557861,1.0229073-0.4454956,1.8478546-1.1950226,1.8478546
		c-1.0441742,0-1.2893066-1.4464188-1.2893066-2.5970879c0-0.9188004,0.1516266-2.6065521,1.2987213-2.6065521
		c0.5177765,0,0.7762604,0.3485947,0.9294739,0.6814117c0.2003479,0.4369202,0.2270508,0.9700623,0.2419891,1.2737045
		l-0.6827698,0.0733414c-0.0219879-0.4006424-0.0518494-1.1270065-0.4831848-1.1270065
		c-0.4258423,0-0.5138397,0.7642212-0.5138397,1.7879105c0,0.8470306,0.0675659,1.6120415,0.5138397,1.6120415
		c0.4054108,0,0.4611969-0.7405624,0.4871216-1.0142288L87.1766586,16.395092z"/>
	<path d="M91.4909134,16.395092c-0.0550079,1.0229073-0.4454956,1.8478546-1.1965942,1.8478546
		c-1.043396,0-1.2885284-1.4464188-1.2885284-2.5970879c0-0.9188004,0.15242-2.6065521,1.2987366-2.6065521
		c0.5185547,0,0.7762451,0.3485947,0.9286804,0.6814117c0.2026978,0.4369202,0.2262726,0.9700623,0.2427673,1.2737045
		l-0.6827545,0.0733414c-0.0220032-0.4006424-0.0518494-1.1270065-0.4832001-1.1270065
		c-0.4273987,0-0.5138245,0.7642212-0.5138245,1.7879105c0,0.8470306,0.0667725,1.6120415,0.5138245,1.6120415
		c0.4062042,0,0.4611969-0.7405624,0.4863434-1.0142288L91.4909134,16.395092z"/>
	<path d="M94.3925858,15.6456985c0,0.9227448-0.1123505,2.5970917-1.2437286,2.5970917
		c-1.096817,0-1.2429504-1.5828629-1.2429504-2.5970917c0-0.9700623,0.1288605-2.6065445,1.2429504-2.6065445
		C94.2385941,13.0391541,94.3925858,14.592041,94.3925858,15.6456985 M92.6978836,15.6456985
		c0,1.082058,0.0730591,1.6948509,0.4509735,1.6948509c0.3865509,0,0.4525604-0.6269913,0.4525604-1.6948509
		c0-1.0623322-0.0612946-1.705101-0.4525604-1.705101C92.7709427,13.9405975,92.6978836,14.5447235,92.6978836,15.6456985"/>
	<polygon points="95.8244247,13.1140671 96.7043839,16.2506065 96.7043839,13.1140671 97.2889328,13.1140671 97.2889328,18.1678619 
		96.615593,18.1678619 95.5737839,14.5092239 95.5737839,18.1678619 94.9876633,18.1678619 94.9876633,13.1140671 	"/>
	<polygon points="99.7544785,13.1140671 99.7544785,14.0604706 99.0552139,14.0604706 99.0552139,18.1678619 98.3048935,18.1678619 
		98.3048935,14.0604706 97.6213455,14.0604706 97.6213455,13.1140671 	"/>
	<polygon points="102.2035294,13.1140671 102.2035294,13.9847641 100.8741531,13.9847641 100.8741531,15.1527786 
		101.9049606,15.1527786 101.9049606,16.0226822 100.8741531,16.0226822 100.8741531,17.2672005 102.2035294,17.2672005 
		102.2035294,18.1678619 100.1230392,18.1678619 100.1230392,13.1140671 	"/>
	<polygon points="103.4817581,13.1140671 104.3601456,16.2506065 104.3601456,13.1140671 104.9462662,13.1140671 
		104.9462662,18.1678619 104.2721481,18.1678619 103.2295456,14.5092239 103.2295456,18.1678619 102.6449966,18.1678619 
		102.6449966,13.1140671 	"/>
	<polygon points="107.4109421,13.1140671 107.4109421,14.0604706 106.7116776,14.0604706 106.7116776,18.1678619 
		105.9613571,18.1678619 105.9613571,14.0604706 105.2785873,14.0604706 105.2785873,13.1140671 	"/>
	<rect x="58.8518753" y="20.6927261" width="0.7495422" height="5.0546875"/>
	<polygon points="61.1570816,20.6927071 62.0362473,23.8316116 62.0362473,20.6927071 62.6207962,20.6927071 62.6207962,25.7472916 
		61.9474716,25.7472916 60.9056625,22.0886536 60.9056625,25.7472916 60.3195419,25.7472916 60.3195419,20.6927071 	"/>
	<polygon points="65.3692703,20.6927071 65.3692703,21.5649757 64.0886002,21.5649757 64.0886002,22.8844223 65.0754166,22.8844223 
		65.0754166,23.7543221 64.0886002,23.7543221 64.0886002,25.7472916 63.3390579,25.7472916 63.3390579,20.6927071 	"/>
	<path d="M68.0799484,23.2243385c0,0.924324-0.1123505,2.5994568-1.2437286,2.5994568
		c-1.0983887,0-1.2421722-1.5844383-1.2421722-2.5994568c0-0.9692726,0.128067-2.6065483,1.2421722-2.6065483
		C67.9259567,20.6177902,68.0799484,22.1706772,68.0799484,23.2243385 M66.3844528,23.2243385
		c0,1.0836334,0.0730591,1.6980057,0.451767,1.6980057c0.3865509,0,0.451767-0.630146,0.451767-1.6980057
		c0-1.0599709-0.0612946-1.705101-0.451767-1.705101C66.4575119,21.5192375,66.3844528,22.1257248,66.3844528,23.2243385"/>
	<path d="M69.7795334,20.6927109c0.3441162,0,0.6780396,0,0.9396667,0.4337692
		c0.1807098,0.29496,0.2467041,0.6971817,0.2467041,1.0978279c0,0.8935623-0.3126984,1.1664391-0.4831848,1.3186531
		l0.6316833,2.2043304h-0.8210449l-0.4572601-1.9929657h-0.3802643v1.9929657h-0.7495422v-5.0545807H69.7795334z
		 M69.4558334,21.5137138v1.4219742h0.3331146c0.3252716,0,0.4423523-0.309948,0.4423523-0.7255783
		c0-0.6963959-0.3441315-0.6963959-0.4714203-0.6963959H69.4558334z"/>
	<polygon points="72.7106094,20.6927071 73.1937943,23.8158379 73.7398453,20.6927071 74.8083725,20.6927071 74.8083725,25.7472916 
		74.1036148,25.7472916 74.1036148,21.5137138 73.4059372,25.7472916 72.8559494,25.7472916 72.2187576,21.5137138 
		72.2187576,25.7472916 71.6067123,25.7472916 71.6067123,20.6927071 	"/>
	<path d="M76.9191818,20.6929474l0.9750366,5.0545807h-0.766037l-0.1744232-1.0386772h-0.9608917l-0.1704865,1.0386772h-0.6921844
		l1.026886-5.0545807H76.9191818z M76.8154831,23.8381577l-0.3433533-2.0600014l-0.3347015,2.0600014H76.8154831z"/>
	<polygon points="80.0295486,20.6927071 80.0295486,21.6414795 79.3318558,21.6414795 79.3318558,25.7472916 78.5807419,25.7472916 
		78.5807419,21.6414795 77.8971939,21.6414795 77.8971939,20.6927071 	"/>
	<rect x="80.3999863" y="20.6927261" width="0.749527" height="5.0546875"/>
	<path d="M84.2608261,23.2243385c0,0.924324-0.1115723,2.5994568-1.242157,2.5994568
		c-1.0991821,0-1.2437439-1.5844383-1.2437439-2.5994568c0-0.9692726,0.1288605-2.6065483,1.2437439-2.6065483
		C84.1076126,20.6177902,84.2608261,22.1706772,84.2608261,23.2243385 M82.5669022,23.2243385
		c0,1.0836334,0.0714874,1.6980057,0.451767,1.6980057c0.3865509,0,0.4509735-0.630146,0.4509735-1.6980057
		c0-1.0599709-0.0605011-1.705101-0.4509735-1.705101C82.6383896,21.5192375,82.5669022,22.1257248,82.5669022,23.2243385"/>
	<polygon points="85.694313,20.6927071 86.5734787,23.8316116 86.5734787,20.6927071 87.1580276,20.6927071 87.1580276,25.7472916 
		86.4854813,25.7472916 85.4421005,22.0886536 85.4421005,25.7472916 84.8567734,25.7472916 84.8567734,20.6927071 	"/>
</g>
<g display="none">
	<path display="inline" d="M29.7052078,15.9999695c0.0109863-1.4803314-0.3127136-1.6554108-1.0756073-2.0986481
		c-1.3207245-0.5473328-2.5338287-0.6317215-5.443985-0.597023c-2.5770416,0.0701981-3.6974182,0.9329987-4.5978088,2.5805283
		c-0.8980408,1.8478508-1.0787506,5.6240005-0.3095551,7.518383c0.2569122,0.5126343,0.285202,1.5789146,2.6202393,2.2587509
		c1.7292938,0.3817139,5.4353485,0.376194,7.4608307-0.3675232c-0.0007782,0.0015793,1.3718109-0.4787216,1.3718109-2.0016403
		c0.0086365-0.3588448-0.630127-0.9684868-2.0467072,0.0212936c-1.2240906,0.9464035-3.8356934,1.0725899-4.9293671,0.5978088
		c-0.6151886-0.2626228-0.9200287-0.6956062-1.1777344-1.6191368c-0.1343536-0.4424438-0.5868988-5.109787,0.3802643-6.4552574
		c0.6073303-1.100193,2.6556091-1.1380501,3.6408539-0.9053917c0.9915314,0.3738327,0.8752441,0.7476578,1.263382,2.3596992
		c0.3606262,0.686142,0.8933105,0.6711578,1.6734924,0.65065C29.797905,17.8754272,29.7052078,16.9755554,29.7052078,15.9999695"/>
	<path display="inline" fill-rule="evenodd" clip-rule="evenodd" d="M33.0551224,18.5115662h1.179306
		c0.8139648,0.0086784,1.0119476,0.8083878,0.9915314,1.3076172c-0.0110016,0.2507935-0.2435608,1.0686455-0.9915314,1.0686455
		l-2.2132721-0.0110397c-0.7353973-0.0134087-1.1219482-0.3698883-1.1345215-1.0576057
		c-0.0164948-0.8754234,0.3991241-1.2476768,1.1376648-1.3076172H33.0551224z"/>
	<path display="inline" fill-rule="evenodd" clip-rule="evenodd" d="M36.4211349,14.4626923
		c1.481781-0.5102615,2.1857605-0.7823563,3.0900726-0.9085464c0.6089172-0.0134048,1.4598083-0.0370636,1.9194336-0.0212936
		c0.2011261,0,0.2026978,0.1490631,0.1948395,0.2902298c-0.0172882,0.4392929,0,1.0039825,0,1.9653664v7.3819427
		c-0.0102081,0.9740067,0.2451324,1.3533554,1.1628113,1.3667641h0.1547852
		c0.8233948,0.0102539,0.8139648,1.1388397,0.0919189,1.1467247c-0.7495422,0-2.0089874-0.007885-3.2982941-0.007885h-2.7726746
		c-0.7471771,0.0236588-0.894104-1.0781136,0.0345764-1.1546135h0.285202
		c0.5837555-0.0938492,0.8673859-0.1285515,0.9019623-1.3509903l0.033783-6.4481583
		c-0.0220032-0.5008049,0.1807098-1.0583916-0.8587494-0.9377251
		C35.8310776,16.1086464,35.5623703,14.8057709,36.4211349,14.4626923"/>
	<path display="inline" fill-rule="evenodd" clip-rule="evenodd" d="M13.6256027,20.9614868
		c0.0007782,0,0.0070648-4.7556725,0.0070648-4.7556725c-0.0220032-1.4267006-0.7456207-1.3431053-1.1706696-1.491375
		c-1.2610168-0.2082062-1.0300293-1.1987762-0.1901398-1.2287445c0.5044098,0.0102539,4.1374054-0.0173492,4.624527,0
		c0.8398895,0.0299683,1.1384583,0.7839355,0.0479279,1.1893158c-0.2411957,0.1096191-1.2413788,0.1041031-1.2649384,1.5308037
		l0.0361328,8.3709335c0,0,0.098999,1.1956253-0.7173309,1.1956253c-0.0062866,0-1.5446472,0-1.5446472-0.0039444
		c-0.4486237,0.0236588-0.7047577-0.1537895-0.981308-0.4566422c0,0-5.7362671-7.6059227-5.7354813-7.6059227
		c-0.047142-0.1041069-0.1123505-0.1317101-0.0754242,0.0086746l0.0133591,5.2257233
		c-0.0408554,1.2366333,0.2058487,1.468502,1.2492294,1.6128273c1.4401474,0.1987457,1.0064621,1.189312,0.2215652,1.2137604
		c0,0.0015793-4.8814392,0.0055237-4.8814392,0.0055237c-0.9813232-0.0354919-0.9750366-1.0702248,0.219986-1.2484665
		c0.0023575,0,1.1698837-0.0481071,1.1565247-1.4874306v-7.1240463c-0.0644226-1.1979904-0.6819687-0.9929352-1.6554337-1.2737045
		c-0.604187-0.1719284-0.5892563-1.1309509,0.3449173-1.1530304c0.9868164-0.0512619,1.6570053-0.0331268,2.3554764-0.0323334
		c0.7778244,0.0149841,1.9060593-0.06073,2.1724091,0.2523727l5.6859665,7.3440857
		C13.5438766,21.0498199,13.6688004,21.2919426,13.6256027,20.9614868"/>
	<path display="inline" fill-rule="evenodd" clip-rule="evenodd" d="M50.3416977,15.7289047
		c-0.4329224-0.0212936-1.1046753,0-2.0820618,0.0213013c-2.5385437,0.1750793-0.7157593,1.174324-2.4733276,1.5702362
		c-2.128418,0.2815552-1.8447876-0.8525543-1.9084167-1.4188156c0.0196381-1.0473557,0.0864258-1.4377441,0.6709595-1.8707199
		c0.8273315-0.6530228,2.6037598-0.7421417,4.5357513-0.7421417h3.1238708
		c0.6309052,0.0244522,1.3882904,0.1727219,1.5627136,0.8533401c0.1107788,0.6277847,0.1107788,1.1483002-0.1508484,1.6530495
		c-1.734787,3.854229-2.6901703,6.0301666-3.9959717,9.1020317c-0.1924896,0.5236778-0.2812805,0.8501854-0.9090424,0.8706932
		h-2.3004761c-0.6937561,0-0.3889008-0.6506538-0.2168427-1.0434113
		C47.8487167,21.1975403,49.0846024,18.4513931,50.3416977,15.7289047"/>
</g>
<g>
	<path fill="#21409A" d="M29.7052078,16.0500526c0.0109863-1.4803305-0.3127136-1.6554098-1.0756073-2.0986471
		c-1.3207245-0.5473328-2.5338287-0.6317215-5.443985-0.597023c-2.5770416,0.0701981-3.6974182,0.9329987-4.5978088,2.5805283
		c-0.8980408,1.8478498-1.0787506,5.6239996-0.3095551,7.5183821c0.2569122,0.5126343,0.285202,1.5789146,2.6202393,2.2587509
		c1.7292938,0.3817139,5.4353485,0.376194,7.4608307-0.3675232c-0.0007782,0.0015793,1.3718109-0.4787216,1.3718109-2.0016403
		c0.0086365-0.3588448-0.630127-0.9684868-2.0467072,0.0212936c-1.2240906,0.9464035-3.8356934,1.0725899-4.9293671,0.5978088
		c-0.6151886-0.2626228-0.9200287-0.6956062-1.1777344-1.6191368c-0.1343536-0.4424438-0.5868988-5.109787,0.3802643-6.4552565
		c0.6073303-1.100193,2.6556091-1.1380501,3.6408539-0.9053917c0.9915314,0.3738327,0.8752441,0.7476578,1.263382,2.3596983
		c0.3606262,0.686142,0.8933105,0.6711578,1.6734924,0.65065C29.797905,17.9255104,29.7052078,17.0256386,29.7052078,16.0500526"/>
	<path fill-rule="evenodd" clip-rule="evenodd" fill="#21409A" d="M33.0551224,18.5616493h1.179306
		c0.8139648,0.0086784,1.0119476,0.8083878,0.9915314,1.3076172c-0.0110016,0.2507935-0.2435608,1.0686455-0.9915314,1.0686455
		l-2.2132721-0.0110397c-0.7353973-0.0134087-1.1219482-0.3698883-1.1345215-1.0576057
		c-0.0164948-0.8754234,0.3991241-1.2476768,1.1376648-1.3076172H33.0551224z"/>
	<path fill-rule="evenodd" clip-rule="evenodd" fill="#21409A" d="M36.4211349,14.5127764
		c1.481781-0.5102615,2.1857605-0.7823563,3.0900726-0.9085464c0.6089172-0.0134048,1.4598083-0.0370636,1.9194336-0.0212936
		c0.2011261,0,0.2026978,0.1490631,0.1948395,0.2902298c-0.0172882,0.4392929,0,1.0039825,0,1.9653664v7.3819418
		c-0.0102081,0.9740067,0.2451324,1.3533554,1.1628113,1.3667641h0.1547852
		c0.8233948,0.0102539,0.8139648,1.1388397,0.0919189,1.1467247c-0.7495422,0-2.0089874-0.007885-3.2982941-0.007885h-2.7726746
		c-0.7471771,0.0236588-0.894104-1.0781136,0.0345764-1.1546135h0.285202
		c0.5837555-0.0938492,0.8673859-0.1285515,0.9019623-1.3509903l0.033783-6.4481583
		c-0.0220032-0.5008049,0.1807098-1.0583906-0.8587494-0.9377241C35.8310776,16.1587296,35.5623703,14.855855,36.4211349,14.5127764
		"/>
	<path fill-rule="evenodd" clip-rule="evenodd" fill="#21409A" d="M13.6256027,21.01157
		c0.0007782,0,0.0070648-4.7556725,0.0070648-4.7556725c-0.0220032-1.4266996-0.7456207-1.3431044-1.1706696-1.491374
		c-1.2610168-0.2082062-1.0300293-1.1987762-0.1901398-1.2287445c0.5044098,0.0102539,4.1374054-0.0173492,4.624527,0
		c0.8398895,0.0299683,1.1384583,0.7839355,0.0479279,1.1893158c-0.2411957,0.1096191-1.2413788,0.1041031-1.2649384,1.5308027
		l0.0361328,8.3709335c0,0,0.098999,1.1956253-0.7173309,1.1956253c-0.0062866,0-1.5446472,0-1.5446472-0.0039444
		c-0.4486237,0.0236588-0.7047577-0.1537895-0.981308-0.4566422c0,0-5.7362671-7.6059227-5.7354813-7.6059227
		c-0.047142-0.1041069-0.1123505-0.1317101-0.0754242,0.0086746L6.674675,22.990345
		c-0.0408554,1.2366333,0.2058487,1.468502,1.2492294,1.6128273c1.4401474,0.1987457,1.0064621,1.189312,0.2215652,1.2137604
		c0,0.0015793-4.8814392,0.0055237-4.8814392,0.0055237c-0.9813232-0.0354919-0.9750366-1.0702248,0.219986-1.2484665
		c0.0023575,0,1.1698837-0.0481071,1.1565247-1.4874306v-7.1240454c-0.0644226-1.1979904-0.6819687-0.9929352-1.6554337-1.2737045
		c-0.604187-0.1719284-0.5892563-1.1309509,0.3449173-1.1530304c0.9868164-0.0512619,1.6570053-0.0331268,2.3554764-0.0323334
		c0.7778244,0.0149841,1.9060593-0.06073,2.1724091,0.2523727l5.6859665,7.3440847
		C13.5438766,21.0999031,13.6688004,21.3420258,13.6256027,21.01157"/>
	<path fill-rule="evenodd" clip-rule="evenodd" fill="#21409A" d="M50.3416977,15.7789888
		c-0.4329224-0.0212936-1.1046753,0-2.0820618,0.0213013c-2.5385437,0.1750793-0.7157593,1.1743231-2.4733276,1.5702353
		c-2.128418,0.2815552-1.8447876-0.8525543-1.9084167-1.4188147c0.0196381-1.0473557,0.0864258-1.4377441,0.6709595-1.8707199
		c0.8273315-0.6530228,2.6037598-0.7421417,4.5357513-0.7421417h3.1238708
		c0.6309052,0.0244522,1.3882904,0.1727219,1.5627136,0.8533401c0.1107788,0.6277847,0.1107788,1.1483002-0.1508484,1.6530495
		c-1.734787,3.854228-2.6901703,6.0301657-3.9959717,9.1020308c-0.1924896,0.5236778-0.2812805,0.8501854-0.9090424,0.8706932
		h-2.3004761c-0.6937561,0-0.3889008-0.6506538-0.2168427-1.0434113
		C47.8487167,21.2476234,49.0846024,18.5014763,50.3416977,15.7789888"/>
</g>
<g>
</g>
<g>
</g>
<g>
</g>
<g>
</g>
<g>
</g>
<g>
</g>
</svg>
