<?xml version="1.0" encoding="utf-8"?>
<!-- Generator: Adobe Illustrator 24.1.0, SVG Export Plug-In . SVG Version: 6.00 Build 0)  -->
<svg version="1.1" id="Layer_1" xmlns="http://www.w3.org/2000/svg" xmlns:xlink="http://www.w3.org/1999/xlink" x="0px" y="0px"
	 viewBox="0 0 116.2641602 40.8917084" enable-background="new 0 0 116.2641602 40.8917084" xml:space="preserve">
<rect fill="#FFFFFF" width="110.5202789" height="40.8917084"/>
<path d="M113.8348236,35.4580994c1.352951,0,2.4293365,1.1009827,2.4293365,2.4811554
	c0,1.4014587-1.0763855,2.492981-2.4387665,2.492981c-1.3521576,0-2.4536743-1.0915222-2.4536743-2.492981
	c0-1.3801727,1.1015167-2.4811554,2.4536743-2.4811554H113.8348236z M113.8253937,35.8414001
	c-1.0913086,0-1.9799194,0.9377289-1.9799194,2.0978546c0,1.1806335,0.8886108,2.108902,1.9893494,2.108902
	c1.101532,0.0102539,1.9799194-0.9282684,1.9799194-2.0978546c0-1.1711731-0.8783875-2.108902-1.9799194-2.108902H113.8253937z
	 M113.3610687,39.3856812h-0.4384155v-2.7705994c0.2294159-0.0346985,0.4501953-0.0662537,0.7809601-0.0662537
	c0.4172058,0,0.6921844,0.0867615,0.8579712,0.2089996c0.1626282,0.119873,0.2529907,0.31073,0.2529907,0.5757294
	c0,0.3619995-0.2435608,0.5844116-0.5397644,0.6719513v0.0220795c0.2419891,0.0425873,0.4077606,0.2649841,0.4635468,0.6719513
	c0.0644226,0.4321899,0.128067,0.5962219,0.1744232,0.686142h-0.4611969
	c-0.0675659-0.08992-0.1335602-0.3438721-0.1893463-0.7050781c-0.0644226-0.3541107-0.2396393-0.4858246-0.5931854-0.4858246
	h-0.3079834V39.3856812z M113.3610687,37.8501282h0.318985c0.3629761,0,0.6725311-0.1309052,0.6725311-0.4747772
	c0-0.2429047-0.1775513-0.4850311-0.6725311-0.4850311c-0.1414337,0-0.2404175,0.012619-0.318985,0.0228729V37.8501282z"/>
<path d="M0,40.8917084h110.5202789V0H0V40.8917084z M0.8948898,10.7093353h51.0056686v21.3642578H0.8948898V10.7093353z
	 M97.1354065,39.9342651H0.8948898v-6.9978638h96.2405167V39.9342651z M109.5648956,39.9342651H98.0216522v-6.9978638h11.5432434
	V39.9342651z M109.5648956,32.0570374H52.8465271V0.9953003h56.7183685V32.0570374z M5.5131226,5.0033264H4.8225098V1.8423462
	h1.1133118c0.2883453,0,0.5515518,0,0.7974701,0.180603C6.983139,2.2106323,7.117485,2.4835205,7.117485,2.811615
	c0,0.2981262-0.0989914,0.6033325-0.318985,0.802063C6.5447235,3.8400269,6.2720947,3.8337402,5.9578247,3.8337402H5.5131226
	V5.0033264z M5.9004669,3.2595825c0.1642075,0,0.3032761,0,0.422699-0.1403809
	C6.3883743,3.0411072,6.419014,2.9393616,6.419014,2.8392029c0-0.1238098-0.0479279-0.2531433-0.1422043-0.3327942
	c-0.108429-0.085968-0.2514191-0.085968-0.3802719-0.085968H5.5131226v0.8391418H5.9004669z M9.8013763,5.0033264H9.054184
	L8.8734894,4.3550415H7.9165268L7.7295303,5.0033264H7.1222l0.9475327-3.1609802h0.8037567L9.8013763,5.0033264z
	 M8.7132111,3.7737732L8.3981476,2.6633301l-0.31427,1.1104431H8.7132111z M10.9084015,5.0033264h-0.6906128V1.8423462h1.2460938
	c0.2631989,0,0.5311127,0.0039368,0.7589569,0.1632385c0.2419891,0.1679993,0.3763428,0.4779358,0.3763428,0.7855225
	c0,0.3604126-0.1924896,0.6916504-0.5130463,0.8178406l0.5476227,1.3943787h-0.7691803l-0.4525604-1.2460938h-0.5036163V5.0033264z
	 M10.9084015,3.2114563h0.3779144c0.1414185,0,0.2993469,0.0134277,0.4234772-0.0646667
	c0.1131439-0.0733337,0.1720581-0.2216187,0.1720581-0.3596191c0-0.1238403-0.0675659-0.2563171-0.1665497-0.3225708
	c-0.1170807-0.0765076-0.3158569-0.0599365-0.4470673-0.0599365h-0.3598328V3.2114563z M13.8224945,2.4551392v0.6419678h1.1219482
	V3.690979h-1.1219482v0.7026978h1.4236603v0.6096497h-2.1134949V1.8423462h2.1134949v0.612793H13.8224945z M17.9936829,5.0033264
	h-0.591629l-1.133728-2.1223145h-0.0172882v2.1223145h-0.5342712V1.8423462h0.7463989l0.9876099,1.8572998H17.45784V1.8423462
	h0.5358429V5.0033264z M20.6154938,2.4685364h-0.7424622v2.53479h-0.6890411v-2.53479h-0.7511139V1.8423462h2.1826172V2.4685364z
	 M22.5529938,2.7469482c-0.0879974-0.2673645-0.2467041-0.3746338-0.5099182-0.3746338
	c-0.1869812,0-0.4109039,0.0512695-0.4109039,0.2949829c0,0.2310791,0.2616272,0.2854919,0.4289856,0.3178101
	c0.2404175,0.0559998,0.563324,0.1206665,0.7723236,0.266571c0.2404175,0.171936,0.3865509,0.4345703,0.3865509,0.7484436
	c0,0.3091736-0.1390686,0.604126-0.3661194,0.7926331c-0.2388611,0.1995239-0.5601959,0.2578735-0.8595428,0.2578735
	c-0.5546875,0-1.0590973-0.2578735-1.1942444-0.8777771l0.6395569-0.1561584
	c0.087204,0.3344116,0.3103333,0.4495544,0.6167603,0.4495544c0.1987762,0,0.4611969-0.0796509,0.4611969-0.3422852
	c0-0.2618408-0.3362732-0.3139038-0.5185547-0.3549194c-0.5256195-0.1143494-1.0426025-0.2815552-1.0426025-0.9716187
	c0-0.2949829,0.1068573-0.5528564,0.3197784-0.742157c0.2144928-0.1924133,0.4698334-0.258667,0.741684-0.258667
	c0.5161896,0,0.9380951,0.1940002,1.1211548,0.7421265L22.5529938,2.7469482z M26.5976715,2.7469482
	c-0.087204-0.2673645-0.2467041-0.3746338-0.5091095-0.3746338c-0.1869965,0-0.4093475,0.0512695-0.4093475,0.2949829
	c0,0.2310791,0.2584839,0.2854919,0.4250488,0.3178101c0.2420044,0.0559998,0.5657043,0.1206665,0.7731171,0.266571
	c0.2412109,0.171936,0.388916,0.4345703,0.388916,0.7484436c0,0.3091736-0.1390686,0.604126-0.3677063,0.7926331
	c-0.2364807,0.1995239-0.5609741,0.2578735-0.8587494,0.2578735c-0.5562592,0-1.0622406-0.2578735-1.1934509-0.8777771
	l0.6371918-0.1561584c0.0864258,0.3344116,0.3126984,0.4495544,0.6167603,0.4495544
	c0.1995697,0,0.4627686-0.0796509,0.4627686-0.3422852c0-0.2618408-0.3394165-0.3139038-0.5185547-0.3549194
	c-0.524826-0.1143494-1.0441742-0.2815552-1.0441742-0.9716187c0-0.2949829,0.1076508-0.5528564,0.3197784-0.742157
	c0.2160645-0.1924133,0.4706268-0.258667,0.7408905-0.258667c0.5185547,0,0.9412537,0.1940002,1.12117,0.7421265
	L26.5976715,2.7469482z M29.7404022,2.4685364h-0.7424622v2.53479h-0.6890411v-2.53479h-0.7503357V1.8423462h2.181839V2.4685364z
	 M30.8835754,5.0033264h-0.6906128V1.8423462h1.2453003c0.2639923,0,0.5326996,0.0039368,0.7605438,0.1632385
	c0.2411957,0.1679993,0.3755493,0.4779358,0.3755493,0.7855225c0,0.3604126-0.1940613,0.6916504-0.5130463,0.8178406
	l0.5468292,1.3943787h-0.7668152l-0.4525604-1.2460938h-0.505188V5.0033264z M30.8835754,3.2114563h0.3786926
	c0.1429901,0,0.2977753,0.0134277,0.4242706-0.0646667c0.1115723-0.0733337,0.1720581-0.2216187,0.1720581-0.3596191
	c0-0.1238403-0.0707092-0.2563171-0.1681366-0.3225708c-0.1170654-0.0765076-0.3150482-0.0599365-0.4439087-0.0599365h-0.3629761
	V3.2114563z M33.2523956,4.5545654c-0.2176208-0.327301-0.3119049-0.7373962-0.3119049-1.1356812
	c0-0.8391418,0.3928375-1.6222839,1.2673035-1.6222839c0.3944092,0,0.703186,0.1372375,0.9412384,0.4850159
	c0.2105713,0.3083801,0.3190002,0.7547607,0.3190002,1.1372681c0,0.3596497-0.0895691,0.7973328-0.2797089,1.0986328
	c-0.2294159,0.3588257-0.5782623,0.5331116-0.9805298,0.5331116C33.8078766,5.0506287,33.4841766,4.9031677,33.2523956,4.5545654
	 M33.7599487,2.7587585C33.690033,2.9480591,33.664093,3.2201538,33.664093,3.4188843
	c0,0.3982849,0.0565796,1.0284424,0.5437012,1.0284424c0.2380524,0,0.3669128-0.1246338,0.4439087-0.3596497
	c0.069931-0.1947937,0.0927124-0.4542847,0.0927124-0.6640625c0-0.2302856-0.0227814-0.5023804-0.108429-0.7137451
	c-0.0879974-0.2129517-0.2129211-0.3075867-0.4281921-0.3075867C33.9720917,2.4022827,33.842453,2.5308533,33.7599487,2.7587585
	 M38.2713318,5.0033264h-0.5900421L36.5451965,2.881012h-0.0172882v2.1223145h-0.5350494V1.8423462h0.7463989l0.9883881,1.8572998
	h0.0086365V1.8423462h0.5350494V5.0033264z M40.0131989,3.9046936V3.3124084h1.2170105v1.690918h-0.3150482l-0.0997925-0.3619995
	c-0.219986,0.2854919-0.4619751,0.4093018-0.8068848,0.4093018c-0.8666077,0-1.2240906-0.768158-1.2240906-1.5986023
	c0-0.8580933,0.3904724-1.655426,1.2845917-1.655426c0.6371765,0,1.0708771,0.414032,1.1612244,1.0844116l-0.6568298,0.0938416
	c-0.0298462-0.3170471-0.1885529-0.5828247-0.5232544-0.5828247c-0.4871216,0-0.5594025,0.6774902-0.5594025,1.0678711
	c0,0.4124756,0.1084137,0.9905701,0.5908203,0.9905701c0.3032837,0,0.5083466-0.2232056,0.4918365-0.5457764H40.0131989z
	 M43.7137604,4.3778992v0.6254272H41.83284V1.8423462h0.6898193v2.535553H43.7137604z M45.0753479,3.6720581v1.3312683H44.387085
	V3.6720581l-0.9373169-1.8297119h0.8021851l0.5696106,1.2034912l0.5601959-1.2034912h0.6214752L45.0753479,3.6720581z
	 M16.0279083,7.4718475c-0.004715-0.3509521-0.1170807-0.6798248-0.4965515-0.6798248
	c-0.4863434,0-0.5358429,0.6814117-0.5358429,1.0662689c0,0.4337769,0.0494995,0.9905701,0.5704041,0.9905701
	c0.3229218,0,0.4745483-0.2894287,0.5122681-0.5938568l0.6733246,0.0457306
	c-0.0722809,0.723999-0.5389709,1.1530457-1.2201538,1.1530457c-0.881546,0-1.3073883-0.7642212-1.3073883-1.6278229
	c0-0.875412,0.4399872-1.6270142,1.3293762-1.6270142c0.741684,0,1.1195984,0.4613647,1.1981659,1.2208557L16.0279083,7.4718475z
	 M19.7237549,9.4072418h-0.7456207l-0.1822815-0.65065h-0.956955l-0.186203,0.65065h-0.6065521l0.9475403-3.1641388h0.8021698
	L19.7237549,9.4072418z M18.6363678,8.1761322l-0.3150635-1.1104431l-0.31427,1.1104431H18.6363678z M22.4477081,8.1564178
	c0,0.3470154,0.0054932,0.707428-0.2404175,0.965332c-0.2380676,0.2531586-0.5876923,0.3320313-0.910614,0.3320313
	c-0.3103333,0-0.6686096-0.0512695-0.9058838-0.2713013c-0.2938385-0.2736664-0.3072052-0.6364594-0.3072052-1.026062V6.243103
	h0.7503357v1.9133148c0,0.1474762-0.0023651,0.3588409,0.0659943,0.4897614
	c0.0903473,0.1671906,0.2765503,0.2121582,0.4439087,0.2121582c0.1374969,0,0.3401947-0.0449677,0.4281921-0.1687775
	c0.0950623-0.1435394,0.079361-0.3659515,0.079361-0.5331421V6.243103h0.5963287V8.1564178z M25.0263214,6.8716736h-0.7409058
	v2.5355682h-0.6906128V6.8716736h-0.7503204V6.243103h2.181839V6.8716736z M26.1694794,9.4072418h-0.6890411V6.2454834h0.6890411
	V9.4072418z M27.0274506,8.9569092c-0.2144928-0.3304443-0.3103485-0.7397614-0.3103485-1.1348877
	c0-0.8391418,0.3920593-1.6230774,1.2680969-1.6230774c0.3928375,0,0.7047424,0.1387939,0.9396667,0.4850464
	c0.2121429,0.306778,0.318985,0.7555237,0.318985,1.138031c0,0.3580475-0.0895691,0.7965546-0.2781219,1.095459
	C28.7370911,9.27948,28.386673,9.4537811,27.985199,9.4537811C27.5852814,9.4537811,27.2623596,9.304718,27.0274506,8.9569092
	 M27.5357819,7.161911c-0.0675659,0.1900635-0.0934906,0.4613647-0.0934906,0.6601105
	c0,0.3951263,0.0557709,1.0268402,0.5429077,1.0268402c0.2380524,0,0.367691-0.1230316,0.4446869-0.3596344
	c0.0691376-0.193222,0.0903625-0.4558411,0.0903625-0.663269c0-0.2302856-0.021225-0.5015869-0.1076508-0.7137451
	c-0.087204-0.2113647-0.2097778-0.3083496-0.4273987-0.3083496C27.748703,6.8038635,27.6198425,6.933197,27.5357819,7.161911
	 M32.0471649,9.4072418H31.457901l-1.1352997-2.1230927h-0.0180817v2.1230927h-0.534256V6.243103h0.7463989l0.9875946,1.858902
	h0.0086517V6.243103h0.534256V9.4072418z M33.3883209,6.8582764v0.6411743h1.1227417v0.5946655h-1.1227417v0.6995392h1.4236603
	v0.6135864h-2.1134796V6.243103h2.1134796v0.6151733H33.3883209z M36.1319275,6.243103
	c0.4266205,0,0.7935333,0.0299683,1.1172333,0.3564758c0.3182068,0.3225708,0.4572754,0.7610626,0.4572754,1.2153473
	c0,0.4258728-0.1202087,0.8351898-0.384201,1.1538239c-0.2930603,0.3462219-0.6552582,0.4384918-1.0740204,0.4384918h-0.9742584
	V6.243103H36.1319275z M35.9630127,8.8133698h0.2325592c0.2891235,0,0.4745483-0.0623016,0.6356049-0.3383331
	c0.115509-0.203476,0.1634216-0.4487457,0.1634216-0.6806183c0-0.2492218-0.0691376-0.5173645-0.2121277-0.7161102
	c-0.1587067-0.2200317-0.3362732-0.2523804-0.5814056-0.2523804h-0.2380524V8.8133698z"/>
<g>
	<path d="M103.7470703,34.3762054c-2.773468,0-5.0197296,1.018158-5.0197296,2.2689972
		c0,1.2516174,2.2462616,2.2682037,5.0197296,2.2682037c2.7718811,0,5.0197144-1.0165863,5.0197144-2.2682037
		C108.7667847,35.3943634,106.5189514,34.3762054,103.7470703,34.3762054 M108.4116516,36.484314h-0.9216003
		c-0.0620728-0.5402374-0.4384155-1.026062-1.0182343-1.3991089
		C107.5552673,35.4125061,108.2930145,35.9235687,108.4116516,36.484314 M107.1498566,36.484314h-1.1518097
		c-0.045578-0.638031-0.3496246-1.2027283-0.8123932-1.5868073C106.2706757,35.181427,107.0461426,35.7800293,107.1498566,36.484314
		 M103.7470703,38.5742798c-1.0622406,0-1.9241333-0.8635864-1.9241333-1.9290771s0.8618927-1.9314575,1.9241333-1.9314575
		s1.9233398,0.8659668,1.9233398,1.9314575S104.8093109,38.5742798,103.7470703,38.5742798 M101.4953003,36.484314h-1.1518097
		c0.1021423-0.7042847,0.8783875-1.302887,1.9626312-1.5868073C101.8449249,35.2815857,101.5385132,35.846283,101.4953003,36.484314
		 M101.0223236,35.0852051c-0.5814056,0.3730469-0.9585419,0.8588715-1.0198212,1.3991089h-0.9216003
		C99.2011108,35.9235687,99.9372864,35.4125061,101.0223236,35.0852051 M99.0856171,36.8226471h0.9200287
		c0.0683594,0.5339355,0.4407654,1.0142365,1.0166779,1.3841248C99.9498596,37.8818359,99.2152557,37.3802338,99.0856171,36.8226471
		 M100.3450623,36.8226471h1.1518097c0.0471344,0.6325226,0.3504181,1.1893158,0.8092499,1.569458
		C101.231308,38.1081848,100.4582062,37.5206299,100.3450623,36.8226471 M105.9980469,36.8226471h1.1510162
		c-0.1154938,0.6979828-0.8878174,1.2855377-1.9634094,1.569458
		C105.6444855,38.0119629,105.9485474,37.4551697,105.9980469,36.8226471 M106.471817,38.2043915
		c0.5743256-0.3675079,0.947525-0.8478088,1.0182343-1.3817444h0.918457
		C108.2780914,37.3802338,107.5434723,37.8818359,106.471817,38.2043915"/>
	<path d="M103.4741364,36.6455841c0-0.1474762,0.116272-0.2657776,0.2639771-0.2657776
		c0.1453552,0,0.2639923,0.1183014,0.2639923,0.2657776c0,0.1459045-0.1186371,0.2673645-0.2639923,0.2673645
		C103.5904083,36.9129486,103.4741364,36.7914886,103.4741364,36.6455841"/>
	<path d="M103.7472382,35.4779663l0.3535461-0.3517456c-0.2176361-0.2184601-0.4910431-0.2184601-0.707901,0L103.7472382,35.4779663
		z"/>
	<path d="M104.0296021,35.8946228c0-0.2713013,0.219986-0.4929047,0.4918365-0.4929047
		c0.2718353,0,0.4918365,0.2216034,0.4918365,0.4929047c0,0.2736816-0.2200012,0.4937134-0.4918365,0.4937134
		C104.249588,36.3883362,104.0296021,36.1683044,104.0296021,35.8946228"/>
	<path d="M102.4766998,35.8946228c0-0.2713013,0.219986-0.4929047,0.4902649-0.4929047
		c0.273407,0,0.4926147,0.2216034,0.4926147,0.4929047c0,0.2736816-0.2192078,0.4937134-0.4926147,0.4937134
		C102.6966858,36.3883362,102.4766998,36.1683044,102.4766998,35.8946228"/>
	<path d="M102.503418,37.4226685c0-0.2720795,0.2191925-0.4936981,0.4918365-0.4936981
		c0.2718353,0,0.4910431,0.2216187,0.4910431,0.4936981c0,0.2728882-0.2192078,0.4929199-0.4910431,0.4929199
		C102.7226105,37.9155884,102.503418,37.6955566,102.503418,37.4226685"/>
	<path d="M103.9874115,37.4142303c0-0.2736664,0.2207642-0.4960632,0.4926147-0.4960632
		c0.2726288,0,0.4918365,0.2223969,0.4918365,0.4960632c0,0.2713165-0.2192078,0.4937134-0.4918365,0.4937134
		C104.2081757,37.9079437,103.9874115,37.6855469,103.9874115,37.4142303"/>
	<path d="M103.7379608,37.7961731l-0.3551331,0.3549042c0.2168427,0.220047,0.4902649,0.220047,0.7102509,0L103.7379608,37.7961731z
		"/>
	<path d="M104.8735809,36.6470795l0.3511963,0.3556976c0.2192078-0.2192535,0.2192078-0.4929199,0-0.7105865L104.8735809,36.6470795
		z"/>
	<path d="M102.583252,36.6470795l-0.3504181,0.3556976c-0.2200012-0.2192535-0.2200012-0.4929199,0-0.7105865L102.583252,36.6470795
		z"/>
</g>
<g>
	<path d="M3.5160751,35.5325317c-0.0330048-0.12854-0.1115723-0.4558411-0.3857727-0.4558411
		c-0.2003479,0-0.285202,0.1884918-0.285202,0.335968c0,0.2515869,0.1791306,0.3391266,0.4690475,0.4889832
		c0.3095627,0.1577301,0.7558289,0.3817139,0.7558289,1.1230621c0,0.6269836-0.3292007,1.1696014-0.9718857,1.1696014
		c-0.1964264,0-0.4918365-0.0496979-0.7134018-0.3848724c-0.1508484-0.2350311-0.2011337-0.4597931-0.2325592-0.6175385
		l0.5248337-0.1987457c0.0314255,0.1648407,0.1092072,0.5489197,0.4376221,0.5489197
		c0.204277,0,0.3488464-0.1529999,0.3488464-0.3951263c0-0.2578888-0.1712799-0.3635712-0.3787003-0.4621582
		c-0.3716278-0.1813965-0.8226089-0.3943329-0.8226089-1.1396332c0-0.5725708,0.2734146-1.1191101,0.8728943-1.1191101
		c0.680397,0,0.8241806,0.6072693,0.8815308,0.8493958L3.5160751,35.5325317z"/>
	<path d="M5.9584427,36.7832947c0,0.8683167-0.2325592,1.4109192-0.824173,1.4109192
		c-0.5806198,0-0.8194733-0.5362854-0.8194733-1.4109192c0-0.8438873,0.2207794-1.410141,0.8233948-1.410141
		C5.7368851,35.3731537,5.9584427,35.9394073,5.9584427,36.7832947 M5.1342697,35.9015503
		c-0.179924,0-0.236496,0.2168884-0.236496,0.8817444c0,0.7184753,0.0722809,0.8840942,0.2404175,0.8840942
		c0.1634216,0,0.2388535-0.159317,0.2388535-0.8840942c0-0.6963959-0.0660019-0.8817444-0.2388535-0.8817444H5.1342697z"/>
	<path d="M6.3065033,35.43396h0.5342636v0.3675232c0.0565643-0.1537933,0.1587067-0.4282379,0.4918365-0.4282379
		c0.3417664,0,0.4006958,0.2697144,0.4336929,0.4282379c0.0597153-0.1798096,0.1681366-0.4282379,0.4957657-0.4282379
		c0.5154037,0,0.5154037,0.5071106,0.5154037,0.9945068v1.7721405H8.2172775v-1.6956329c0-0.3075867,0-0.4834595-0.179924-0.4834595
		c-0.2066345,0-0.2129135,0.2137299-0.2129135,0.604126v1.5749664H7.2618866v-1.7106171
		c0-0.3312531-0.0086441-0.46138-0.1759872-0.46138c-0.2003555,0-0.2176361,0.2176666-0.2176361,0.5970306v1.5749664H6.3065033
		V35.43396z"/>
	<path d="M9.6793365,36.9129639c-0.0046997,0.3659363-0.007843,0.7626343,0.2710724,0.7626343
		c0.2427673,0,0.2718353-0.2933807,0.2859802-0.4684601l0.5052032,0.0441589
		c-0.040863,0.2523804-0.1524353,0.9432526-0.8037567,0.9432526c-0.6183319,0-0.8391113-0.6538086-0.8391113-1.3715057
		c0-0.1758728,0.0157166-0.6025391,0.1508484-0.9322052c0.1445618-0.3462219,0.4101257-0.5173645,0.6843262-0.5173645
		c0.3519897,0,0.5696259,0.2642059,0.6591949,0.4960785c0.1445618,0.3651428,0.1484985,0.7105865,0.1484985,1.0434113H9.6793365z
		 M10.2096863,36.4783936c0.0023499-0.1498413,0.012558-0.6056976-0.2632141-0.6056976
		c-0.2545624,0-0.2577057,0.4109039-0.2631989,0.6056976H10.2096863z"/>
	<polygon points="13.0777435,34.4790344 13.463501,36.7385864 13.897995,34.4790344 14.7496643,34.4790344 14.7496643,38.1400452 
		14.1878967,38.1400452 14.1878967,35.0729065 13.6308594,38.1400452 13.1932373,38.1400452 12.6841125,35.0729065 
		12.6841125,38.1400452 12.1977692,38.1400452 12.1977692,34.4790344 	"/>
	<path d="M15.2378845,36.2204132c0.0180817-0.1545715,0.0494995-0.4795074,0.3362732-0.6995392
		c0.1429901-0.1080475,0.3119202-0.1474915,0.4800568-0.1474915c0.2129211,0,0.4329071,0.073349,0.5853271,0.2870789
		c0.1225739,0.1640472,0.1312103,0.4716187,0.1312103,0.8005066v1.0741577c0,0.4629517,0.011795,0.5110626,0.0322113,0.6049194
		h-0.5185394c-0.0267181-0.1080475-0.0306549-0.1711426-0.0306549-0.4164276
		c-0.0730591,0.1750946-0.2050629,0.4708405-0.5554657,0.4708405c-0.2718506,0-0.5295563-0.2082062-0.5295563-0.7397766
		c0-0.7523804,0.4368439-0.9511261,1.038681-0.9937134v-0.1041107c0-0.2381744,0-0.4834595-0.1995697-0.4834595
		c-0.1877747,0-0.2247009,0.203476-0.2419891,0.4187927L15.2378845,36.2204132z M16.207428,36.8458252
		c-0.3213501,0.0528412-0.4557037,0.1553802-0.4557037,0.5102692c0,0.1900787,0.0526428,0.3391418,0.1877747,0.3391418
		c0.0683594,0,0.1312103-0.0441742,0.1846466-0.1490631c0.0769958-0.1522217,0.0832825-0.3225708,0.0832825-0.5702057V36.8458252z"
		/>
	<path d="M17.8370056,34.5791168v0.8549194h0.372406v0.5930786h-0.372406v0.9945221c0,0.5079041,0,0.5733643,0.401474,0.5418091
		v0.5765228c-0.0817108,0.021286-0.1956329,0.0544128-0.3496246,0.0544128c-0.1838531,0-0.3881226-0.06073-0.5028381-0.2791901
		c-0.098999-0.1916351-0.098999-0.4668884-0.098999-0.8115387v-1.0765381h-0.2207794v-0.5930786h0.2498474l0.045578-0.7949677
		L17.8370056,34.5791168z"/>
	<path d="M18.9747467,36.9129639c-0.004715,0.3659363-0.0070648,0.7626343,0.2710571,0.7626343
		c0.2427826,0,0.2726288-0.2933807,0.2867737-0.4684601l0.5044098,0.0441589
		c-0.0400696,0.2523804-0.1516418,0.9432526-0.8029633,0.9432526c-0.6191254,0-0.8398895-0.6538086-0.8398895-1.3715057
		c0-0.1758728,0.0149231-0.6025391,0.1516266-0.9322052c0.1445618-0.3462219,0.4101257-0.5173645,0.6851196-0.5173645
		c0.3511963,0,0.5680389,0.2642059,0.6584015,0.4960785c0.1437836,0.3651428,0.1477051,0.7105865,0.1477051,1.0434113H18.9747467z
		 M19.5058746,36.4783936c0.0039215-0.1498413,0.012558-0.6056976-0.2632141-0.6056976
		c-0.2545624,0-0.2584839,0.4109039-0.2624207,0.6056976H19.5058746z"/>
	<path d="M20.8769684,35.43396v0.6530304c0.0494843-0.2303009,0.1477051-0.6924591,0.4768982-0.6924591
		c0.0400696,0,0.0691376,0.0070953,0.0974274,0.0181427v0.736618c-0.0479279-0.012619-0.074646-0.012619-0.0958557-0.012619
		c-0.4116974,0-0.4116974,0.625412-0.4116974,0.8344116v1.168808h-0.5625458V35.43396H20.8769684z"/>
	<path d="M21.6526642,34.4576416H22.22229v0.7475586h-0.5696259V34.4576416z M22.2183685,38.1398926h-0.562561V35.43396h0.562561
		V38.1398926z"/>
	<path d="M22.6526947,36.2204132c0.0157166-0.1545715,0.0487061-0.4795074,0.3354797-0.6995392
		c0.1429901-0.1080475,0.3126984-0.1474915,0.4800568-0.1474915c0.2129211,0,0.4329071,0.073349,0.5868988,0.2870789
		c0.1210022,0.1640472,0.1288605,0.4716187,0.1288605,0.8005066v1.0741577c0,0.4629517,0.0125732,0.5110626,0.0329895,0.6049194
		h-0.5201111c-0.0243683-0.1080475-0.0282898-0.1711426-0.0282898-0.4164276
		c-0.0738525,0.1750946-0.2042847,0.4708405-0.5562592,0.4708405c-0.2710571,0-0.5295563-0.2082062-0.5295563-0.7397766
		c0-0.7523804,0.4376221-0.9511261,1.0402527-0.9937134v-0.1041107c0-0.2381744,0-0.4834595-0.2011414-0.4834595
		c-0.1877747,0-0.2247009,0.203476-0.2404175,0.4187927L22.6526947,36.2204132z M23.6230164,36.8458252
		c-0.3221436,0.0528412-0.4580536,0.1553802-0.4580536,0.5102692c0,0.1900787,0.053421,0.3391418,0.1869812,0.3391418
		c0.069931,0,0.1320038-0.0441742,0.1862183-0.1490631c0.0769958-0.1522217,0.0848541-0.3225708,0.0848541-0.5702057V36.8458252z"/>
	<rect x="24.6194" y="34.4790039" width="0.5617676" height="3.6608887"/>
	<polygon points="27.6059418,34.4790344 27.990921,36.7385864 28.4261932,34.4790344 29.2794342,34.4790344 29.2794342,38.1400452 
		28.7168884,38.1400452 28.7168884,35.0729065 28.1598358,38.1400452 27.7206421,38.1400452 27.2146606,35.0729065 
		27.2146606,38.1400452 26.7259674,38.1400452 26.7259674,34.4790344 	"/>
	<path d="M29.7660217,36.2204132c0.0164948-0.1545715,0.0494995-0.4795074,0.3362732-0.6995392
		c0.1429901-0.1080475,0.3119049-0.1474915,0.4800415-0.1474915c0.2121429,0,0.4337006,0.073349,0.5869141,0.2870789
		c0.1209869,0.1640472,0.1296387,0.4716187,0.1296387,0.8005066v1.0741577c0,0.4629517,0.0125732,0.5110626,0.033783,0.6049194
		h-0.5209045c-0.0251465-0.1080475-0.0275116-0.1711426-0.0275116-0.4164276
		c-0.0754242,0.1750946-0.2050629,0.4708405-0.558609,0.4708405c-0.2702789,0-0.5279846-0.2082062-0.5279846-0.7397766
		c0-0.7523804,0.4352722-0.9511261,1.0402527-0.9937134v-0.1041107c0-0.2381744,0-0.4834595-0.2011414-0.4834595
		c-0.1885681,0-0.2254944,0.203476-0.2404175,0.4187927L29.7660217,36.2204132z M30.737915,36.8458252
		c-0.3237152,0.0528412-0.458847,0.1553802-0.458847,0.5102692c0,0.1900787,0.0526428,0.3391418,0.1893463,0.3391418
		c0.0683594,0,0.1296387-0.0441742,0.1838531-0.1490631c0.0777893-0.1522217,0.0856476-0.3225708,0.0856476-0.5702057V36.8458252z"
		/>
	<path d="M31.9310455,35.43396l0.2749786,1.6577911L32.469223,35.43396h0.4832001l-0.6073303,2.754837
		c-0.1139221,0.5110474-0.2050629,0.9116974-0.6521149,0.9116974c-0.1092072,0-0.1712799-0.0228729-0.2412109-0.0433807v-0.5922852
		c0.0526428,0.0102539,0.0950775,0.0149841,0.1595001,0.0149841c0.2207794,0,0.2671356-0.0662537,0.3362732-0.3896027
		l-0.5774841-2.65625H31.9310455z"/>
	<path d="M34.2269592,34.4788818h0.9302368c0.2694855,0,0.5759125,0,0.7440491,0.3123016
		c0.1029205,0.1877136,0.14534,0.4250946,0.14534,0.6553955c0,0.5851898-0.2639771,0.7176819-0.3904724,0.7815704
		c0.0895691,0.0457458,0.1767731,0.0835876,0.2749786,0.2263489c0.0982208,0.1443176,0.1885681,0.3635712,0.1885681,0.6695709
		c0,0.3202057-0.1029205,0.6853638-0.2993469,0.8446655c-0.2097778,0.1711426-0.417984,0.1711426-0.6631165,0.1711426h-0.9302368
		V34.4788818z M34.8052216,35.9576263h0.1916962c0.1642151,0,0.4384155,0,0.4384155-0.4582062
		c0-0.4266815-0.2742004-0.4266815-0.393631-0.4266815h-0.2364807V35.9576263z M34.8052216,37.5081482h0.2938385
		c0.2577057,0,0.4101257-0.1190796,0.4101257-0.4834442c0-0.4763641-0.2789154-0.4763641-0.4148407-0.4763641h-0.2891235V37.5081482
		z"/>
	<path d="M36.9933472,36.9129639c-0.0055084,0.3659363-0.0094299,0.7626343,0.2702789,0.7626343
		c0.2427673,0,0.2702637-0.2933807,0.2859802-0.4684601l0.5044098,0.0441589
		c-0.0408478,0.2523804-0.15242,0.9432526-0.8037567,0.9432526c-0.6159668,0-0.8398895-0.6538086-0.8398895-1.3715057
		c0-0.1758728,0.0164948-0.6025391,0.15242-0.9322052c0.1429901-0.3462219,0.4116974-0.5173645,0.6827545-0.5173645
		c0.3527832,0,0.5711975,0.2642059,0.6599731,0.4960785c0.144577,0.3651428,0.1484985,0.7105865,0.1484985,1.0434113H36.9933472z
		 M37.5213318,36.4783936c0.0039215-0.1498413,0.012558-0.6056976-0.2616425-0.6056976
		c-0.2553406,0-0.2577057,0.4109039-0.2616272,0.6056976H37.5213318z"/>
	<rect x="39.5096436" y="34.4790039" width="0.599472" height="3.6608887"/>
	<path d="M41.1236725,35.43396v0.3675232c0.0817108-0.224762,0.1877747-0.4282379,0.5036163-0.4282379
		c0.0785675,0,0.3079834,0,0.4462585,0.2870636c0.0840759,0.1687775,0.0840759,0.4329834,0.0840759,0.702713v1.7768707h-0.5625458
		v-1.7768707c0-0.2444916-0.0157166-0.4022217-0.1924896-0.4022217c-0.2498474,0-0.2498474,0.2649841-0.2498474,0.5922852v1.5868073
		h-0.5609894V35.43396H41.1236725z"/>
	<path d="M42.5664215,36.2204132c0.0157166-0.1545715,0.0479279-0.4795074,0.335495-0.6995392
		c0.1429901-0.1080475,0.3134766-0.1474915,0.480835-0.1474915c0.2113495,0,0.4337006,0.073349,0.5868988,0.2870789
		c0.1210022,0.1640472,0.1296387,0.4716187,0.1296387,0.8005066v1.0741577c0,0.4629517,0.011795,0.5110626,0.0322113,0.6049194
		h-0.5193329c-0.0251465-0.1080475-0.0298615-0.1711426-0.0298615-0.4164276
		c-0.0730591,0.1750946-0.2019196,0.4708405-0.5554657,0.4708405c-0.2718506,0-0.5287628-0.2082062-0.5287628-0.7397766
		c0-0.7523804,0.4384003-0.9511261,1.0378876-0.9937134v-0.1041107c0-0.2381744,0-0.4834595-0.1987915-0.4834595
		c-0.1885529,0-0.2254791,0.203476-0.2419891,0.4187927L42.5664215,36.2204132z M43.535965,36.8458252
		c-0.3205719,0.0528412-0.4564819,0.1553802-0.4564819,0.5102692c0,0.1900787,0.053421,0.3391418,0.1893463,0.3391418
		c0.0683441,0,0.1304169-0.0441742,0.1838531-0.1490631c0.0762024-0.1522217,0.0832825-0.3225708,0.0832825-0.5702057V36.8458252z"
		/>
	<path d="M45.0543518,35.4342804v0.4045868c0.0707245-0.171936,0.1799316-0.4440308,0.4549103-0.4440308
		c0.1351471,0,0.2875671,0.077301,0.3857727,0.2105865c0.1956329,0.2673492,0.260849,0.6916656,0.260849,1.1443481
		c0,0.3864594-0.0400696,1.4282837-0.6843262,1.4282837c-0.2215576,0-0.3229218-0.1459045-0.3849792-0.2366028v1.1159668h-0.5515594
		v-3.6231384H45.0543518z M45.0865784,37.0360565c0,0.3911896,0,0.6214752,0.2388458,0.6214752
		c0.2286224,0,0.2506256-0.3351746,0.2506256-0.9077606c0-0.4763489-0.0172882-0.8549042-0.2357025-0.8549042
		c-0.2537689,0-0.2537689,0.3848572-0.2537689,0.6269836V37.0360565z"/>
	<path d="M47.0254822,35.4342804v0.4045868c0.0715027-0.171936,0.1799164-0.4440308,0.4549103-0.4440308
		c0.1351318,0,0.2859802,0.077301,0.384201,0.2105865c0.1964111,0.2673492,0.2639771,0.6916656,0.2639771,1.1443481
		c0,0.3864594-0.0424194,1.4282837-0.6843262,1.4282837c-0.2215576,0-0.3244781-0.1459045-0.3857574-0.2366028v1.1159668h-0.5531311
		v-3.6231384H47.0254822z M47.0584869,37.0360565c0,0.3911896,0,0.6214752,0.2380524,0.6214752
		c0.2278442,0,0.2490692-0.3351746,0.2490692-0.9077606c0-0.4763489-0.0157166-0.8549042-0.2341461-0.8549042
		c-0.2529755,0-0.2529755,0.3848572-0.2529755,0.6269836V37.0360565z"/>
	<path d="M48.9727936,35.43396v0.6530304c0.0479126-0.2303009,0.1484833-0.6924591,0.47612-0.6924591
		c0.0392761,0,0.0691376,0.0070953,0.0974274,0.0181427v0.736618c-0.050293-0.012619-0.0730743-0.012619-0.0942841-0.012619
		c-0.4140625,0-0.4140625,0.625412-0.4140625,0.8344116v1.168808h-0.5625458V35.43396H48.9727936z"/>
	<path d="M51.303833,36.7832947c0,0.8683167-0.2325592,1.4109192-0.8226013,1.4109192
		c-0.5821991,0-0.8202667-0.5362854-0.8202667-1.4109192c0-0.8438873,0.2215729-1.410141,0.8241882-1.410141
		C51.0830536,35.3731537,51.303833,35.9394073,51.303833,36.7832947 M50.4812317,35.9015503
		c-0.1815033,0-0.2396393,0.2168884-0.2396393,0.8817444c0,0.7184753,0.0754242,0.8840942,0.2435608,0.8840942
		c0.1634216,0,0.2380676-0.159317,0.2380676-0.8840942c0-0.6963959-0.0652161-0.8817444-0.2380676-0.8817444H50.4812317z"/>
	<path d="M52.1746063,35.4342804v0.4045868c0.0707092-0.171936,0.1807098-0.4440308,0.4541168-0.4440308
		c0.1359253,0,0.2867737,0.077301,0.384201,0.2105865c0.197998,0.2673492,0.2639923,0.6916656,0.2639923,1.1443481
		c0,0.3864594-0.040863,1.4282837-0.6843262,1.4282837c-0.2223511,0-0.3244934-0.1459045-0.3849792-0.2366028v1.1159668h-0.5539093
		v-3.6231384H52.1746063z M52.2076111,37.0360565c0,0.3911896,0,0.6214752,0.2380524,0.6214752
		c0.2294159,0,0.2498474-0.3351746,0.2498474-0.9077606c0-0.4763489-0.0172882-0.8549042-0.2349243-0.8549042
		c-0.2529755,0-0.2529755,0.3848572-0.2529755,0.6269836V37.0360565z"/>
	<path d="M54.1219177,35.43396v0.6530304c0.0479126-0.2303009,0.1469116-0.6924591,0.4745483-0.6924591
		c0.0400696,0,0.0699158,0.0070953,0.0974274,0.0181427v0.736618c-0.0479279-0.012619-0.074646-0.012619-0.0927124-0.012619
		c-0.4140625,0-0.4140625,0.625412-0.4140625,0.8344116v1.168808h-0.5601807V35.43396H54.1219177z"/>
	<path d="M54.8956451,34.4576416h0.5696259v0.7475586h-0.5696259V34.4576416z M55.4613342,38.1398926h-0.5617523V35.43396h0.5617523
		V38.1398926z"/>
	<path d="M55.894577,36.2204132c0.0172882-0.1545715,0.0487061-0.4795074,0.3362732-0.6995392
		c0.1437683-0.1080475,0.3126984-0.1474915,0.480835-0.1474915c0.2113495,0,0.4329071,0.073349,0.5853271,0.2870789
		c0.1202087,0.1640472,0.1296387,0.4716187,0.1296387,0.8005066v1.0741577c0,0.4629517,0.0125732,0.5110626,0.0345764,0.6049194
		h-0.521698c-0.024353-0.1080475-0.0282898-0.1711426-0.0282898-0.4164276
		c-0.0730591,0.1750946-0.2034912,0.4708405-0.5562592,0.4708405c-0.2710571,0-0.5287628-0.2082062-0.5287628-0.7397766
		c0-0.7523804,0.4368439-0.9511261,1.0402527-0.9937134v-0.1041107c0-0.2381744,0-0.4834595-0.1995697-0.4834595
		c-0.1885681,0-0.2278442,0.203476-0.2419891,0.4187927L55.894577,36.2204132z M56.8664703,36.8458252
		c-0.3229218,0.0528412-0.458847,0.1553802-0.458847,0.5102692c0,0.1900787,0.053421,0.3391418,0.1901398,0.3391418
		c0.0691376,0,0.1288452-0.0441742,0.181488-0.1490631c0.0785675-0.1522217,0.0872192-0.3225708,0.0872192-0.5702057V36.8458252z"/>
	<path d="M58.4922791,34.5791168v0.8549194h0.3739777v0.5930786h-0.3739777v0.9945221c0,0.5079041,0,0.5733643,0.4030457,0.5418091
		v0.5765228c-0.0817108,0.021286-0.1964264,0.0544128-0.3496246,0.0544128c-0.1822815,0-0.388916-0.06073-0.5028381-0.2791901
		c-0.0974274-0.1916351-0.0974274-0.4668884-0.0974274-0.8115387v-1.0765381h-0.2223511v-0.5930786h0.2506409l0.0447845-0.7949677
		L58.4922791,34.5791168z"/>
	<path d="M59.6331635,36.9129639c-0.0039368,0.3659363-0.0078583,0.7626343,0.2702789,0.7626343
		c0.2419891,0,0.2710571-0.2933807,0.285202-0.4684601l0.505188,0.0441589
		c-0.0400696,0.2523804-0.15242,0.9432526-0.8029633,0.9432526c-0.6183319,0-0.8398895-0.6538086-0.8398895-1.3715057
		c0-0.1758728,0.0157013-0.6025391,0.15242-0.9322052c0.1437683-0.3462219,0.4109039-0.5173645,0.6835327-0.5173645
		c0.3535614,0,0.5704041,0.2642059,0.6584015,0.4960785c0.1453552,0.3651428,0.1484985,0.7105865,0.1484985,1.0434113H59.6331635z
		 M60.1611481,36.4783936c0.0046997-0.1498413,0.0133514-0.6056976-0.2616425-0.6056976
		c-0.2537689,0-0.2569122,0.4109039-0.2616272,0.6056976H60.1611481z"/>
	<path d="M63.0920563,35.43396v0.591507h-0.3551331v2.1144257h-0.5421295v-2.1144257h-0.2294159V35.43396h0.2294159
		c0.0094299-0.4613647,0.0196533-0.720047,0.2176361-0.927475c0.1060638-0.1151428,0.2262878-0.1711273,0.4344788-0.1711273
		c0.1186523,0,0.1917114,0.0173492,0.265564,0.0299683v0.5875549c-0.0353546-0.0055237-0.0691376-0.0102539-0.1209869-0.0102539
		c-0.2467041,0-0.2545624,0.130127-0.2545624,0.491333H63.0920563z"/>
	<path d="M64.8591919,36.7832947c0,0.8683167-0.2325592,1.4109192-0.824173,1.4109192
		c-0.5814056,0-0.8202667-0.5362854-0.8202667-1.4109192c0-0.8438873,0.2207794-1.410141,0.8249664-1.410141
		C64.6384125,35.3731537,64.8591919,35.9394073,64.8591919,36.7832947 M64.0350189,35.9015503
		c-0.1799316,0-0.2372894,0.2168884-0.2372894,0.8817444c0,0.7184753,0.0738525,0.8840942,0.2419891,0.8840942
		c0.1626434,0,0.236496-0.159317,0.236496-0.8840942c0-0.6963959-0.0652161-0.8817444-0.236496-0.8817444H64.0350189z"/>
	<path d="M65.7038116,35.43396v0.6530304c0.0487061-0.2303009,0.1477051-0.6924591,0.4753265-0.6924591
		c0.040863,0,0.069931,0.0070953,0.0982208,0.0181427v0.736618c-0.0487213-0.012619-0.0738678-0.012619-0.0935059-0.012619
		c-0.4156189,0-0.4156189,0.625412-0.4156189,0.8344116v1.168808h-0.5601959V35.43396H65.7038116z"/>
	<path d="M69.4780731,36.8565521c-0.045578,0.7389832-0.3567047,1.3375854-0.9553986,1.3375854
		c-0.8320313,0-1.0284576-1.047348-1.0284576-1.8817596c0-0.6648407,0.1233521-1.8864899,1.0371094-1.8864899
		c0.4148254,0,0.6191101,0.2515717,0.7401123,0.4929047c0.1610565,0.318634,0.1830597,0.7035065,0.1932678,0.9203796
		l-0.5436859,0.0552063c-0.0172882-0.289444-0.0424347-0.8178406-0.3849945-0.8178406
		c-0.3401947,0-0.4109039,0.5559998-0.4109039,1.2949829c0,0.6159515,0.0542145,1.1703949,0.4109039,1.1703949
		c0.3229218,0,0.3677063-0.5386658,0.3881378-0.7342529L69.4780731,36.8565521z"/>
	<path d="M70.354187,34.4790344v1.2405853c0.058136-0.12146,0.1689148-0.3462219,0.4965363-0.3462219
		c0.5083466,0,0.5083466,0.5607452,0.5083466,1.0284271v1.7382202H70.796524V36.401825c0-0.2594757,0-0.4385071-0.1877899-0.4385071
		c-0.2451324,0-0.2545471,0.2397614-0.2545471,0.4597931v1.7169342h-0.5601959v-3.6610107H70.354187z"/>
	<path d="M71.7626648,34.4576416h0.5680542v0.7475586h-0.5680542V34.4576416z M72.3267822,38.1398926h-0.5617523V35.43396h0.5617523
		V38.1398926z"/>
	<rect x="72.7573242" y="34.4790039" width="0.562561" height="3.6608887"/>
	<path d="M75.289978,34.4793549v3.6602173h-0.5209045v-0.4440155c-0.058136,0.1963806-0.1437836,0.482666-0.4627686,0.482666
		c-0.5397644,0-0.6434631-0.8391418-0.6434631-1.3770142c0-0.216095,0-1.4062042,0.6678162-1.4062042
		c0.2695007,0,0.3527832,0.1750793,0.405426,0.2870789v-1.2027283H75.289978z M74.736084,36.5701141
		c0-0.2421112,0-0.6750946-0.2451477-0.6750946c-0.2184143,0-0.2467041,0.3509521-0.2467041,0.7863007
		c0,0.5260468,0,0.9763794,0.2427826,0.9763794c0.2490692,0,0.2490692-0.4124756,0.2490692-0.6112213V36.5701141z"/>
	<path d="M76.2207947,35.43396v0.6530304c0.0479126-0.2303009,0.1469116-0.6924591,0.4745483-0.6924591
		c0.0408478,0,0.0699158,0.0070953,0.098999,0.0181427v0.736618c-0.0487213-0.012619-0.0754395-0.012619-0.0958557-0.012619
		c-0.4124908,0-0.4124908,0.625412-0.4124908,0.8344116v1.168808h-0.5609741V35.43396H76.2207947z"/>
	<path d="M77.4958649,36.9129639c-0.0062866,0.3659363-0.0086365,0.7626343,0.2702789,0.7626343
		c0.2404175,0,0.2702789-0.2933807,0.2859955-0.4684601l0.5044098,0.0441589
		c-0.040863,0.2523804-0.1532135,0.9432526-0.8029785,0.9432526c-0.6191101,0-0.8398895-0.6538086-0.8398895-1.3715057
		c0-0.1758728,0.0157166-0.6025391,0.1508484-0.9322052c0.1437836-0.3462219,0.4116974-0.5173645,0.6843262-0.5173645
		c0.3519897,0,0.5704041,0.2642059,0.6591949,0.4960785c0.1445618,0.3651428,0.1484985,0.7105865,0.1484985,1.0434113H77.4958649z
		 M78.0230713,36.4783936c0.0046997-0.1498413,0.0133514-0.6056976-0.2624207-0.6056976
		c-0.2529907,0-0.256134,0.4109039-0.2592773,0.6056976H78.0230713z"/>
	<path d="M79.4340668,35.43396v0.3675232c0.0817108-0.224762,0.1877747-0.4282379,0.5036163-0.4282379
		c0.0785675,0,0.3064117,0,0.447052,0.2870636c0.0801392,0.1687775,0.0801392,0.4329834,0.0801392,0.702713v1.7768707h-0.5601959
		v-1.7768707c0-0.2444916-0.0157166-0.4022217-0.1924896-0.4022217c-0.2506256,0-0.2506256,0.2649841-0.2506256,0.5922852v1.5868073
		h-0.5609894V35.43396H79.4340668z"/>
	<path d="M82.5813599,34.4790344v2.0907745c0,0.5339203,0,0.9724274,0.3873291,0.9724274
		c0.1854248,0,0.2718506-0.1151428,0.3158417-0.2436981c0.0487213-0.1411743,0.0487213-0.327301,0.0487213-0.7287292v-2.0907745
		h0.5059814v2.056076c0,0.65065,0,1.1538086-0.3331299,1.4511414c-0.1264954,0.1096344-0.3072052,0.2082062-0.5900574,0.2082062
		c-0.9294586,0-0.9341736-0.8470306-0.9341736-1.624649v-2.0907745H82.5813599z"/>
	<path d="M84.8555908,35.43396v0.3675232c0.0809174-0.224762,0.1893463-0.4282379,0.5043945-0.4282379
		c0.0769958,0,0.3048553,0,0.4462738,0.2870636c0.0817108,0.1687775,0.0817108,0.4329834,0.0817108,0.702713v1.7768707h-0.5617676
		v-1.7768707c0-0.2444916-0.0157166-0.4022217-0.1924896-0.4022217c-0.2498474,0-0.2498474,0.2649841-0.2498474,0.5922852v1.5868073
		h-0.5617676V35.43396H84.8555908z"/>
	<path d="M87.8294678,34.4793549v3.6602173h-0.5193329v-0.4440155c-0.0565643,0.1963806-0.1445618,0.482666-0.4635468,0.482666
		c-0.5397644,0-0.6434784-0.8391418-0.6434784-1.3770142c0-0.216095,0-1.4062042,0.667038-1.4062042
		c0.2718506,0,0.3535614,0.1750793,0.4069977,0.2870789v-1.2027283H87.8294678z M87.2771454,36.5701141
		c0-0.2421112,0-0.6750946-0.2451477-0.6750946c-0.2184143,0-0.2459106,0.3509521-0.2459106,0.7863007
		c0,0.5260468,0,0.9763794,0.2412109,0.9763794c0.2498474,0,0.2498474-0.4124756,0.2498474-0.6112213V36.5701141z"/>
	<path d="M88.7601013,36.9129639c-0.0046997,0.3659363-0.007843,0.7626343,0.2718506,0.7626343
		c0.2419891,0,0.2710571-0.2933807,0.2859955-0.4684601l0.5036163,0.0441589
		c-0.0392761,0.2523804-0.1516418,0.9432526-0.8021851,0.9432526c-0.6191101,0-0.8398895-0.6538086-0.8398895-1.3715057
		c0-0.1758728,0.0164948-0.6025391,0.1508484-0.9322052c0.1445618-0.3462219,0.4109192-0.5173645,0.683548-0.5173645
		c0.3527679,0,0.5719757,0.2642059,0.6591797,0.4960785c0.144577,0.3651428,0.1484985,0.7105865,0.1484985,1.0434113H88.7601013z
		 M89.290451,36.4783936c0.0039215-0.1498413,0.012558-0.6056976-0.2632141-0.6056976
		c-0.2545624,0-0.2569122,0.4109039-0.260849,0.6056976H89.290451z"/>
	<path d="M90.6637421,35.43396v0.6530304c0.0479126-0.2303009,0.14534-0.6924591,0.4737549-0.6924591
		c0.0424347,0,0.069931,0.0070953,0.098999,0.0181427v0.736618c-0.0502777-0.012619-0.0730743-0.012619-0.0950623-0.012619
		c-0.413269,0-0.413269,0.625412-0.413269,0.8344116v1.168808h-0.5601959V35.43396H90.6637421z"/>
	<path d="M93.7212982,37.5420685h0.4478302v0.5978241h-1.5069427v-0.5978241h0.4580536v-2.1609497
		c-0.1249237,0.167984-0.2357025,0.3012695-0.4580536,0.4582214v-0.7176971
		c0.3237-0.2302856,0.4847717-0.4653015,0.5986938-0.6743011h0.4604187V37.5420685z"/>
	<path d="M94.5322876,35.3701477c0.164978-0.7523804,0.5366058-0.9440308,0.9011688-0.9440308
		c0.4588318,0,0.8021851,0.3178406,0.8021851,0.9818878c0,0.559967-0.2781372,0.7342529-0.4006958,0.8123322
		c0.3519745,0.1514282,0.4588318,0.4858246,0.4588318,0.8714905c0,0.9582214-0.6175385,1.1025543-0.8933258,1.1025543
		c-0.2223358,0-0.5036163-0.0883331-0.6921844-0.3438568c-0.1759796-0.241333-0.2121277-0.5276184-0.2372742-0.7374115
		l0.5326996-0.1159363c0.0172882,0.193222,0.0526428,0.5449677,0.3566895,0.5449677
		c0.202713,0,0.3158569-0.1979523,0.3158569-0.5063171c0-0.3675232-0.1689301-0.5039673-0.4234924-0.4984436h-0.1626282v-0.5867615
		h0.1626282c0.1320038,0,0.388916,0,0.388916-0.4550629c0-0.0449677-0.0031433-0.2026978-0.0644226-0.318634
		c-0.045578-0.0930634-0.1233521-0.1269684-0.2097778-0.1269684c-0.2168579,0-0.2742004,0.2366028-0.3111267,0.4495392
		L94.5322876,35.3701477z"/>
</g>
<g>
	<path d="M57.4710388,10.1951141c-0.0589294,1.0244904-0.4784851,1.8478546-1.2845917,1.8478546
		c-1.1219635,0-1.3851624-1.4464111-1.3851624-2.5970764c0-0.9196014,0.1649933-2.6065369,1.3953705-2.6065369
		c0.5578308,0,0.8336029,0.3485718,0.9985962,0.6813812c0.2168579,0.4377136,0.2435608,0.9700775,0.260849,1.2729187
		L56.7222748,8.868576c-0.0227814-0.4014282-0.0549927-1.1269989-0.5185547-1.1269989
		c-0.4588318,0-0.553894,0.7626343-0.553894,1.7871246c0,0.8478088,0.0714874,1.61203,0.553894,1.61203
		c0.434494,0,0.4957733-0.7413483,0.5232697-1.0142212L57.4710388,10.1951141z"/>
	<polygon points="60.5485687,11.9680481 59.7424469,11.9680481 59.7424469,9.8985901 58.8538513,9.8985901 58.8538513,11.9680481 
		58.0477295,11.9680481 58.0477295,6.9142609 58.8538513,6.9142609 58.8538513,8.952179 59.7424469,8.952179 59.7424469,6.9142609 
		60.5485687,6.9142609 	"/>
	<polygon points="63.5854645,6.914093 63.5854645,7.78479 62.1555176,7.78479 62.1555176,8.9520264 63.2664642,8.9520264 
		63.2664642,9.8227081 62.1555176,9.8227081 62.1555176,11.0664368 63.5854645,11.0664368 63.5854645,11.9678955 
		61.3501892,11.9678955 61.3501892,6.914093 	"/>
	<path d="M66.6291809,10.1951141c-0.0605011,1.0244904-0.4784851,1.8478546-1.2853851,1.8478546
		c-1.12117,0-1.3859406-1.4464111-1.3859406-2.5970764c0-0.9196014,0.1657715-2.6065369,1.3953705-2.6065369
		c0.5578308,0,0.8343964,0.3485718,1.0001678,0.6813812c0.2152863,0.4377136,0.2435608,0.9700775,0.260849,1.2729187
		L65.8796387,8.868576c-0.0220032-0.4014282-0.0557861-1.1269989-0.5185547-1.1269989
		c-0.4580536,0-0.5531158,0.7626343-0.5531158,1.7871246c0,0.8478088,0.0714874,1.61203,0.5531158,1.61203
		c0.4352722,0,0.4965515-0.7413483,0.5232697-1.0142212L66.6291809,10.1951141z"/>
	<polygon points="68.0125427,6.914093 68.0125427,9.0198517 68.9058533,6.914093 69.7221832,6.914093 68.8021393,8.7706299 
		69.7991791,11.9678955 68.9663544,11.9678955 68.3158112,9.6421051 68.0125427,10.2548981 68.0125427,11.9678955 
		67.2056427,11.9678955 67.2056427,6.914093 	"/>
	<polygon points="73.6190033,6.914093 73.6190033,7.8597107 72.8678894,7.8597107 72.8678894,11.9678955 72.062561,11.9678955 
		72.062561,7.8597107 71.3287354,7.8597107 71.3287354,6.914093 	"/>
	<polygon points="76.513855,11.9680481 75.7093048,11.9680481 75.7093048,9.8985901 74.8199158,9.8985901 74.8199158,11.9680481 
		74.0145874,11.9680481 74.0145874,6.9142609 74.8199158,6.9142609 74.8199158,8.952179 75.7093048,8.952179 75.7093048,6.9142609 
		76.513855,6.9142609 	"/>
	<rect x="77.3158722" y="6.914917" width="0.8068848" height="5.0537109"/>
	<path d="M80.5036163,8.3689575c-0.0440063-0.1813812-0.149292-0.6277771-0.5177765-0.6277771
		c-0.2726288,0-0.3865509,0.2563171-0.3865509,0.46138c0,0.3470154,0.2419891,0.4692535,0.633255,0.6758881
		c0.4164124,0.216095,1.0143127,0.5284119,1.0143127,1.5513153c0,0.8635864-0.4384003,1.6128235-1.3050079,1.6128235
		c-0.2671356,0-0.6631165-0.0686188-0.9616699-0.5291901c-0.2050629-0.3280945-0.2710724-0.6372528-0.3142853-0.8572845
		l0.7071228-0.2720947c0.0432129,0.2279205,0.1484833,0.7571259,0.5900421,0.7571259
		c0.2765656,0,0.4682617-0.2105865,0.4682617-0.5449829c0-0.3564758-0.2309875-0.4992218-0.5067596-0.6348724
		c-0.5020447-0.2515869-1.109375-0.5489197-1.109375-1.5773315c0-0.7878876,0.3684845-1.5442047,1.1745911-1.5442047
		c0.9176788,0,1.109375,0.8391266,1.188736,1.1727295L80.5036163,8.3689575z"/>
	<path d="M83.3688354,6.9138641h1.2523804c0.3637695,0,0.7786102,0,1.0048828,0.4306183
		c0.1374969,0.2594757,0.1924896,0.5828247,0.1924896,0.9030151c0,0.8107605-0.3527679,0.9929352-0.5224762,1.0828552
		c0.1210022,0.0607147,0.236496,0.1151428,0.3684845,0.3115234c0.1343536,0.1963806,0.2545624,0.5000153,0.2545624,0.9251099
		c0,0.4384918-0.1382751,0.9463959-0.4038391,1.1664429c-0.2812805,0.2350159-0.5625458,0.2350159-0.894104,0.2350159h-1.2523804
		V6.9138641z M84.1466675,8.9517822h0.2592621c0.2207794,0,0.5908356,0,0.5908356-0.6285706
		c0-0.5914917-0.3700562-0.5914917-0.5303345-0.5914917h-0.3197632V8.9517822z M84.1466675,11.0977478h0.3991241
		c0.3456879,0,0.5507507-0.1671906,0.5507507-0.6679993c0-0.6601105-0.3755493-0.6601105-0.5594025-0.6601105h-0.3904724V11.0977478
		z"/>
	<path d="M89.1151581,9.4457245c0,0.9219666-0.1202087,2.5970917-1.3348694,2.5970917
		c-1.1808777,0-1.3348694-1.5828552-1.3348694-2.5970917c0-0.9700623,0.1382751-2.6065216,1.3348694-2.6065216
		C88.9509583,6.8392029,89.1151581,8.3928528,89.1151581,9.4457245 M87.2939606,9.4457245
		c0,1.0828552,0.0793457,1.6948547,0.4863281,1.6948547c0.4140625,0,0.4863434-0.6269836,0.4863434-1.6948547
		c0-1.0623322-0.0667877-1.7042999-0.4863434-1.7042999C87.3733063,7.7414246,87.2939606,8.3447571,87.2939606,9.4457245"/>
	<polygon points="90.364563,6.914093 90.8076782,8.2319641 91.271225,6.914093 92.0451355,6.914093 91.1761627,9.2012482 
		92.1543427,11.9678955 91.271225,11.9678955 90.7306824,10.3164215 90.1288452,11.9678955 89.3541718,11.9678955 
		90.364563,9.377121 89.4649506,6.914093 	"/>
	<polygon points="57.1142731,14.4950256 57.1142731,15.3665161 55.7401123,15.3665161 55.7401123,16.6835938 56.7992096,16.6835938 
		56.7992096,17.5574341 55.7401123,17.5574341 55.7401123,19.5488281 54.9332123,19.5488281 54.9332123,14.4950256 	"/>
	<path d="M60.0242615,17.0266418c0,0.9235382-0.1209869,2.5963135-1.336441,2.5963135
		c-1.1800995,0-1.3340912-1.582077-1.3340912-2.5963135c0-0.9692688,0.1367188-2.6065369,1.3340912-2.6065369
		C59.85849,14.420105,60.0242615,15.9737701,60.0242615,17.0266418 M58.203064,17.0266418
		c0,1.0836334,0.0769958,1.6956482,0.4847565,1.6956482c0.4156342,0,0.4863434-0.6277771,0.4863434-1.6956482
		c0-1.0623322-0.0667877-1.7042999-0.4863434-1.7042999C58.2800598,15.3223419,58.203064,15.9256744,58.203064,17.0266418"/>
	<path d="M61.8479919,14.4951019c0.3708344,0,0.7283173,0,1.010376,0.4314117
		c0.1925049,0.2949524,0.265564,0.6963959,0.265564,1.0970306c0,0.8959351-0.3362732,1.1696014-0.5201111,1.3210297
		l0.6796112,2.2043304h-0.8831024l-0.4910583-1.991394H61.499939v1.991394h-0.8029785v-5.0538025H61.8479919z M61.499939,15.313736
		v1.4243469h0.3590546c0.3472595,0,0.4745483-0.3115234,0.4745483-0.7287292c0-0.6956177-0.369278-0.6956177-0.5075531-0.6956177
		H61.499939z"/>
	<path d="M66.9038696,15.9498749c-0.0432129-0.180603-0.1484985-0.6277771-0.5177765-0.6277771
		c-0.2718353,0-0.3865509,0.2555389-0.3865509,0.46138c0,0.3470154,0.2412109,0.470047,0.6324768,0.6758881
		c0.4148407,0.2168884,1.0182343,0.5284119,1.0182343,1.5520935c0,0.8628082-0.4431152,1.6112518-1.3081512,1.6112518
		c-0.2663422,0-0.6631165-0.0678253-0.9616699-0.5291901c-0.202713-0.3265076-0.2702789-0.6356659-0.3134918-0.8564911
		l0.7063293-0.2728882c0.0432129,0.228714,0.1477051,0.7586975,0.5892639,0.7586975
		c0.2765503,0,0.4690399-0.2121429,0.4690399-0.5441742c0-0.3580627-0.2309875-0.5008087-0.5067596-0.6372528
		c-0.5028381-0.25-1.1085968-0.5473328-1.1085968-1.5765381c0-0.7878876,0.3684845-1.54422,1.1738129-1.54422
		c0.918457,0,1.1101685,0.8391418,1.1871643,1.1727448L66.9038696,15.9498749z"/>
	<path d="M69.3121338,14.4951019c0.3857727,0,0.7896118,0,1.0661621,0.3864441
		c0.2529907,0.3635864,0.3087769,0.849411,0.3087769,1.1964111c0,0.5000305-0.1013489,1.0079193-0.3857727,1.3123474
		c-0.2757721,0.2941742-0.7298889,0.2941742-0.9553833,0.2941742h-0.2875519v1.8644257H68.252243v-5.0538025H69.3121338z
		 M69.0583649,15.313736v1.4992676h0.2537689c0.2820587,0,0.5193329-0.0836029,0.5193329-0.7563324
		c0-0.7429352-0.3425598-0.7429352-0.5193329-0.7429352H69.0583649z"/>
	<polygon points="73.4148865,14.4950256 73.4148865,15.3665161 71.9857178,15.3665161 71.9857178,16.532959 73.0966797,16.532959 
		73.0966797,17.4036407 71.9857178,17.4036407 71.9857178,18.6473694 73.4148865,18.6473694 73.4148865,19.5488281 
		71.1804047,19.5488281 71.1804047,14.4950256 	"/>
	<path d="M76.4586182,17.7760468c-0.0597229,1.0244904-0.4792786,1.8470764-1.2853851,1.8470764
		c-1.1203766,0-1.3851624-1.4440613-1.3851624-2.5962982c0-0.918808,0.1657867-2.6065521,1.3961639-2.6065521
		c0.5562592,0,0.8328247,0.348587,0.9985962,0.6806183c0.2160645,0.4392853,0.2435608,0.9708557,0.2592773,1.2736969
		l-0.7330322,0.0757141c-0.0227966-0.4022217-0.0550079-1.1277924-0.5193481-1.1277924
		c-0.4580383,0-0.5523224,0.7634277-0.5523224,1.7879028c0,0.8470306,0.0714874,1.6120453,0.5523224,1.6120453
		c0.4360657,0,0.4965515-0.7413483,0.5232697-1.0142365L76.4586182,17.7760468z"/>
	<rect x="77.0353699" y="14.4956055" width="0.8061066" height="5.053833"/>
	<polygon points="80.825119,14.4950256 80.825119,15.3665161 79.4501648,15.3665161 79.4501648,16.6835938 80.5092621,16.6835938 
		80.5092621,17.5574341 79.4501648,17.5574341 79.4501648,19.5488281 78.6440582,19.5488281 78.6440582,14.4950256 	"/>
	<rect x="81.1979218" y="14.4956055" width="0.8068848" height="5.053833"/>
	<path d="M85.3451538,17.7760468c-0.0597229,1.0244904-0.4784851,1.8470764-1.2861633,1.8470764
		c-1.1195984,0-1.3851624-1.4440613-1.3851624-2.5962982c0-0.918808,0.1665649-2.6065521,1.3961639-2.6065521
		c0.5570374,0,0.8336029,0.348587,0.9993744,0.6806183c0.2160645,0.4392853,0.2435608,0.9708557,0.2600708,1.2736969
		l-0.7338257,0.0757141c-0.0220032-0.4022217-0.0557861-1.1277924-0.5201263-1.1277924
		c-0.4557037,0-0.5515442,0.7634277-0.5515442,1.7879028c0,0.8470306,0.0714874,1.6120453,0.5515442,1.6120453
		c0.4368439,0,0.4981232-0.7413483,0.5256195-1.0142365L85.3451538,17.7760468z"/>
	<path d="M89.9771423,17.7760468c-0.0612946,1.0244904-0.4808502,1.8470764-1.287735,1.8470764
		c-1.1180267,0-1.3843689-1.4440613-1.3843689-2.5962982c0-0.918808,0.1657715-2.6065521,1.3953705-2.6065521
		c0.5578308,0,0.8351746,0.348587,1.000946,0.6806183c0.2144928,0.4392853,0.2427826,0.9708557,0.2592773,1.2736969
		l-0.7346039,0.0757141c-0.021225-0.4022217-0.0542145-1.1277924-0.5185547-1.1277924
		c-0.4572601,0-0.5523376,0.7634277-0.5523376,1.7879028c0,0.8470306,0.0707092,1.6120453,0.5523376,1.6120453
		c0.4352722,0,0.4973297-0.7413483,0.5224762-1.0142365L89.9771423,17.7760468z"/>
	<path d="M93.0919647,17.0266418c0,0.9235382-0.1217804,2.5963135-1.3348694,2.5963135
		c-1.1816711,0-1.3364563-1.582077-1.3364563-2.5963135c0-0.9692688,0.1382904-2.6065369,1.3364563-2.6065369
		C92.9269714,14.420105,93.0919647,15.9737701,93.0919647,17.0266418 M91.2699738,17.0266418
		c0,1.0836334,0.077774,1.6956482,0.4871216,1.6956482c0.4124756,0,0.4847565-0.6277771,0.4847565-1.6956482
		c0-1.0623322-0.0667877-1.7042999-0.4847565-1.7042999C91.3477478,15.3223419,91.2699738,15.9256744,91.2699738,17.0266418"/>
	<polygon points="94.6267242,14.4950256 95.5726776,17.6315765 95.5726776,14.4950256 96.2012177,14.4950256 96.2012177,19.5488281 
		95.479187,19.5488281 94.3572235,15.8901825 94.3572235,19.5488281 93.7271118,19.5488281 93.7271118,14.4950256 	"/>
	<polygon points="98.8474884,14.4950256 98.8474884,15.4414368 98.0963745,15.4414368 98.0963745,19.5488281 97.2910461,19.5488281 
		97.2910461,15.4414368 96.5556488,15.4414368 96.5556488,14.4950256 	"/>
	<polygon points="101.4776306,14.4950256 101.4776306,15.3665161 100.0484619,15.3665161 100.0484619,16.532959 
		101.1562805,16.532959 101.1562805,17.4036407 100.0484619,17.4036407 100.0484619,18.6473694 101.4776306,18.6473694 
		101.4776306,19.5488281 99.2407837,19.5488281 99.2407837,14.4950256 	"/>
	<polygon points="102.8480225,14.4950256 103.7931824,17.6315765 103.7931824,14.4950256 104.4217377,14.4950256 
		104.4217377,19.5488281 103.6981201,19.5488281 102.5777435,15.8901825 102.5777435,19.5488281 101.94841,19.5488281 
		101.94841,14.4950256 	"/>
	<polygon points="107.0671234,14.4950256 107.0671234,15.4414368 106.3175812,15.4414368 106.3175812,19.5488281 
		105.5106812,19.5488281 105.5106812,15.4414368 104.776062,15.4414368 104.776062,14.4950256 	"/>
	<rect x="54.9333649" y="22.074707" width="0.8068848" height="5.053833"/>
	<polygon points="57.4096069,22.0744476 58.352417,25.2125702 58.352417,22.0744476 58.9825287,22.0744476 58.9825287,27.1282501 
		58.2581329,27.1282501 57.1385345,23.4688263 57.1385345,27.1282501 56.509201,27.1282501 56.509201,22.0744476 	"/>
	<polygon points="61.9326935,22.0744476 61.9326935,22.9459381 60.5569611,22.9459381 60.5569611,24.2653809 61.6168365,24.2653809 
		61.6168365,25.1352844 60.5569611,25.1352844 60.5569611,27.1282501 59.7516327,27.1282501 59.7516327,22.0744476 	"/>
	<path d="M64.8426208,24.6060028c0,0.9243317-0.1202087,2.5994568-1.3356628,2.5994568
		c-1.1816711,0-1.3340912-1.5852203-1.3340912-2.5994568c0-0.9700623,0.1367188-2.6065369,1.3340912-2.6065369
		C64.6768341,21.9994659,64.8426208,23.5523529,64.8426208,24.6060028 M63.0206299,24.6060028
		c0,1.0820618,0.0793457,1.6980133,0.4863281,1.6980133c0.4148407,0,0.4855499-0.6301422,0.4855499-1.6980133
		c0-1.0607452-0.0659943-1.7050934-0.4855499-1.7050934C63.0999756,22.9009094,63.0206299,23.5074005,63.0206299,24.6060028"/>
	<path d="M66.6672974,22.0744629c0.3684845,0,0.7267456,0,1.0088043,0.4329834
		c0.1932831,0.2949524,0.2647858,0.6971741,0.2647858,1.0978241c0,0.8927765-0.335495,1.1672211-0.5185547,1.3178558
		l0.678833,2.2051239h-0.8831024l-0.4918365-1.9929657h-0.4085541v1.9929657h-0.8045502v-5.0537872H66.6672974z
		 M66.3176727,22.8946686v1.4235535h0.3598328c0.3457031,0,0.4745483-0.31073,0.4745483-0.7279358
		c0-0.6956177-0.3708344-0.6956177-0.5083313-0.6956177H66.3176727z"/>
	<polygon points="69.8140259,22.0744476 70.3333588,25.1975861 70.9186859,22.0744476 72.0657806,22.0744476 72.0657806,27.1282501 
		71.3099518,27.1282501 71.3099518,22.8946686 70.5588379,27.1282501 69.9695892,27.1282501 69.2836761,22.8946686 
		69.2836761,27.1282501 68.6276398,27.1282501 68.6276398,22.0744476 	"/>
	<path d="M74.3304291,22.0746918l1.0480957,5.0538025H74.55513l-0.1869812-1.0379028h-1.0323944l-0.181488,1.0379028h-0.7456055
		l1.1038818-5.0538025H74.3304291z M74.2188721,25.2183228l-0.3700562-2.0592041l-0.3582764,2.0592041H74.2188721z"/>
	<polygon points="77.6708527,22.0744476 77.6708527,23.0224304 76.9189453,23.0224304 76.9189453,27.1282501 76.1144104,27.1282501 
		76.1144104,23.0224304 75.3821564,23.0224304 75.3821564,22.0744476 	"/>
	<rect x="78.0661926" y="22.074707" width="0.8053284" height="5.053833"/>
	<path d="M82.2144318,24.6060028c0,0.9243317-0.1210022,2.5994568-1.336441,2.5994568
		c-1.1808929,0-1.3356628-1.5852203-1.3356628-2.5994568c0-0.9700623,0.1382751-2.6065369,1.3356628-2.6065369
		C82.0478668,21.9994659,82.2144318,23.5523529,82.2144318,24.6060028 M80.3924408,24.6060028
		c0,1.0820618,0.0769958,1.6980133,0.4855499,1.6980133c0.4148407,0,0.4847565-0.6301422,0.4847565-1.6980133
		c0-1.0607452-0.0667725-1.7050934-0.4847565-1.7050934C80.4694366,22.9009094,80.3924408,23.5074005,80.3924408,24.6060028"/>
	<polygon points="83.7507629,22.0744476 84.6943665,25.2125702 84.6943665,22.0744476 85.3236847,22.0744476 85.3236847,27.1282501 
		84.6008606,27.1282501 83.4796906,23.4688263 83.4796906,27.1282501 82.8511505,27.1282501 82.8511505,22.0744476 	"/>
</g>
<g display="none">
	<path display="inline" d="M7.3828812,21.7971497v-3.7382813c0-0.3785706,0.2686996-0.4669037,1.0968094-0.4669037
		c1.8094177-0.0228729,2.3531189,0.3769836,2.4890442,1.7264099c0.0392761,2.6317902-0.8383331,2.4953461-3.0272369,2.4953461
		C7.7560806,21.8137207,7.5714417,21.8137207,7.3828812,21.7971497 M8.9966736,26.4644928
		c-1.0818863-0.1908569-1.6515045-0.3059998-1.6137924-1.4353638l-0.0204315-1.9188385
		c0.3527756,0.0181427,0.725975,0.0063019,1.033165,0.0063019c4.1735535,0,6.4363098,0.4014435,6.1573944-3.9472809
		c-0.0502777-2.9843292-2.0859833-2.8628693-6.4457321-2.8628693c-1.5077209,0-2.6862488,0.0378571-3.5536346,0.0378571
		c-0.6403351,0-1.0889587-0.025238-1.9917068,0.0220795c-0.8508911,0.0197144-0.9113922,0.7894592-0.1390686,1.0426178
		c0.8501129,0.3643646,1.5525131,0.098587,1.6114349,1.197998v6.5088806
		c-0.0204239,1.2997284-0.8446045,1.2153473-1.264946,1.3864746c-1.1384506,0.0962219-1.0033188,1.0852203-0.2364883,1.1151886
		c0.4454803,0.0173492,1.2350922,0.0070953,2.186554,0.0070953c1.9406281,0,4.2481689,0.021286,4.760437,0.0063019
		C10.2105408,27.6064911,10.3048248,26.5583496,8.9966736,26.4644928"/>
	<path display="inline" d="M23.8034058,23.981369c-0.0966492-0.4566345-0.4509888-0.4637299-0.9664001-0.625412
		c-1.0260925-0.1451111-1.2743683-1.0591736-0.1390686-1.1262207h1.6829376
		c0.8972473-0.0063019,2.885025-0.0402222,3.4554291-0.012619c1.0355225,0.0220947,1.2618103,0.7650146,0.0102081,1.0978394
		c-0.3307648,0.0906982-0.8736725,0.3911743-0.8815308,1.0402527c-0.0039215,0.33992,0,2.4566956,0,2.4566956
		s-0.550766,1.410141-5.9240417,1.3115692c-3.3147888-0.0749359-5.6459045-0.1664124-5.7771149-5.6555481
		c-0.0196381-7.1138,4.4501038-6.3085785,6.1856689-6.4363403c2.4686127,0.0354919,3.7602692,0.3391266,4.4776001,0.6080627
		c1.1070251,0.3903961,1.1557465,0.9251099,1.1706696,1.9014893c0.0141449,0.9763641-0.2003479,1.8880768-1.2979431,1.9377594
		c-1.5415192,0.1293335-1.6570129-0.5536499-1.7677917-1.1727448c-0.2294159-1.6120453-0.6513214-1.9472351-2.3153992-1.9440765
		c-2.8591003-0.0220795-3.1710205,1.4929504-3.1065826,4.8968506c0.0494995,2.5749969,0.0989838,4.4378357,2.8881683,4.4007721
		c1.4943542,0.0031586,2.3358307-0.1025238,2.3358307-1.1908875C23.8340454,25.468811,23.9133911,24.4924316,23.8034058,23.981369"
		/>
	<path display="inline" d="M33.1640167,17.1460571c1.3788605-0.4739838,2.0309753-0.7303009,2.8716583-0.8454437
		c0.5704041-0.0110474,1.3608093-0.0299683,1.7858582-0.016571c0.1854248,0,0.1869965,0.138031,0.181488,0.266571
		c-0.0180664,0.4109039,0,0.9385223,0,1.8242035v6.8669434c-0.0102081,0.9022369,0.2262726,1.2563477,1.0779572,1.2673798h0.1469269
		c0.7644653,0.0086823,0.7550354,1.0639191,0.0848541,1.0662842c-0.6984711,0.0023651-1.8667908-0.0023651-3.0649567-0.0023651
		h-2.578598c-0.6921844,0.0157776-0.8304749-1.0063324,0.033783-1.0781097h0.2663422
		c0.5421295-0.0891113,0.8069-0.1183014,0.8367615-1.2531891l0.0314178-5.9915314
		c-0.0212097-0.4684601,0.1681366-0.9826813-0.8006134-0.875412C32.6179657,18.6776581,32.3641815,17.462326,33.1640167,17.1460571"
		/>
	<path display="inline" d="M43.4008942,27.8246307c-2.5723267-0.1316986-2.8410339-0.6743011-2.8677521-1.7949982
		c-0.0306396-0.759491,0.0267181-1.426712,0.7841187-1.7311401c0.6175385-0.2429047,1.6931458-0.3036346,2.0836334,1.4795532
		c0.2144775,0.6774597,1.2814331,0.5851898,1.5737152,0.5851898c0.8980255,0,2.0223389-0.2113647,2.1229095-1.8581085
		c0.0966339-1.1640778-0.058136-1.531601-0.6356201-1.888855c-1.0457458-0.4393005-2.4866791,0.203476-2.723175-0.663269
		c-0.1587067-1.4062042,0.8084717-0.7736969,2.3044128-1.0899506c0.819458-0.167984,1.0331726-0.6325073,1.0088196-1.8770294
		c-0.0628662-1.6924896-1.2437439-1.7224579-2.2666931-1.6538391c-2.3837585,0.1514282-0.8477631,1.8628387-2.4866943,2.2232513
		c-2.0003357,0.2610626-1.747345-0.7886658-1.7976379-1.3233795c0.0196533-0.9992523,0.0683594-1.3415222,0.6332703-1.7618866
		c0.7786102-0.6143799,2.2101135-0.6325226,4.2065277-0.6175232c1.1227417,0.0118256,4.3204651-0.0378571,4.7219543,2.6033936
		c0.1689148,1.8368073-0.1477051,2.3423462-1.3694458,2.9992981c0.7801819,0.5930939,1.4126587,1.2019348,1.3474426,3.0671387
		C49.7452698,28.194519,46.2969055,27.953186,43.4008942,27.8246307"/>
	<path display="inline" d="M31.3969421,20.5810242h1.0889435c0.7479706,0.0110474,0.9326019,0.7500305,0.910614,1.2090302
		c-0.0086517,0.228714-0.2207794,0.9866333-0.910614,0.9866333l-2.044342-0.0078888
		c-0.6756897-0.0149841-1.0300293-0.33992-1.046524-0.9787445c-0.0149231-0.8075867,0.3708344-1.1490784,1.0528107-1.2090302
		H31.3969421"/>
</g>
<g>
	<path fill="#7F3F98" d="M7.4461436,21.7791405v-3.7382813c0-0.3785706,0.2686996-0.4669037,1.0968089-0.4669037
		c1.8094177-0.0228729,2.3531189,0.3769836,2.4890442,1.7264099c0.0392761,2.6317902-0.8383331,2.4953461-3.0272369,2.4953461
		C7.8193431,21.7957115,7.6347041,21.7957115,7.4461436,21.7791405 M9.0599356,26.4464836
		c-1.0818858-0.1908569-1.651504-0.3059998-1.6137919-1.4353638l-0.0204315-1.9188385
		c0.3527756,0.0181427,0.7259746,0.0063019,1.0331645,0.0063019c4.1735535,0,6.4363098,0.4014435,6.1573944-3.9472809
		c-0.0502777-2.9843292-2.0859833-2.8628693-6.4457321-2.8628693c-1.5077205,0-2.6862483,0.0378571-3.5536342,0.0378571
		c-0.6403353,0-1.088959-0.025238-1.9917071,0.0220795c-0.8508911,0.0197144-0.9113922,0.7894592-0.1390686,1.0426178
		c0.8501129,0.3643646,1.5525134,0.098587,1.6114352,1.197998v6.5088806
		c-0.0204239,1.2997284-0.8446047,1.2153473-1.2649462,1.3864746c-1.1384506,0.0962219-1.0033188,1.0852203-0.2364883,1.1151886
		c0.4454803,0.0173492,1.2350922,0.0070953,2.1865542,0.0070953c1.9406281,0,4.2481685,0.021286,4.7604365,0.0063019
		C10.2738028,27.5884819,10.3680868,26.5403404,9.0599356,26.4464836"/>
	<path fill="#7F3F98" d="M23.8666687,23.9633598c-0.0966492-0.4566345-0.4509888-0.4637299-0.9664001-0.625412
		c-1.0260925-0.1451111-1.2743683-1.0591736-0.1390686-1.1262207h1.6829376
		c0.8972473-0.0063019,2.885025-0.0402222,3.4554291-0.012619c1.0355225,0.0220947,1.2618103,0.7650146,0.0102081,1.0978394
		c-0.3307648,0.0906982-0.8736725,0.3911743-0.8815308,1.0402527c-0.0039215,0.33992,0,2.4566956,0,2.4566956
		s-0.550766,1.410141-5.9240417,1.3115692c-3.3147888-0.0749359-5.6459055-0.1664124-5.7771158-5.6555481
		c-0.0196381-7.113801,4.4501047-6.3085785,6.1856699-6.4363403c2.4686127,0.0354919,3.7602692,0.3391266,4.4776001,0.6080627
		c1.1070251,0.3903961,1.1557465,0.9251099,1.1706696,1.9014893c0.0141449,0.9763641-0.2003479,1.8880768-1.2979431,1.9377594
		c-1.5415192,0.1293335-1.6570129-0.5536499-1.7677917-1.1727448c-0.2294159-1.6120453-0.6513214-1.9472351-2.3153992-1.9440765
		c-2.8591003-0.0220795-3.1710205,1.4929504-3.1065826,4.8968506c0.0494995,2.5749969,0.0989838,4.4378357,2.8881683,4.4007721
		c1.4943542,0.0031586,2.3358307-0.1025238,2.3358307-1.1908875C23.8973083,25.4508018,23.9766541,24.4744225,23.8666687,23.9633598
		"/>
	<path fill="#7F3F98" d="M33.2272797,17.1280479c1.3788605-0.4739838,2.0309753-0.7303009,2.8716583-0.8454437
		c0.5704041-0.0110474,1.3608093-0.0299683,1.7858582-0.016571c0.1854248,0,0.1869965,0.138031,0.181488,0.266571
		c-0.0180664,0.4109039,0,0.9385223,0,1.8242035v6.8669434c-0.0102081,0.9022369,0.2262726,1.2563477,1.0779572,1.2673798h0.1469269
		c0.7644653,0.0086823,0.7550354,1.0639191,0.0848541,1.0662842c-0.6984711,0.0023651-1.8667908-0.0023651-3.0649567-0.0023651
		h-2.578598c-0.6921844,0.0157776-0.8304749-1.0063324,0.033783-1.0781097h0.2663422
		c0.5421295-0.0891113,0.8069-0.1183014,0.8367615-1.2531891l0.0314178-5.9915314
		c-0.0212097-0.4684601,0.1681366-0.9826813-0.8006134-0.875412C32.6812286,18.6596489,32.4274445,17.4443169,33.2272797,17.1280479
		"/>
	<path fill="#7F3F98" d="M43.4641571,27.8066216c-2.5723267-0.1316986-2.8410339-0.6743011-2.8677521-1.7949982
		c-0.0306396-0.759491,0.0267181-1.426712,0.7841187-1.7311401c0.6175385-0.2429047,1.6931458-0.3036346,2.0836334,1.4795532
		c0.2144775,0.6774597,1.2814331,0.5851898,1.5737152,0.5851898c0.8980255,0,2.0223389-0.2113647,2.1229095-1.8581085
		c0.0966339-1.1640778-0.058136-1.531601-0.6356201-1.888855c-1.0457458-0.4393005-2.4866791,0.203476-2.723175-0.663269
		c-0.1587067-1.4062042,0.8084717-0.7736969,2.3044128-1.0899506c0.819458-0.167984,1.0331726-0.6325073,1.0088196-1.8770294
		c-0.0628662-1.6924896-1.2437439-1.7224579-2.2666931-1.6538391c-2.3837585,0.1514282-0.8477631,1.8628387-2.4866943,2.2232513
		c-2.0003357,0.2610626-1.747345-0.7886658-1.7976379-1.3233795c0.0196533-0.9992523,0.0683594-1.3415222,0.6332703-1.7618866
		c0.7786102-0.6143808,2.2101135-0.6325235,4.2065277-0.6175241c1.1227417,0.0118256,4.3204651-0.0378571,4.7219543,2.6033945
		c0.1689148,1.8368073-0.1477051,2.3423462-1.3694458,2.9992981c0.7801819,0.5930939,1.4126587,1.2019348,1.3474426,3.0671387
		C49.8085327,28.1765099,46.3601685,27.9351768,43.4641571,27.8066216"/>
	<path fill="#7F3F98" d="M31.4602051,20.563015h1.0889435c0.7479706,0.0110474,0.9326019,0.7500305,0.910614,1.2090302
		c-0.0086517,0.228714-0.2207794,0.9866333-0.910614,0.9866333l-2.044342-0.0078888
		c-0.6756897-0.0149841-1.0300293-0.33992-1.046524-0.9787445c-0.0149231-0.8075867,0.3708344-1.1490784,1.0528107-1.2090302
		H31.4602051"/>
</g>
<g>
</g>
<g>
</g>
<g>
</g>
<g>
</g>
<g>
</g>
<g>
</g>
</svg>
