<?xml version="1.0" encoding="utf-8"?>
<!-- Generator: Adobe Illustrator 24.1.0, SVG Export Plug-In . SVG Version: 6.00 Build 0)  -->
<svg version="1.1" id="Layer_1" xmlns="http://www.w3.org/2000/svg" xmlns:xlink="http://www.w3.org/1999/xlink" x="0px" y="0px"
	 viewBox="0 0 116.4658508 45.6868286" enable-background="new 0 0 116.4658508 45.6868286" xml:space="preserve">
<rect fill="#FFFFFF" width="110.6129837" height="45.6868286"/>
<path d="M114.0325928,40.2096863c1.3545074,0,2.4332581,1.1065063,2.4332581,2.4874573
	c0,1.4038391-1.0787506,2.4969177-2.4442596,2.4969177c-1.3537292,0-2.4528961-1.0930786-2.4528961-2.4969177
	c0-1.3809509,1.0991669-2.4874573,2.4528961-2.4874573H114.0325928z M114.0215912,40.5969238
	c-1.0897369,0-1.9807129,0.940094-1.9807129,2.1002197c0,1.181427,0.890976,2.1104736,1.9917145,2.1104736
	c1.1030884,0.0118408,1.9822693-0.9290466,1.9822693-2.1002197c0-1.1703796-0.8791809-2.1104736-1.9822693-2.1104736H114.0215912z
	 M113.5580444,44.1451416h-0.4384155v-2.7737427c0.2302094-0.0331421,0.4509735-0.0670471,0.7809601-0.0670471
	c0.4195557,0,0.6945496,0.0883179,0.8587494,0.2105713c0.1649933,0.1206665,0.2537842,0.3083801,0.2537842,0.5741577
	c0,0.3643494-0.2412109,0.585968-0.5405579,0.6751099v0.0220642c0.2443542,0.0426025,0.4101257,0.2634277,0.463562,0.6727295
	c0.0675659,0.431427,0.1312103,0.5970459,0.1759949,0.6861572h-0.4627686
	c-0.0659943-0.0891113-0.1320038-0.3430786-0.1877747-0.707428c-0.0652161-0.354126-0.2420044-0.4866333-0.5924072-0.4866333
	h-0.3111267V44.1451416z M113.5580444,42.6087952h0.3197632c0.3653412,0,0.6733246-0.1316833,0.6733246-0.4755554
	c0-0.2436829-0.1767731-0.4858093-0.6733246-0.4858093c-0.1406403,0-0.2404175,0.0110474-0.3197632,0.0220642V42.6087952z"/>
<path d="M0,45.6868286h110.6506958V0H0V45.6868286z M0.8956757,10.0452881h47.0151978v26.8131714H0.8956757V10.0452881z
	 M97.2501068,44.7286072H0.8948898v-7.0049744h96.355217V44.7286072z M109.6921692,44.7286072H98.1379395v-7.0049744h11.5542297
	V44.7286072z M109.6921692,36.8418884H48.8552704V0.9960938h60.8368988V36.8418884z M3.579567,4.6436768H2.9093781V1.4795532
	h1.0811005c0.2797012,0,0.5342636,0,0.7738953,0.1790161c0.2412033,0.1893005,0.370842,0.4613647,0.370842,0.7886658
	c0,0.3005066-0.0950623,0.604126-0.3095627,0.802887c-0.2459183,0.2263489-0.509903,0.2223816-0.8155365,0.2223816H3.579567
	V4.6436768z M3.9566956,2.8952026c0.1594925,0,0.2914886,0,0.4093399-0.1387939
	C4.4296722,2.6783142,4.457962,2.5765991,4.457962,2.4740601c0-0.1222534-0.0455704-0.2523804-0.1374969-0.3304443
	C4.2159729,2.0552673,4.0761185,2.0552673,3.9519806,2.0552673H3.579567v0.8399353H3.9566956z M7.7358246,4.6436768H7.0129929
	L6.835434,3.9938354H5.9083252L5.727623,4.6436768H5.1375732l0.9216003-3.1641235H6.835434L7.7358246,4.6436768z
	 M6.6814346,3.4117737L6.3765945,2.2997742L6.0701752,3.4117737H6.6814346z M8.8082733,4.6436768H8.1396637V1.4795532h1.2099457
	c0.2545624,0,0.5138397,0.0031433,0.7353973,0.1608887c0.2341309,0.1695557,0.364563,0.4794922,0.364563,0.7878723
	c0,0.3604126-0.1885681,0.6932373-0.4996948,0.8170776l0.5334778,1.3982849H9.7377319L9.29776,3.3936462H8.8082733V4.6436768z
	 M8.8082733,2.8494568h0.3684845c0.1382751,0,0.2891388,0.0134277,0.4109192-0.0646667
	c0.1084137-0.0741272,0.1657715-0.2216187,0.1657715-0.3604126c0-0.1246033-0.0667877-0.2579041-0.16185-0.3233643
	c-0.1131439-0.078064-0.3064117-0.0591431-0.4329071-0.0591431H8.8082733V2.8494568z M11.6351624,2.0923462V2.734314h1.0865936
	v0.595459h-1.0865936v0.7011108h1.3804321v0.612793h-2.0498352V1.4795532h2.0498352v0.612793H11.6351624z M15.6774902,4.6436768
	h-0.5735474l-1.101532-2.1270142h-0.0149231v2.1270142h-0.5193329V1.4795532h0.7236176l0.9577332,1.8588867h0.0078583V1.4795532
	h0.5201263V4.6436768z M18.2191772,2.1057434h-0.719696v2.5379333h-0.6709747V2.1057434h-0.7275391V1.4795532h2.1182098V2.1057434z
	 M20.7357178,4.6436768h-0.7236176l-0.1759949-0.6498413h-0.9286804l-0.1799164,0.6498413h-0.5916138l0.9208069-3.1641235h0.7794037
	L20.7357178,4.6436768z M19.6813202,3.4117737l-0.3056183-1.1119995l-0.3056335,1.1119995H19.6813202z M22.9332581,4.0174866
	v0.6261902H21.108902V1.4795532h0.6701965v2.5379333H22.9332581z M25.6878662,3.5419312V2.9504089h1.1785126v1.6932678h-0.3040466
	l-0.0950775-0.3643494c-0.215271,0.2854919-0.4486237,0.4108887-0.7841034,0.4108887
	c-0.8414612,0-1.1895294-0.7697449-1.1895294-1.6009827c0-0.8580933,0.3818512-1.6570129,1.2468872-1.6570129
	c0.6214752,0,1.0386658,0.4156494,1.1258698,1.0844421l-0.6356049,0.0969849
	c-0.029068-0.3186035-0.1838531-0.585968-0.5059814-0.585968c-0.4729767,0-0.5437012,0.6782532-0.5437012,1.0710144
	c0,0.4100952,0.1045074,0.9913635,0.5735474,0.9913635c0.2922821,0,0.49263-0.2255859,0.4761353-0.5481262H25.6878662z
	 M29.7176208,3.3936462c0,0.3454285,0.0039368,0.7058716-0.2341309,0.9645386
	c-0.2302094,0.2539673-0.5688324,0.3320313-0.8815308,0.3320313c-0.3024902,0-0.649765-0.0504761-0.8799744-0.2720947
	c-0.285202-0.2720947-0.2969818-0.6372375-0.2969818-1.0244751v-1.914093h0.7267609v1.914093
	c0,0.1482849-0.0031433,0.3604126,0.0644226,0.4889832c0.0879974,0.1664124,0.2671356,0.2121582,0.4297638,0.2121582
	c0.1351471,0,0.3315582-0.0457458,0.4156342-0.1703796c0.0919189-0.1435242,0.0785675-0.3643494,0.0785675-0.5307617v-1.914093
	h0.5774689V3.3936462z M30.9872894,4.6436768h-0.6709747V1.4795532h0.6709747V4.6436768z M32.4612274,1.4795532
	c0.4156189,0,0.770752,0.0275879,1.0842438,0.3540955c0.3103333,0.3233643,0.4446869,0.7618713,0.4446869,1.2177124
	c0,0.4251099-0.1178436,0.8359985-0.372406,1.1546021c-0.2859955,0.345459-0.6363983,0.4377136-1.0418243,0.4377136h-0.9459534
	V1.4795532H32.4612274z M32.3001556,4.0490417h0.2262878c0.2781219,0,0.4588318-0.0599365,0.6136169-0.3367615
	c0.1139221-0.2034912,0.1602783-0.448761,0.1602783-0.6837769c0-0.2484436-0.0683594-0.5166016-0.2058563-0.7145386
	c-0.1563416-0.2216187-0.3260498-0.2531738-0.5648956-0.2531738h-0.2294312V4.0490417z M36.7557678,4.6436768h-0.7228394
	l-0.1759796-0.6498413H34.927475l-0.1783447,0.6498413h-0.5908356l0.9223938-3.1641235h0.7762604L36.7557678,4.6436768z
	 M35.7037354,3.4117737l-0.3072052-1.1119995l-0.3048401,1.1119995H35.7037354z M39.3571472,4.6436768h-0.5743256
	l-1.0999603-2.1270142h-0.0149231v2.1270142h-0.5201263V1.4795532h0.7236176l0.9585266,1.8588867h0.0078583V1.4795532h0.5193329
	V4.6436768z M41.6057739,2.7059326c-0.0054932-0.3501587-0.1147156-0.6782532-0.4824066-0.6782532
	c-0.4729767,0-0.5185547,0.6829834-0.5185547,1.0662842c0,0.4329834,0.045578,0.991333,0.5515594,0.991333
	c0.3150482,0,0.4611816-0.2902222,0.4989014-0.594635L42.30896,3.5371704
	c-0.0722809,0.723999-0.5240479,1.1530457-1.1855927,1.1530457c-0.8532562,0-1.2657318-0.7658081-1.2657318-1.6286011
	c0-0.8769836,0.4250488-1.6293945,1.2861633-1.6293945c0.720459,0,1.0897369,0.4606018,1.1651611,1.2224426L41.6057739,2.7059326z
	 M43.4945526,2.0923462V2.734314h1.0858154v0.595459h-1.0858154v0.7011108h1.3796539v0.612793h-2.0506287V1.4795532h2.0506287
	v0.612793H43.4945526z M14.3025513,6.7226257c-0.0840759-0.268158-0.2388458-0.3738403-0.4942017-0.3738403
	c-0.1791382,0-0.3991241,0.0504761-0.3991241,0.2957458c0,0.2303162,0.2529907,0.2862854,0.4148407,0.3170471
	c0.2349243,0.0567932,0.5491943,0.1206665,0.7503204,0.268158c0.2325745,0.1711426,0.3763428,0.4345703,0.3763428,0.7476501
	c0,0.3091736-0.1351318,0.6049194-0.3566895,0.793396c-0.231781,0.198761-0.5444794,0.2586975-0.8304749,0.2586975
	c-0.5413361,0-1.0308075-0.2586975-1.1612396-0.8762207l0.6199036-0.1577148
	c0.0840759,0.3327942,0.3001404,0.4479675,0.5979156,0.4479675c0.1916962,0,0.447052-0.0788879,0.447052-0.3415222
	c0-0.2626038-0.3252716-0.3138733-0.4996948-0.3548889c-0.5114899-0.1159363-1.0135345-0.2815552-1.0135345-0.973999
	c0-0.2949829,0.103714-0.5536499,0.3079834-0.7429199c0.2105713-0.1932373,0.4572754-0.2579041,0.7204742-0.2579041
	c0.5028381,0,0.9113922,0.1932068,1.0881653,0.7421265L14.3025513,6.7226257z M17.6880493,7.7329102
	c0,0.3454285,0.0055084,0.7058411-0.2333527,0.9645386C17.2245026,8.9506226,16.8842926,9.02948,16.570816,9.02948
	c-0.3009186,0-0.6489716-0.0496826-0.8784027-0.2720947c-0.2836304-0.2720947-0.2969818-0.6372375-0.2969818-1.0244751V5.8172302
	h0.7275391v1.9156799c0,0.146698-0.0031433,0.3596191,0.0644226,0.4889832
	c0.0872192,0.1663818,0.2671356,0.2129211,0.4297791,0.2129211c0.1335602,0,0.3307648-0.0465393,0.4148407-0.171936
	c0.0903473-0.1427307,0.0793457-0.3635559,0.0793457-0.5299683V5.8172302h0.5766907V7.7329102z M19.3332672,7.8796082V7.2888794
	h1.1800995v1.6940613h-0.3048553l-0.0958405-0.3643494C19.8973846,8.9048767,19.6648254,9.02948,19.3301239,9.02948
	c-0.8414612,0-1.1895142-0.7705383-1.1895142-1.6010132c0-0.8580627,0.3818359-1.656189,1.2476501-1.656189
	c0.6191254,0,1.038681,0.4148254,1.1251068,1.0852051l-0.6348419,0.0962219
	c-0.0298462-0.318634-0.1846313-0.5867615-0.5059662-0.5867615c-0.4745636,0-0.5452728,0.6790466-0.5452728,1.0710144
	c0,0.4100952,0.1044922,0.9921265,0.5735474,0.9921265c0.2930603,0,0.4934082-0.2263489,0.4776917-0.5504761H19.3332672z
	 M22.171936,7.8796082V7.2888794h1.1800995v1.6940613h-0.3079987l-0.0934906-0.3643494
	C22.7368469,8.9048767,22.5034943,9.02948,22.1687927,9.02948c-0.8414612,0-1.1910858-0.7705383-1.1910858-1.6010132
	c0-0.8580627,0.3826141-1.656189,1.2476501-1.656189c0.6199036,0,1.0394592,0.4148254,1.1266785,1.0852051l-0.6371918,0.0962219
	c-0.0282898-0.318634-0.181488-0.5867615-0.505188-0.5867615c-0.4729919,0-0.5452728,0.6790466-0.5452728,1.0710144
	c0,0.4100952,0.1060638,0.9921265,0.575119,0.9921265c0.2938538,0,0.4934082-0.2263489,0.4753418-0.5504761H22.171936z
	 M24.6209106,6.4324036v0.6411743h1.0873718V7.66745h-1.0873718v0.7026978h1.3812256v0.612793h-2.0514221V5.8172302h2.0514221
	v0.6151733H24.6209106z M27.9074097,6.7226257c-0.0840607-0.268158-0.239624-0.3738403-0.4949799-0.3738403
	c-0.1791382,0-0.3959808,0.0504761-0.3959808,0.2957458c0,0.2303162,0.2498474,0.2862854,0.413269,0.3170471
	c0.2349243,0.0567932,0.5484009,0.1206665,0.7495422,0.268158c0.2333527,0.1711426,0.3763428,0.4345703,0.3763428,0.7476501
	c0,0.3091736-0.1351471,0.6049194-0.3559113,0.793396C27.9694824,8.9695435,27.6567841,9.02948,27.3676453,9.02948
	c-0.5405426,0-1.0292358-0.2586975-1.1604462-0.8762207l0.6199036-0.1577148
	c0.0848541,0.3327942,0.3024902,0.4479675,0.5986938,0.4479675c0.1924896,0,0.4478302-0.0788879,0.4478302-0.3415222
	c0-0.2626038-0.3260498-0.3138733-0.5012665-0.3548889c-0.5106964-0.1159363-1.0143127-0.2815552-1.0143127-0.973999
	c0-0.2949829,0.1052856-0.5536499,0.3111267-0.7429199c0.2089996-0.1932373,0.4564819-0.2579041,0.719696-0.2579041
	c0.5020447,0,0.911377,0.1932068,1.0865936,0.7421265L27.9074097,6.7226257z M30.9550781,6.4458008h-0.719696v2.5371399h-0.6693878
	V6.4458008h-0.7283325V5.8172302h2.1174164V6.4458008z M32.0479584,6.4324036v0.6411743h1.0881653V7.66745h-1.0881653v0.7026978
	h1.3796539v0.612793h-2.0482788V5.8172302h2.0482788v0.6151733H32.0479584z M34.707489,5.8172302
	c0.413269,0,0.7699738,0.0275879,1.0826721,0.3548889c0.3095551,0.3249512,0.4431152,0.7618713,0.4431152,1.2185059
	c0,0.4250793-0.1154938,0.836792-0.3700562,1.1546021C35.57724,8.891449,35.224472,8.9829407,34.8206329,8.9829407h-0.9467468
	V5.8172302H34.707489z M34.5432892,8.3882751h0.2254791c0.2804871,0,0.4611969-0.0599365,0.6151886-0.3375244
	C35.497879,7.848053,35.543457,7.6035767,35.543457,7.3685303c0-0.2492065-0.0659943-0.516571-0.2058563-0.7153015
	c-0.1539917-0.2208252-0.3252716-0.2539673-0.5648956-0.2539673h-0.2294159V8.3882751z"/>
<g>
	<path d="M103.8686981,39.1652527c-2.7758179,0-5.0267944,1.016571-5.0267944,2.2697754
		c0,1.2539978,2.2509766,2.2713623,5.0267944,2.2713623c2.7750244,0,5.0267944-1.0173645,5.0267944-2.2713623
		C108.8954926,40.1818237,106.6437225,39.1652527,103.8686981,39.1652527 M108.5403595,41.2749329h-0.9239502
		c-0.0612946-0.5410156-0.439209-1.0299988-1.0190277-1.3999023
		C107.6816101,40.2007751,108.4209442,40.7118225,108.5403595,41.2749329 M107.2761993,41.2749329h-1.1533813
		c-0.0447845-0.6388245-0.3488312-1.2042847-0.8123932-1.5899658
		C106.3962402,39.970459,107.1732788,40.5690613,107.2761993,41.2749329 M103.8686981,43.3672791
		c-1.0630188,0-1.9249115-0.8643799-1.9249115-1.932251c0-1.0670776,0.8618927-1.9314575,1.9249115-1.9314575
		c1.0622406,0,1.9264984,0.8643799,1.9264984,1.9314575C105.7951965,42.5028992,104.9309387,43.3672791,103.8686981,43.3672791
		 M101.6138,41.2749329h-1.1526031c0.1029205-0.7058716,0.8799591-1.3044739,1.966568-1.5899658
		C101.9649963,40.0706482,101.6577911,40.6361084,101.6138,41.2749329 M101.1400299,39.8750305
		c-0.5814056,0.3699036-0.9561768,0.8588867-1.0205994,1.3999023h-0.9216003
		C99.3172455,40.7118225,100.0557861,40.2007751,101.1400299,39.8750305 M99.2009735,41.6140747h0.9216003
		c0.0691376,0.5331116,0.4431152,1.0157776,1.0174561,1.3833008
		C100.0659943,42.6732483,99.3321686,42.1708679,99.2009735,41.6140747 M100.4619904,41.6140747h1.1533813
		c0.0479279,0.6317139,0.3535461,1.1908875,0.8123932,1.5718079
		C101.3490143,42.901947,100.5774841,42.3128357,100.4619904,41.6140747 M106.122818,41.6140747h1.1510315
		c-0.1123505,0.698761-0.8870392,1.2878723-1.9649963,1.5718079
		C105.7677002,42.8049622,106.0733185,42.2457886,106.122818,41.6140747 M106.5973816,42.996582
		c0.5758972-0.3667297,0.9483032-0.8493958,1.0182343-1.3825073h0.9200287
		C108.4060059,42.1708679,107.671402,42.6732483,106.5973816,42.996582"/>
	<path d="M103.595047,41.4354248c0-0.1466675,0.1186371-0.2657776,0.2663422-0.2657776
		c0.1437836,0,0.2631989,0.1191101,0.2631989,0.2657776c0,0.146698-0.1194153,0.266571-0.2631989,0.266571
		C103.7136841,41.7019958,103.595047,41.5821228,103.595047,41.4354248"/>
	<path d="M103.8690186,40.2685852l0.3543396-0.3525085c-0.2176361-0.2208252-0.49263-0.2208252-0.7102661,0L103.8690186,40.2685852z
		"/>
	<path d="M104.1512451,40.6841431c0-0.2720642,0.2207642-0.4936829,0.4926147-0.4936829
		c0.2726288,0,0.4934082,0.2216187,0.4934082,0.4936829c0,0.2736816-0.2207794,0.4953003-0.4934082,0.4953003
		C104.3720093,41.1794434,104.1512451,40.9578247,104.1512451,40.6841431"/>
	<path d="M102.5959778,40.6841431c0-0.2720642,0.219986-0.4936829,0.4918365-0.4936829
		c0.2718353,0,0.4918365,0.2216187,0.4918365,0.4936829c0,0.2736816-0.2200012,0.4953003-0.4918365,0.4953003
		C102.8159637,41.1794434,102.5959778,40.9578247,102.5959778,40.6841431"/>
	<path d="M102.623642,42.2140808c0-0.2720642,0.2191925-0.4944763,0.4918365-0.4944763
		c0.2718353,0,0.4934082,0.2224121,0.4934082,0.4944763c0,0.2720947-0.2215729,0.4937134-0.4934082,0.4937134
		C102.8428345,42.7077942,102.623642,42.4861755,102.623642,42.2140808"/>
	<path d="M104.110611,42.2052307c0-0.2736511,0.219986-0.4952698,0.4926147-0.4952698s0.49263,0.2216187,0.49263,0.4952698
		c0,0.2720947-0.2200012,0.4937134-0.49263,0.4937134S104.110611,42.4773254,104.110611,42.2052307"/>
	<path d="M103.8613281,42.5891724l-0.3567047,0.354126c0.2168427,0.2200317,0.4918365,0.2200317,0.7094727,0L103.8613281,42.5891724
		z"/>
	<path d="M104.9967957,41.4381104l0.3519745,0.3572693c0.2207794-0.2200317,0.2207794-0.4952698,0-0.7145081L104.9967957,41.4381104
		z"/>
	<path d="M102.703537,41.4381104l-0.3519897,0.3572693c-0.2200012-0.2200317-0.2200012-0.4952698,0-0.7145081L102.703537,41.4381104
		z"/>
</g>
<g>
	<path d="M4.2507782,40.2401123c-0.0832825-0.3186035-0.2396393-0.4440002-0.4965515-0.4440002
		c-0.179924,0-0.4007034,0.0599365-0.4007034,0.3501587c0,0.2744751,0.2537766,0.3414917,0.4171982,0.379364
		c0.2364883,0.0662537,0.5515518,0.1427307,0.7542572,0.3186035c0.2357025,0.2034912,0.3794861,0.5158081,0.3794861,0.8904114
		c0,0.3675232-0.1343536,0.7208557-0.3582764,0.9448242c-0.2317734,0.2358093-0.5484009,0.3075867-0.8391037,0.3075867
		c-0.5429077,0-1.0363159-0.3075867-1.1683121-1.043396l0.6254044-0.1877136
		c0.0840683,0.3959045,0.3032761,0.5331421,0.6034012,0.5331421c0.1924973,0,0.4501953-0.0930786,0.4501953-0.4061584
		c0-0.3131104-0.3292007-0.3738403-0.5067596-0.4235229c-0.5146255-0.1364441-1.020607-0.3344116-1.020607-1.1585693
		c0-0.3525085,0.1060715-0.6593018,0.312706-0.8840942c0.2113495-0.2318726,0.4596252-0.3083496,0.7259674-0.3083496
		c0.5059814,0,0.9184647,0.2318726,1.0952454,0.8848877L4.2507782,40.2401123z"/>
	<path d="M7.267868,41.55896c0,0.7957458-0.4006958,1.4282837-1.0323868,1.4282837
		c-0.6576157,0-1.0158844-0.647522-1.0158844-1.4559021c0-0.8131104,0.361412-1.4456177,1.0158844-1.4456177
		C6.9056702,40.0857239,7.267868,40.7332153,7.267868,41.55896 M5.8858566,41.4493103
		c0,0.318634-0.004715,1.000061,0.3496246,1.000061c0.3496246,0,0.3669128-0.5497131,0.3669128-0.8848877
		c0-0.2192688-0.0094299-0.4834595-0.0675659-0.6932678c-0.051857-0.181366-0.1524277-0.2523499-0.2954178-0.2523499
		C5.9054947,40.618866,5.8858566,41.1299133,5.8858566,41.4493103"/>
	<path d="M8.2275848,40.1407471v0.4290466h0.0094223c0.1100006-0.3304443,0.3158493-0.4834595,0.5939713-0.4834595
		c0.2828522,0,0.4611969,0.1530151,0.5876923,0.4834595c0.1068573-0.3304443,0.3559113-0.4834595,0.6222534-0.4834595
		c0.1893616,0,0.3959961,0.0875549,0.5224915,0.2855225c0.1437683,0.2192383,0.1131287,0.5386353,0.1131287,0.8194275v1.7405701
		h-0.6183319v-1.4763794c0-0.1119995,0.0086517-0.3856506-0.0133514-0.4897766
		c-0.0330048-0.1758728-0.1335602-0.2263489-0.2647705-0.2263489c-0.1100006,0-0.2247162,0.0828247-0.2702789,0.2145386
		c-0.0463562,0.1324768-0.0424347,0.3525391-0.0424347,0.5015869v1.4763794H8.8466949v-1.4763794
		c0-0.2926025,0.0432129-0.7216187-0.2773438-0.7216187c-0.3252716,0-0.3126984,0.4187622-0.3126984,0.7216187v1.4763794H7.6383209
		v-2.7911072H8.2275848z"/>
	<path d="M11.7116852,41.6742249l-0.004715,0.1372375c0,0.3288879,0.1445618,0.5993958,0.4148407,0.5993958
		c0.1901245,0,0.3786926-0.1821899,0.3786926-0.4393005l0.5711975,0.0536499c0,0.1380005-0.2474976,0.9621582-0.9711151,0.9621582
		c-0.6411133,0-1.0583038-0.5828247-1.0583038-1.4125061c0-0.8233643,0.3747711-1.4890137,1.0410309-1.4890137
		c0.2977753,0,0.6065369,0.1758728,0.7841034,0.4945068c0.1767731,0.318634,0.2223511,0.7145386,0.2184143,1.0938721H11.7116852z
		 M12.4659424,41.1962891c-0.0125732-0.3020325-0.0879974-0.5828247-0.3574982-0.5828247
		c-0.2749786,0-0.3786926,0.2626343-0.401474,0.5828247H12.4659424z"/>
	<polygon points="16.5868378,42.9318237 16.1224976,42.9318237 15.4200897,39.8615417 15.4122314,39.8615417 15.4122314,42.9318237 
		14.8410492,42.9318237 14.8410492,39.1627808 15.899353,39.1627808 16.4061279,41.4207458 16.9372406,39.1627808 
		17.9955597,39.1627808 17.9955597,42.9318237 17.3214417,42.9318237 17.3214417,39.8615417 17.3041534,39.8615417 	"/>
	<path d="M19.84758,42.9320068c-0.0259247-0.1427612-0.033783-0.2902222-0.0298615-0.4337769
		c-0.1767731,0.3296814-0.3637695,0.4889832-0.6827545,0.4889832c-0.3786926,0-0.6733246-0.2649841-0.6733246-0.7910461
		c0-0.4124756,0.1979828-0.6932373,0.480835-0.8296814c0.2419891-0.1222229,0.584549-0.1435242,0.8469696-0.1758728v-0.0662231
		c0-0.1199036,0.0086365-0.2634277-0.0550079-0.3675232c-0.0573578-0.0938721-0.1594849-0.1317139-0.2545624-0.1317139
		c-0.1979828,0-0.3692627,0.1317139-0.3692627,0.4061584l-0.5876923-0.0717773
		c0.0644226-0.6766663,0.5704041-0.8738403,1.0213776-0.8738403c0.2200012,0,0.5067749,0.0670471,0.6796265,0.2547607
		c0.2192078,0.2294922,0.1979828,0.5354919,0.1979828,0.8722534v1.302887c0,0.1419678,0.0070801,0.2799683,0.0424347,0.4164124
		H19.84758z M19.789444,41.5975647c-0.2372894,0.0323486-0.6709747,0.104126-0.6709747,0.5102844
		c0,0.2200317,0.1005554,0.3683167,0.2742004,0.3683167c0.1257019,0,0.2404175-0.0883484,0.3119202-0.2310791
		c0.0887756-0.1758728,0.0848541-0.3399353,0.0848541-0.5378723V41.5975647z"/>
	<path d="M22.1104279,40.7784424h-0.458847v1.1096802c0,0.3682861,0.0212097,0.4511108,0.2867737,0.4511108
		c0.0549927,0,0.1343536-0.0118408,0.2058563-0.0228577v0.6104126c-0.1225739,0.0386353-0.2734222,0.0599365-0.388916,0.0599365
		c-0.1767883,0-0.4124908-0.0331116-0.550766-0.1813965c-0.1744232-0.1869202-0.1744232-0.5220947-0.1744232-0.7965393v-1.2303467
		H20.680481v-0.6427612h0.3755493l0.0557861-0.8194275l0.5397644-0.0536194v0.8730469h0.458847V40.7784424z"/>
	<path d="M23.0879517,41.6742249l-0.0054932,0.1372375c0,0.3288879,0.1445618,0.5993958,0.4140472,0.5993958
		c0.1901398,0,0.3779144-0.1821899,0.3779144-0.4393005l0.5727692,0.0536499c0,0.1380005-0.2474976,0.9621582-0.9726868,0.9621582
		c-0.6403198,0-1.0567322-0.5828247-1.0567322-1.4125061c0-0.8233643,0.3739777-1.4890137,1.0410309-1.4890137
		c0.2993469,0,0.6073303,0.1758728,0.7833252,0.4945068c0.1783447,0.318634,0.2231293,0.7145386,0.2184143,1.0938721H23.0879517z
		 M23.8414307,41.1962891c-0.0133667-0.3020325-0.0872192-0.5828247-0.3574982-0.5828247
		c-0.2749786,0-0.3786926,0.2626343-0.401474,0.5828247H23.8414307z"/>
	<path d="M25.462616,40.1407471v0.5228882h0.0102081c0.062851-0.2973022,0.1869965-0.6048889,0.4580536-0.577301
		l0.1052856,0.0110474v0.8075867c-0.4714203-0.0331116-0.5311279,0.4661255-0.5311279,0.9613953v1.0654907h-0.6191101v-2.7911072
		H25.462616z"/>
	<path d="M26.9716644,39.888031h-0.6183319v-0.7800293h0.6183319V39.888031z M26.9716644,42.9323425h-0.6183319v-2.7910156
		h0.6183319V42.9323425z"/>
	<path d="M28.7793579,42.9320068c-0.0251312-0.1427612-0.0329895-0.2902222-0.029068-0.4337769
		c-0.1767731,0.3296814-0.3637695,0.4889832-0.6827545,0.4889832c-0.3779144,0-0.6733246-0.2649841-0.6733246-0.7910461
		c0-0.4124756,0.1972046-0.6932373,0.4792633-0.8296814c0.2435608-0.1222229,0.5853271-0.1435242,0.8469696-0.1758728v-0.0662231
		c0-0.1199036,0.0086365-0.2634277-0.0550079-0.3675232c-0.0557861-0.0938721-0.1587067-0.1317139-0.2537689-0.1317139
		c-0.1972046,0-0.3700562,0.1317139-0.3700562,0.4061584l-0.5861206-0.0717773
		c0.0636444-0.6766663,0.5688324-0.8738403,1.0198059-0.8738403c0.2200012,0,0.5075531,0.0670471,0.6796265,0.2547607
		c0.2184143,0.2294922,0.1979828,0.5354919,0.1979828,0.8722534v1.302887c0,0.1419678,0.0078583,0.2799683,0.0424347,0.4164124
		H28.7793579z M28.7204437,41.5975647c-0.2349243,0.0323486-0.6701965,0.104126-0.6701965,0.5102844
		c0,0.2200317,0.1005707,0.3683167,0.2726288,0.3683167c0.128067,0,0.2404175-0.0883484,0.3127136-0.2310791
		c0.0903473-0.1758728,0.0848541-0.3399353,0.0848541-0.5378723V41.5975647z"/>
	<rect x="29.8229065" y="39.164032" width="0.6206818" height="3.769165"/>
	<polygon points="34.0630035,42.9318237 33.5978699,42.9318237 32.8946838,39.8615417 32.887619,39.8615417 32.887619,42.9318237 
		32.317215,42.9318237 32.317215,39.1627808 33.3747406,39.1627808 33.8822937,41.4207458 34.4134064,39.1627808 
		35.470932,39.1627808 35.470932,42.9318237 34.7968292,42.9318237 34.7968292,39.8615417 34.779541,39.8615417 	"/>
	<path d="M37.3221588,42.9320068c-0.024353-0.1427612-0.033783-0.2902222-0.029068-0.4337769
		c-0.1767883,0.3296814-0.3621979,0.4889832-0.6819763,0.4889832c-0.3794861,0-0.6733246-0.2649841-0.6733246-0.7910461
		c0-0.4124756,0.1972046-0.6932373,0.4800415-0.8296814c0.2427826-0.1222229,0.5853424-0.1435242,0.8461914-0.1758728v-0.0662231
		c0-0.1199036,0.0086365-0.2634277-0.0542145-0.3675232c-0.0557861-0.0938721-0.1595001-0.1317139-0.2529907-0.1317139
		c-0.1987762,0-0.3700562,0.1317139-0.3700562,0.4061584l-0.5876923-0.0717773
		c0.0636444-0.6766663,0.5696106-0.8738403,1.0205994-0.8738403c0.219986,0,0.5075531,0.0670471,0.6796112,0.2547607
		c0.2168579,0.2294922,0.1972046,0.5354919,0.1972046,0.8722534v1.302887c0,0.1419678,0.0070801,0.2799683,0.0424347,0.4164124
		H37.3221588z M37.2640228,41.5975647c-0.2357178,0.0323486-0.6709747,0.104126-0.6709747,0.5102844
		c0,0.2200317,0.1005554,0.3683167,0.2749786,0.3683167c0.1257172,0,0.2412109-0.0883484,0.3119202-0.2310791
		c0.0887756-0.1758728,0.0840759-0.3399353,0.0840759-0.5378723V41.5975647z"/>
	<path d="M39.3625031,42.7558899c-0.1602936,0.6317444-0.2443542,1.1483154-0.8516846,1.1483154
		c-0.1005707,0-0.202713-0.0102539-0.3032684-0.0323181v-0.6325378c0.1076355,0.0228882,0.2074127,0.0394287,0.3119049,0.0394287
		c0.2066345,0,0.2859955-0.0835876,0.3409882-0.3469849l-0.7793884-2.7903137h0.6701813l0.4093323,1.6585693l0.3920593-1.6585693
		h0.4627686L39.3625031,42.7558899z"/>
	<polygon points="43.9039764,42.9318237 43.3272858,42.9318237 42.2178955,40.3994141 42.202179,40.3994141 42.202179,42.9318237 
		41.6781311,42.9318237 41.6781311,39.1627808 42.4088135,39.1627808 43.3728485,41.3773804 43.3822784,41.3773804 
		43.3822784,39.1627808 43.9039764,39.1627808 	"/>
	<path d="M46.4116364,41.55896c0,0.7957458-0.4006958,1.4282837-1.0339661,1.4282837
		c-0.657608,0-1.0158844-0.647522-1.0158844-1.4559021c0-0.8131104,0.3621979-1.4456177,1.0158844-1.4456177
		C46.048645,40.0857239,46.4116364,40.7332153,46.4116364,41.55896 M45.0272675,41.4493103
		c0,0.318634-0.0031433,1.000061,0.3504028,1.000061c0.3504181,0,0.3677063-0.5497131,0.3677063-0.8848877
		c0-0.2192688-0.0094299-0.4834595-0.0683594-0.6932678c-0.0494995-0.181366-0.1508484-0.2523499-0.294632-0.2523499
		C45.0492554,40.618866,45.0272675,41.1299133,45.0272675,41.4493103"/>
	<path d="M48.0249634,40.7784424h-0.4596252v1.1096802c0,0.3682861,0.0204163,0.4511108,0.2859802,0.4511108
		c0.0557861,0,0.1343536-0.0118408,0.207428-0.0228577v0.6104126c-0.1225739,0.0386353-0.2749939,0.0599365-0.388916,0.0599365
		c-0.1775665,0-0.4140625-0.0331116-0.5515442-0.1813965c-0.1720734-0.1869202-0.1720734-0.5220947-0.1720734-0.7965393v-1.2303467
		H46.594223v-0.6427612h0.3763428l0.0557861-0.8194275l0.5389862-0.0536194v0.8730469h0.4596252V40.7784424z"/>
	<path d="M51.1077271,39.1638184c0.227066,0,0.4643402,0,0.662323,0.163269
		c0.231781,0.1932068,0.3543549,0.4676819,0.3543549,0.8257446c0,0.4282227-0.2176361,0.7129517-0.5232697,0.8131104v0.0102539
		c0.359848,0.0930481,0.604187,0.4503174,0.604187,0.9385071c0,0.3304443-0.1532135,0.620697-0.3551331,0.8139038
		c-0.2089844,0.2034912-0.4934082,0.2034912-0.7424622,0.2034912h-1.2940216v-3.76828H51.1077271z M50.4886169,40.6575623h0.4588318
		c0.1186371,0,0.2584839,0.0102539,0.3582764-0.0875244c0.0809174-0.0765076,0.1233521-0.2153015,0.1233521-0.3399353
		c0-0.1380005-0.0510712-0.2697144-0.144577-0.3422852c-0.0958557-0.0701904-0.2726288-0.0536194-0.3865509-0.0536194h-0.4093323
		V40.6575623z M50.4886169,42.2348938h0.4674683c0.1233521,0,0.2781372,0.0102539,0.3834229-0.0820007
		c0.0974121-0.0828247,0.1508484-0.2381897,0.1508484-0.3911743c0-0.1427612-0.0652161-0.2910156-0.1634216-0.362793
		c-0.0966492-0.0709839-0.231781-0.0709839-0.3409882-0.0709839h-0.4973297V42.2348938z"/>
	<path d="M53.1464233,41.6742249L53.14328,41.8114624c0,0.3288879,0.1437683,0.5993958,0.4124756,0.5993958
		c0.1885681,0,0.3794861-0.1821899,0.3794861-0.4393005l0.5735474,0.0536499c0,0.1380005-0.2482758,0.9621582-0.9750366,0.9621582
		c-0.6395416,0-1.0567322-0.5828247-1.0567322-1.4125061c0-0.8233643,0.3739777-1.4890137,1.0418091-1.4890137
		c0.2985687,0,0.6073303,0.1758728,0.7833252,0.4945068s0.2223511,0.7145386,0.2192078,1.0938721H53.1464233z
		 M53.9022522,41.1962891c-0.0141449-0.3020325-0.0887909-0.5828247-0.359848-0.5828247
		c-0.2749939,0-0.3779144,0.2626343-0.3991241,0.5828247H53.9022522z"/>
	<path d="M57.7362976,40.2401123c-0.0848541-0.3186035-0.2412109-0.4440002-0.4981232-0.4440002
		c-0.1815033,0-0.4022827,0.0599365-0.4022827,0.3501587c0,0.2744751,0.2545624,0.3414917,0.4187775,0.379364
		c0.2364807,0.0662537,0.5531158,0.1427307,0.7542572,0.3186035c0.2364807,0.2034912,0.3786926,0.5158081,0.3786926,0.8904114
		c0,0.3675232-0.1335602,0.7208557-0.3567047,0.9448242c-0.2325592,0.2358093-0.5476074,0.3075867-0.8383179,0.3075867
		c-0.5436859,0-1.0378876-0.3075867-1.1690979-1.043396l0.625412-0.1877136
		c0.0840607,0.3959045,0.3032684,0.5331421,0.6026154,0.5331421c0.1924896,0,0.4486237-0.0930786,0.4486237-0.4061584
		c0-0.3131104-0.3276367-0.3738403-0.5036163-0.4235229c-0.5154114-0.1364441-1.0213928-0.3344116-1.0213928-1.1585693
		c0-0.3525085,0.1060638-0.6593018,0.3134918-0.8840942c0.210556-0.2318726,0.4580536-0.3083496,0.725174-0.3083496
		c0.5052032,0,0.9176788,0.2318726,1.0960388,0.8848877L57.7362976,40.2401123z"/>
	<path d="M60.0649109,42.9318237v-0.4771423h-0.0086517c-0.1005707,0.3501892-0.318985,0.5323792-0.6112518,0.5323792
		c-0.2144928,0-0.4014893-0.06073-0.5224915-0.3131104c-0.1186371-0.241333-0.1052704-0.5055542-0.1052704-0.7744751v-1.758728
		h0.6199036v1.758728c0,0.2255554,0.0164948,0.43927,0.2364807,0.43927c0.1382904,0,0.2553558-0.1040955,0.3103485-0.2689209
		c0.0424194-0.1261902,0.0353546-0.2854919,0.0353546-0.4290466v-1.5000305h0.6191254v2.7910767H60.0649109z"/>
	<path d="M61.7679291,39.888031h-0.6199036v-0.7800293h0.6199036V39.888031z M61.7679291,42.9323425h-0.6199036v-2.7910156
		h0.6199036V42.9323425z"/>
	<path d="M63.5114594,40.7784424h-0.4596252v1.1096802c0,0.3682861,0.0212097,0.4511108,0.2859802,0.4511108
		c0.0549927,0,0.1351318-0.0118408,0.2082062-0.0228577v0.6104126c-0.1225586,0.0386353-0.2749939,0.0599365-0.388916,0.0599365
		c-0.1767731,0-0.413269-0.0331116-0.5499725-0.1813965c-0.1752014-0.1869202-0.1752014-0.5220947-0.1752014-0.7965393v-1.2303467
		h-0.3496399v-0.6427612h0.3739929l0.0557861-0.8194275l0.5397644-0.0536194v0.8730469h0.4596252V40.7784424z"/>
	<path d="M65.2254181,42.9320068c-0.024353-0.1427612-0.0330048-0.2902222-0.0298615-0.4337769
		c-0.1759949,0.3296814-0.3614044,0.4889832-0.6827545,0.4889832c-0.3794861,0-0.6748962-0.2649841-0.6748962-0.7910461
		c0-0.4124756,0.2003479-0.6932373,0.4816132-0.8296814c0.2443542-0.1222229,0.5869141-0.1435242,0.8477631-0.1758728v-0.0662231
		c0-0.1199036,0.0070648-0.2634277-0.0550079-0.3675232c-0.0549927-0.0938721-0.1587067-0.1317139-0.2529907-0.1317139
		c-0.1979828,0-0.3700562,0.1317139-0.3700562,0.4061584l-0.5868988-0.0717773
		c0.0644226-0.6766663,0.5704041-0.8738403,1.0205994-0.8738403c0.2192078,0,0.5044098,0.0670471,0.6796112,0.2547607
		c0.2176361,0.2294922,0.1972046,0.5354919,0.1972046,0.8722534v1.302887c0,0.1419678,0.0070801,0.2799683,0.0424347,0.4164124
		H65.2254181z M65.1672821,41.5975647c-0.2372894,0.0323486-0.6701965,0.104126-0.6701965,0.5102844
		c0,0.2200317,0.0997772,0.3683167,0.2726288,0.3683167c0.1272888,0,0.2419891-0.0883484,0.3134918-0.2310791
		c0.0879974-0.1758728,0.0840759-0.3399353,0.0840759-0.5378723V41.5975647z"/>
	<path d="M66.2727356,39.1637268h0.6206818v1.3289185h0.0180664c0.1052856-0.2744446,0.2820587-0.4069519,0.5224915-0.4069519
		c0.6096802,0,0.7958832,0.7902527,0.7958832,1.4511414c0,0.7311096-0.2231293,1.4503784-0.8681793,1.4503784
		c-0.3087616,0-0.4556885-0.1490784-0.6112518-0.4842529c-0.0762177,0.1206665-0.1013489,0.2807617-0.1398468,0.4298401h-0.3378448
		V39.1637268z M66.9020691,41.7615967c0,0.1538086,0.0039215,0.3288879,0.0714874,0.4669189
		c0.0589294,0.1214294,0.1477051,0.1932068,0.2631989,0.1932068c0.3488464,0,0.3488464-0.5836182,0.3488464-0.8848877
		c0-0.3138733,0-0.8951416-0.3409882-0.8951416c-0.2985535,0-0.3425446,0.4227295-0.3425446,0.7192688V41.7615967z"/>
	<rect x="68.5970764" y="39.164032" width="0.6175537" height="3.769165"/>
	<path d="M70.285675,41.6742249l-0.004715,0.1372375c0,0.3288879,0.1429901,0.5993958,0.4140472,0.5993958
		c0.1885681,0,0.3787079-0.1821899,0.3787079-0.4393005l0.5719757,0.0536499c0,0.1380005-0.2474976,0.9621582-0.9718933,0.9621582
		c-0.6411133,0-1.0575256-0.5828247-1.0575256-1.4125061c0-0.8233643,0.3739777-1.4890137,1.0402374-1.4890137
		c0.3001404,0,0.6057587,0.1758728,0.7848969,0.4945068c0.1759949,0.318634,0.2223511,0.7145386,0.2192078,1.0938721H70.285675z
		 M71.0399323,41.1962891c-0.0133667-0.3020325-0.0879974-0.5828247-0.3574982-0.5828247
		c-0.2749786,0-0.3794861,0.2626343-0.401474,0.5828247H71.0399323z"/>
	<path d="M74.059082,42.9318237h-0.6199036v-2.0939026h-0.2474976V40.211731h0.2474976
		c0-0.2397766-0.0078583-0.5323792,0.0989838-0.7413635c0.1288605-0.2523804,0.3739929-0.3675232,0.6026306-0.3675232
		c0.0502777,0,0.2239075,0.0047302,0.3543396,0.0378723v0.6206665c-0.0935059-0.0157776-0.1390686-0.0157776-0.2357025-0.0157776
		c-0.2003479,0-0.2003479,0.1703491-0.2003479,0.4069519v0.0591736h0.3810425v0.6261902H74.059082V42.9318237z"/>
	<path d="M76.6258087,41.55896c0,0.7957458-0.3999023,1.4282837-1.0323792,1.4282837
		c-0.6576233,0-1.0158844-0.647522-1.0158844-1.4559021c0-0.8131104,0.3621979-1.4456177,1.0158844-1.4456177
		C76.2644043,40.0857239,76.6258087,40.7332153,76.6258087,41.55896 M75.2438049,41.4493103
		c0,0.318634-0.004715,1.000061,0.3496246,1.000061c0.3504028,0,0.3669128-0.5497131,0.3669128-0.8848877
		c0-0.2192688-0.0094299-0.4834595-0.0675659-0.6932678c-0.050293-0.181366-0.1524353-0.2523499-0.2962036-0.2523499
		C75.2626495,40.618866,75.2438049,41.1299133,75.2438049,41.4493103"/>
	<path d="M77.615387,40.1407471v0.5228882h0.0094147c0.0628662-0.2973022,0.1885681-0.6048889,0.4580536-0.577301
		l0.1060791,0.0110474v0.8075867c-0.4721985-0.0331116-0.5311279,0.4661255-0.5311279,0.9613953v1.0654907h-0.6191101v-2.7911072
		H77.615387z"/>
	<path d="M81.4793701,40.6248169c-0.004715-0.4179688-0.1139374-0.8075867-0.4847717-0.8075867
		c-0.4776917,0-0.521698,0.8123474-0.521698,1.2689819c0,0.516571,0.0440063,1.181427,0.5546875,1.181427
		c0.3166351,0,0.4651337-0.3462219,0.5020599-0.7082214l0.6584015,0.0536194
		c-0.0715027,0.862793-0.5271912,1.3738708-1.1934509,1.3738708c-0.8595428,0-1.2767334-0.9117126-1.2767334-1.9385681
		c0-1.0441895,0.4297638-1.9401245,1.2971649-1.9401245c0.7267456,0,1.0968018,0.5489197,1.1730194,1.4559021L81.4793701,40.6248169
		z"/>
	<path d="M84.4755707,42.9318237h-0.6214752v-1.5055542c0-0.241333,0.0219879-0.6971741-0.2474976-0.6971741
		c-0.1139221,0-0.2435608,0.0701904-0.2938385,0.2089844c-0.0573578,0.1482849-0.0573578,0.3241577-0.0573578,0.4881897v1.5055542
		h-0.6191254v-3.769043h0.6191254v1.3628235h0.0094299c0.0817108-0.2799683,0.3244781-0.43927,0.5570374-0.43927
		c0.1972198,0,0.4085541,0.0875244,0.5358429,0.3020325c0.1312103,0.2200623,0.1178589,0.4992371,0.1178589,0.7689514V42.9318237z"
		/>
	<path d="M85.5960999,39.888031h-0.6206818v-0.7800293h0.6206818V39.888031z M85.5960999,42.9323425h-0.6206818v-2.7910156
		h0.6206818V42.9323425z"/>
	<rect x="86.1217041" y="39.164032" width="0.6191101" height="3.769165"/>
	<path d="M88.5112915,42.9316101v-0.4329529h-0.0110016c-0.1178589,0.2957458-0.294632,0.4881592-0.5688324,0.4881592
		c-0.6018372,0-0.7699738-0.7697144-0.7699738-1.4172363c0-0.6640625,0.1587067-1.48349,0.782547-1.48349
		c0.2404175,0,0.4006958,0.0946655,0.5366211,0.3509827v-1.2729187h0.6198883v3.7674561H88.5112915z M88.4806519,41.3826599
		c0-0.2681274-0.01651-0.7310791-0.2993469-0.7310791c-0.3535614,0-0.3669128,0.6049194-0.3669128,0.940094
		c0,0.302063,0.033783,0.8131104,0.3417664,0.8131104c0.1123505,0,0.2176361-0.0993652,0.2694855-0.2255554
		c0.0510712-0.1261902,0.0550079-0.2736816,0.0550079-0.4116821V41.3826599z"/>
	<path d="M90.1870728,40.1407471v0.5228882h0.0070648c0.0644226-0.2973022,0.1901398-0.6048889,0.4604034-0.577301
		l0.1052856,0.0110474v0.8075867c-0.4721985-0.0331116-0.5319061,0.4661255-0.5319061,0.9613953v1.0654907H89.608017v-2.7911072
		H90.1870728z"/>
	<path d="M91.6179504,41.6742249l-0.004715,0.1372375c0,0.3288879,0.1453552,0.5993958,0.4148407,0.5993958
		c0.1901398,0,0.3794861-0.1821899,0.3794861-0.4393005l0.5719757,0.0536499c0,0.1380005-0.2498474,0.9621582-0.9726715,0.9621582
		c-0.6419067,0-1.0575256-0.5828247-1.0575256-1.4125061c0-0.8233643,0.3739777-1.4890137,1.0402374-1.4890137
		c0.2993469,0,0.6073303,0.1758728,0.7841187,0.4945068c0.1759796,0.318634,0.2215576,0.7145386,0.2184143,1.0938721H91.6179504z
		 M92.3730011,41.1962891c-0.0133667-0.3020325-0.0879974-0.5828247-0.3574982-0.5828247
		c-0.2757721,0-0.3802643,0.2626343-0.4022675,0.5828247H92.3730011z"/>
	<path d="M93.3796234,40.1407471h0.5861053v0.4724426h0.0078583c0.1264954-0.3572693,0.3032837-0.5268555,0.6151886-0.5268555
		c0.2034912,0,0.4030609,0.0820313,0.5271912,0.3067932c0.1178589,0.2098083,0.1178589,0.5607605,0.1178589,0.8131409v1.7255859
		h-0.620697v-1.500824c0-0.284729,0.0298615-0.7019348-0.2796936-0.7019348c-0.1123505,0-0.2121429,0.0820313-0.2624207,0.2090149
		c-0.0636444,0.1585083-0.0722809,0.318634-0.0722809,0.4929199v1.500824h-0.6191101V40.1407471z"/>
</g>
<g>
	<path d="M54.977066,12.6535645c-0.0620728,1.0229187-0.4989166,1.8486633-1.3348846,1.8486633
		c-1.1659546,0-1.440155-1.4472046-1.440155-2.5994568c0-0.9164429,0.1720734-2.6057739,1.4511566-2.6057739
		c0.5782623,0,0.8658295,0.3486023,1.0386658,0.681427c0.2231445,0.43927,0.2506409,0.9700623,0.2687073,1.2744751
		l-0.7621155,0.0741272c-0.0235596-0.4006348-0.058136-1.1277771-0.5397491-1.1277771
		c-0.4753418,0-0.5743408,0.7642212-0.5743408,1.7871094c0,0.8486023,0.074646,1.6144104,0.5743408,1.6144104
		c0.4533386,0,0.5161896-0.7421265,0.5444641-1.0158081L54.977066,12.6535645z"/>
	<polygon points="58.1797333,14.426178 57.3437653,14.426178 57.3437653,12.3575134 56.4190063,12.3575134 56.4190063,14.426178 
		55.5822601,14.426178 55.5822601,9.372406 56.4190063,9.372406 56.4190063,11.4111023 57.3437653,11.4111023 57.3437653,9.372406 
		58.1797333,9.372406 	"/>
	<polygon points="61.344696,9.3726196 61.344696,10.2433167 59.8566132,10.2433167 59.8566132,11.410553 61.0099945,11.410553 
		61.0099945,12.28125 59.8566132,12.28125 59.8566132,13.5249634 61.344696,13.5249634 61.344696,14.4264221 59.0198517,14.4264221 
		59.0198517,9.3726196 	"/>
	<path d="M64.5104523,12.6535645c-0.0620728,1.0229187-0.4981232,1.8486633-1.3364563,1.8486633
		c-1.1643829,0-1.4385834-1.4472046-1.4385834-2.5994568c0-0.9164429,0.1712799-2.6057739,1.4503784-2.6057739
		c0.579834,0,0.8658142,0.3486023,1.0386658,0.681427c0.2239227,0.43927,0.2514191,0.9700623,0.2694855,1.2744751
		l-0.7628937,0.0741272c-0.0227814-0.4006348-0.0557861-1.1277771-0.5397644-1.1277771
		c-0.47612,0-0.5719757,0.7642212-0.5719757,1.7871094c0,0.8486023,0.0738525,1.6144104,0.5719757,1.6144104
		c0.4533386,0,0.516983-0.7421265,0.5444794-1.0158081L64.5104523,12.6535645z"/>
	<polygon points="65.9536743,9.3726196 65.9536743,11.47995 66.8815613,9.3726196 67.7300873,9.3726196 66.7731323,11.2291565 
		67.8110199,14.4264221 66.9459839,14.4264221 66.2671509,12.0998535 65.9536743,12.7142334 65.9536743,14.4264221 
		65.114563,14.4264221 65.114563,9.3726196 	"/>
	<polygon points="71.7895508,9.3726196 71.7895508,10.3198242 71.0101471,10.3198242 71.0101471,14.4264221 70.1718292,14.4264221 
		70.1718292,10.3198242 69.4097137,10.3198242 69.4097137,9.3726196 	"/>
	<polygon points="74.8018646,14.426178 73.964325,14.426178 73.964325,12.3575134 73.0411377,12.3575134 73.0411377,14.426178 
		72.2036133,14.426178 72.2036133,9.372406 73.0411377,9.372406 73.0411377,11.4111023 73.964325,11.4111023 73.964325,9.372406 
		74.8018646,9.372406 	"/>
	<rect x="75.64151" y="9.3728943" width="0.8367462" height="5.053833"/>
	<path d="M78.9581146,10.8266907c-0.0479279-0.181366-0.1555786-0.6277771-0.5397644-0.6277771
		c-0.2812805,0-0.4007111,0.2571106-0.4007111,0.4613953c0,0.3485718,0.2514191,0.4700317,0.6591949,0.6750793
		c0.4289856,0.2184753,1.0551758,0.5292053,1.0551758,1.552887c0,0.8643799-0.4596252,1.6136169-1.3584442,1.6136169
		c-0.2757874,0-0.6898346-0.0678101-0.9993896-0.5307617c-0.2121429-0.3249207-0.2804871-0.6364441-0.3268433-0.8557129
		l0.7330322-0.2728577c0.0479279,0.2271118,0.1555634,0.7579041,0.6159821,0.7579041
		c0.2859802,0,0.4871216-0.2121582,0.4871216-0.5457764c0-0.3548889-0.2404175-0.4992065-0.5287628-0.6364441
		c-0.5209045-0.25-1.1526031-0.5457764-1.1526031-1.5749817c0-0.7886658,0.3857727-1.5457764,1.2209625-1.5457764
		c0.9538116,0,1.1541595,0.8406982,1.2342987,1.1735229L78.9581146,10.8266907z"/>
	<path d="M81.9437714,9.3727722h1.3026581c0.3771362,0,0.8069,0,1.043396,0.4321899
		c0.1437836,0.2571106,0.2019196,0.5828247,0.2019196,0.9014587c0,0.8107605-0.3700562,0.992157-0.5452728,1.0828552
		c0.1249237,0.06073,0.2459259,0.1135559,0.3826294,0.31073c0.1390686,0.1971741,0.2632141,0.5,0.2632141,0.9251099
		c0,0.43927-0.1430054,0.9464111-0.417984,1.1664429c-0.2922821,0.2342224-0.5853424,0.2342224-0.9279022,0.2342224h-1.3026581
		V9.3727722z M82.7514648,11.4107056h0.2710571c0.2294159,0,0.6120453,0,0.6120453-0.6285706
		c0-0.5914917-0.3826294-0.5914917-0.5499878-0.5914917h-0.3331146V11.4107056z M82.7514648,13.5542908h0.4140472
		c0.3606262,0,0.5743256-0.1663818,0.5743256-0.6656189c0-0.6593323-0.3904724-0.6593323-0.5798187-0.6593323h-0.4085541V13.5542908
		z"/>
	<path d="M87.9227448,11.9030762c0,0.9243469-0.1272736,2.5986938-1.3883057,2.5986938
		c-1.2288055,0-1.3882904-1.5828857-1.3882904-2.5986938c0-0.9692688,0.1429901-2.6057434,1.3882904-2.6057434
		C87.7498932,9.2973328,87.9227448,10.8502197,87.9227448,11.9030762 M86.0300446,11.9030762
		c0,1.0836487,0.0801392,1.6972351,0.5043945,1.6972351c0.4297791,0,0.5036316-0.6285706,0.5036316-1.6972351
		c0-1.059967-0.0683594-1.7042847-0.5036316-1.7042847C86.1101837,10.1987915,86.0300446,10.8044739,86.0300446,11.9030762"/>
	<polygon points="89.2257233,9.3726196 89.6853333,10.6912842 90.16539,9.3726196 90.9714966,9.3726196 90.0703278,11.6613464 
		91.0846405,14.4264221 90.16539,14.4264221 89.6044159,12.7749634 88.9797974,14.4264221 88.1760406,14.4264221 
		89.2257233,11.8348694 88.2923279,9.3726196 	"/>
	<polygon points="54.6042633,16.9535522 54.6042633,17.8250427 53.1766663,17.8250427 53.1766663,19.1445007 54.2781982,19.1445007 
		54.2781982,20.0144043 53.1766663,20.0144043 53.1766663,22.0081482 52.3391418,22.0081482 52.3391418,16.9535522 	"/>
	<path d="M57.6347809,19.4847717c0,0.9235535-0.1257019,2.5979004-1.3882904,2.5979004
		c-1.2272339,0-1.3883057-1.5836487-1.3883057-2.5979004c0-0.9692688,0.1453552-2.6057434,1.3883057-2.6057434
		C57.4627228,16.8790283,57.6347809,18.4319153,57.6347809,19.4847717 M55.7428741,19.4847717
		c0,1.0828552,0.0801392,1.6972351,0.5036163,1.6972351c0.4305573,0,0.5059814-0.629364,0.5059814-1.6972351
		c0-1.06073-0.069931-1.7050781-0.5059814-1.7050781C55.8230133,17.7796936,55.7428741,18.385376,55.7428741,19.4847717"/>
	<path d="M59.534729,16.9532471c0.3857574,0,0.7573853,0,1.0504456,0.4329529
		c0.2011414,0.2949829,0.2749939,0.6964111,0.2749939,1.0978394c0,0.8943481-0.3496246,1.1672363-0.5373993,1.319458
		l0.7039642,2.2043152h-0.9176788l-0.509903-1.992981h-0.4250488v1.992981h-0.8375397v-5.0545654H59.534729z M59.1741028,17.772644
		v1.4235535h0.3747559c0.359848,0,0.49263-0.31073,0.49263-0.7271423c0-0.6964111-0.3849792-0.6964111-0.5279846-0.6964111
		H59.1741028z"/>
	<path d="M64.7989502,18.4084167c-0.0471497-0.1821594-0.154007-0.62854-0.5397644-0.62854
		c-0.2812805,0-0.4007111,0.2578735-0.4007111,0.4621582c0,0.3485718,0.2514191,0.4700317,0.6591949,0.6742859
		c0.4297638,0.2192688,1.0543823,0.5299988,1.0543823,1.5529175c0,0.8643799-0.4580536,1.6136169-1.3592224,1.6136169
		c-0.2749939,0-0.6874847-0.0678406-0.997818-0.5307922c-0.2113495-0.3257141-0.2804871-0.6364441-0.3260651-0.8549194
		l0.7338257-0.2736511c0.045578,0.2279053,0.1555634,0.7586975,0.6128387,0.7586975
		c0.2875519,0,0.4878998-0.2121582,0.4878998-0.5465698c0-0.3548889-0.2388458-0.4992065-0.5271912-0.6356506
		c-0.5216827-0.25-1.1518097-0.5457764-1.1518097-1.5757751c0-0.7886658,0.3818512-1.5449829,1.2209473-1.5449829
		c0.9506836,0,1.1526031,0.8399353,1.2335205,1.1735229L64.7989502,18.4084167z"/>
	<path d="M67.3064423,16.9532471c0.4030609,0,0.8218231,0,1.1085968,0.3864441
		c0.2632141,0.3643494,0.3205566,0.8493958,0.3205566,1.1971741c0,0.500824-0.1036987,1.008728-0.4006958,1.310791
		c-0.2875519,0.2965393-0.7574005,0.2965393-0.993103,0.2965393h-0.2993317v1.8636169h-0.8351898v-5.0545654H67.3064423z
		 M67.0424652,17.772644v1.500061h0.2639771c0.2930603,0,0.5405579-0.0835876,0.5405579-0.7579041
		c0-0.742157-0.3559113-0.742157-0.5405579-0.742157H67.0424652z"/>
	<polygon points="71.5777283,16.9535522 71.5777283,17.8250427 70.091217,17.8250427 70.091217,18.9922791 71.2430267,18.9922791 
		71.2430267,19.8629761 70.091217,19.8629761 70.091217,21.1066895 71.5777283,21.1066895 71.5777283,22.0081482 
		69.2544556,22.0081482 69.2544556,16.9535522 	"/>
	<path d="M74.7434845,20.2345581c-0.0620728,1.0229187-0.497345,1.8486633-1.3356628,1.8486633
		c-1.1643829,0-1.4393768-1.4472046-1.4393768-2.5986633c0-0.9172363,0.1720734-2.6057739,1.4503784-2.6057739
		c0.5806122,0,0.8673859,0.3486023,1.039444,0.6813965c0.2231445,0.4393005,0.2514191,0.9700928,0.2695007,1.2729187
		l-0.7636871,0.0757141c-0.0220032-0.4014282-0.0557861-1.1285706-0.5397644-1.1285706
		c-0.4753418,0-0.5719757,0.7650146-0.5719757,1.7879028c0,0.8478088,0.0738525,1.6144104,0.5719757,1.6144104
		c0.4533386,0,0.5177612-0.7429199,0.546051-1.0158081L74.7434845,20.2345581z"/>
	<rect x="75.3492432" y="16.9535828" width="0.8375244" height="5.0546875"/>
	<polygon points="79.2903748,16.9535522 79.2903748,17.8250427 77.8627777,17.8250427 77.8627777,19.1445007 78.9643097,19.1445007 
		78.9643097,20.0144043 77.8627777,20.0144043 77.8627777,22.0081482 77.0252533,22.0081482 77.0252533,16.9535522 	"/>
	<rect x="79.6822662" y="16.9535828" width="0.8375397" height="5.0546875"/>
	<path d="M83.9967651,20.2345581c-0.0636444,1.0229187-0.4981232,1.8486633-1.3364563,1.8486633
		c-1.1635895,0-1.440155-1.4472046-1.440155-2.5986633c0-0.9172363,0.1728516-2.6057739,1.4511566-2.6057739
		c0.5806274,0,0.8658295,0.3486023,1.0386658,0.6813965c0.2231445,0.4393005,0.2522125,0.9700928,0.2702789,1.2729187
		l-0.7644653,0.0757141c-0.0220032-0.4014282-0.0557861-1.1285706-0.5381927-1.1285706
		c-0.4769135,0-0.5727539,0.7650146-0.5727539,1.7879028c0,0.8478088,0.0746307,1.6144104,0.5727539,1.6144104
		c0.4533386,0,0.5161896-0.7429199,0.546051-1.0158081L83.9967651,20.2345581z"/>
	<path d="M88.8182678,20.2345581c-0.0628662,1.0229187-0.4989166,1.8486633-1.3356628,1.8486633
		c-1.166748,0-1.4409485-1.4472046-1.4409485-2.5986633c0-0.9172363,0.173645-2.6057739,1.4511566-2.6057739
		c0.5790558,0,0.8666077,0.3486023,1.0402374,0.6813965c0.2223511,0.4393005,0.2498474,0.9700928,0.2671356,1.2729187
		l-0.761322,0.0757141c-0.0227814-0.4014282-0.058136-1.1285706-0.5405426-1.1285706
		c-0.4753418,0-0.5735474,0.7650146-0.5735474,1.7879028c0,0.8478088,0.0754242,1.6144104,0.5735474,1.6144104
		c0.4533386,0,0.5177612-0.7429199,0.5452576-1.0158081L88.8182678,20.2345581z"/>
	<path d="M92.0606079,19.4847717c0,0.9235535-0.1257019,2.5979004-1.3867188,2.5979004
		c-1.2288055,0-1.3890839-1.5836487-1.3890839-2.5979004c0-0.9692688,0.1437836-2.6057434,1.3890839-2.6057434
		C91.8885498,16.8790283,92.0606079,18.4319153,92.0606079,19.4847717 M90.1687012,19.4847717
		c0,1.0828552,0.0809174,1.6972351,0.505188,1.6972351c0.4281921,0,0.5028381-0.629364,0.5028381-1.6972351
		c0-1.06073-0.0683594-1.7050781-0.5028381-1.7050781C90.2496185,17.7796936,90.1687012,18.385376,90.1687012,19.4847717"/>
	<polygon points="93.6642761,16.9535522 94.6432343,20.0901184 94.6432343,16.9535522 95.2992706,16.9535522 95.2992706,22.0081482 
		94.5465851,22.0081482 93.3837738,18.3487244 93.3837738,22.0081482 92.7293091,22.0081482 92.7293091,16.9535522 	"/>
	<polygon points="98.0530853,16.9535522 98.0530853,17.9007568 97.2728882,17.9007568 97.2728882,22.0081482 96.4345703,22.0081482 
		96.4345703,17.9007568 95.6740265,17.9007568 95.6740265,16.9535522 	"/>
	<polygon points="100.7921295,16.9535522 100.7921295,17.8250427 99.3048248,17.8250427 99.3048248,18.9922791 
		100.4582062,18.9922791 100.4582062,19.8629761 99.3048248,19.8629761 99.3048248,21.1066895 100.7921295,21.1066895 
		100.7921295,22.0081482 98.4672852,22.0081482 98.4672852,16.9535522 	"/>
	<polygon points="102.2216034,16.9535522 103.2013397,20.0901184 103.2013397,16.9535522 103.8558197,16.9535522 
		103.8558197,22.0081482 103.1047058,22.0081482 101.9403229,18.3487244 101.9403229,22.0081482 101.2866364,22.0081482 
		101.2866364,16.9535522 	"/>
	<polygon points="106.611908,16.9535522 106.611908,17.9007568 105.8309326,17.9007568 105.8309326,22.0081482 
		104.9949646,22.0081482 104.9949646,17.9007568 104.2304993,17.9007568 104.2304993,16.9535522 	"/>
	<rect x="52.3397522" y="24.5342712" width="0.8367615" height="5.053833"/>
	<polygon points="54.9149933,24.5336914 55.8955231,27.6702576 55.8955231,24.5336914 56.5507813,24.5336914 56.5507813,29.5874939 
		55.7980957,29.5874939 54.6352844,25.9288635 54.6352844,29.5874939 53.9815979,29.5874939 53.9815979,24.5336914 	"/>
	<polygon points="59.62146,24.5336914 59.62146,25.4043884 58.1915131,25.4043884 58.1915131,26.7238464 59.2938232,26.7238464 
		59.2938232,27.5945435 58.1915131,27.5945435 58.1915131,29.5874939 57.355545,29.5874939 57.355545,24.5336914 	"/>
	<path d="M62.6504211,27.0653076c0,0.9235535-0.1257019,2.5979004-1.3875122,2.5979004
		c-1.2272339,0-1.3890839-1.5836487-1.3890839-2.5979004c0-0.9700623,0.1453552-2.6065369,1.3890839-2.6065369
		C62.478363,24.4587708,62.6504211,26.0116577,62.6504211,27.0653076 M60.7592926,27.0653076
		c0,1.0828552,0.0801392,1.6964417,0.5036163,1.6964417c0.4297638,0,0.5044098-0.6285706,0.5044098-1.6964417
		c0-1.06073-0.0683594-1.7050781-0.5044098-1.7050781C60.8394318,25.3602295,60.7592926,25.9659119,60.7592926,27.0653076"/>
	<path d="M64.550354,24.5337524c0.3857727,0,0.7581787,0,1.0504608,0.4321899
		c0.2011261,0.2949829,0.2749786,0.6964111,0.2749786,1.0978394c0,0.8943481-0.3488312,1.1680298-0.5373993,1.319458
		l0.7039642,2.2043152h-0.9176636l-0.5099182-1.992981h-0.4242554v1.992981h-0.8383331v-5.0538025H64.550354z
		 M64.1905212,25.3523865v1.4243469h0.3739777c0.3606262,0,0.4926147-0.31073,0.4926147-0.7271423
		c0-0.6972046-0.3849792-0.6972046-0.5287628-0.6972046H64.1905212z"/>
	<polygon points="67.8296356,24.5336914 68.3686066,27.6552734 68.9767303,24.5336914 70.1693878,24.5336914 70.1693878,29.5874939 
		69.3837128,29.5874939 69.3837128,25.352356 68.6035309,29.5874939 67.9899139,29.5874939 67.2796478,25.352356 
		67.2796478,29.5874939 66.5961151,29.5874939 66.5961151,24.5336914 	"/>
	<path d="M72.5287933,24.5335388l1.0905304,5.0538025h-0.8540344l-0.1964264-1.0379028h-1.0724487l-0.1893616,1.0379028h-0.7738953
		l1.1478882-5.0538025H72.5287933z M72.4156647,27.677948l-0.384201-2.0599976l-0.3724213,2.0599976H72.4156647z"/>
	<polygon points="76.0071716,24.5336914 76.0071716,25.480896 75.2277679,25.480896 75.2277679,29.5874939 74.3902283,29.5874939 
		74.3902283,25.480896 73.6273346,25.480896 73.6273346,24.5336914 	"/>
	<rect x="76.4224854" y="24.5342712" width="0.8375244" height="5.053833"/>
	<path d="M80.7371979,27.0653076c0,0.9235535-0.1280518,2.5979004-1.3882904,2.5979004
		c-1.2280273,0-1.3898773-1.5836487-1.3898773-2.5979004c0-0.9700623,0.1445618-2.6065369,1.3898773-2.6065369
		C80.5635681,24.4587708,80.7371979,26.0116577,80.7371979,27.0653076 M78.8421478,27.0653076
		c0,1.0828552,0.0817108,1.6964417,0.5067596,1.6964417c0.4289856,0,0.5036163-0.6285706,0.5036163-1.6964417
		c0-1.06073-0.0691376-1.7050781-0.5036163-1.7050781C78.9238586,25.3602295,78.8421478,25.9659119,78.8421478,27.0653076"/>
	<polygon points="82.339447,24.5336914 83.3191833,27.6702576 83.3191833,24.5336914 83.9736633,24.5336914 83.9736633,29.5874939 
		83.2233276,29.5874939 82.0581665,25.9288635 82.0581665,29.5874939 81.40448,29.5874939 81.40448,24.5336914 	"/>
</g>
<g display="none">
	<path display="inline" d="M12.2668304,23.7362061v-5.8188171c0-0.5906982,0.4148407-0.7224121,1.7025757-0.7224121
		c2.8166656-0.0394287,3.6612854,0.5867615,3.8749847,2.6854248c0.0589294,4.0916138-1.3026581,3.880249-4.7109528,3.880249
		C12.8427429,23.7606506,12.5536041,23.7606506,12.2668304,23.7362061 M14.7723846,30.9966736
		c-1.6845093-0.2957458-2.5699768-0.474762-2.5055542-2.2303467l-0.0361328-2.9874878
		c0.546051,0.0260315,1.1282349,0.0118408,1.6106415,0.0118408c6.4944458,0,10.0166626,0.6230469,9.5813904-6.1429443
		c-0.0785675-4.6523438-3.2464294-4.4536133-10.0339355-4.4536133c-2.3460541,0-4.1782532,0.0512695-5.5296249,0.0512695
		c-0.9970322,0-1.6978607-0.0346985-3.0979462,0.0386353c-1.3309479,0.0307617-1.4181519,1.2295532-0.2207794,1.6199341
		c1.3254471,0.5725708,2.4199066,0.1600952,2.5078964,1.8683472v10.1265259
		c-0.029068,2.0245056-1.3136597,1.8927917-1.9626312,2.1585693c-1.7740707,0.1474915-1.5690079,1.6901245-0.3724136,1.7350769
		c0.6937561,0.0244446,1.9225616,0.0157776,3.4035721,0.0157776c3.0217285,0,6.6123047,0.0299683,7.410553,0.0063171
		C16.6627197,32.7767029,16.8096466,31.1449585,14.7723846,30.9966736"/>
	<path display="inline" d="M38.1694489,26.7441711c-0.1532135-0.7168884-0.7039795-0.7208252-1.5077362-0.9787292
		c-1.5941467-0.2208252-1.9861908-1.6451721-0.215271-1.7476807h2.6194611
		c1.3977356-0.0157776,4.4925232-0.0670471,5.3787842-0.0228882c1.6082916,0.0362854,1.9602661,1.1916809,0.0133514,1.7106323
		c-0.5122681,0.138031-1.3584442,0.6104431-1.3741608,1.6167908c-0.004715,0.5331116,0,3.8234558,0,3.8234558
		s-0.8556061,2.1948547-9.2199707,2.0450134c-5.1572113-0.12146-8.7839203-0.2618408-8.9905548-8.8046875
		c-0.0282898-11.072937,6.9273529-9.8150024,9.6316681-10.0208435c3.8388367,0.0575867,5.8470459,0.5315552,6.9689941,0.9495544
		c1.7222137,0.6072693,1.7952881,1.4424744,1.8204346,2.9551392c0.0235596,1.5221252-0.3127136,2.9441223-2.0231323,3.019043
		c-2.3979034,0.2019043-2.5778198-0.8580933-2.7490997-1.8226318c-0.3527679-2.8486633-0.5397644-3.0024719-3.6031342-3.0253296
		c-4.4508972-0.0283813-4.9403687,2.3186951-4.8390198,7.6224976c0.0817108,4.0001221,0.157135,6.9039917,4.5003815,6.8432617
		c2.3216858,0.0055237,3.6290741-0.1608887,3.6290741-1.8525696C38.2095184,29.0541992,38.3352203,27.5375977,38.1694489,26.7441711
		"/>
</g>
<g>
	<path fill="#F15A29" d="M12.2892523,23.717041v-5.8188171c0-0.5906982,0.4148407-0.7224121,1.7025757-0.7224121
		c2.8166647-0.0394287,3.6612844,0.5867615,3.8749838,2.6854248c0.0589294,4.0916138-1.3026581,3.880249-4.7109518,3.880249
		C12.8651648,23.7414856,12.576026,23.7414856,12.2892523,23.717041 M14.7948065,30.9775085
		c-1.6845093-0.2957458-2.5699768-0.474762-2.5055542-2.2303467l-0.0361328-2.9874878
		c0.546051,0.0260315,1.1282349,0.0118408,1.6106415,0.0118408c6.4944448,0,10.0166616,0.6230469,9.5813894-6.1429443
		c-0.0785675-4.6523428-3.2464294-4.4536123-10.0339346-4.4536123c-2.3460541,0-4.1782532,0.0512695-5.5296249,0.0512695
		c-0.9970322,0-1.6978607-0.0346985-3.0979462,0.0386353c-1.3309481,0.0307617-1.4181521,1.2295523-0.2207794,1.6199331
		c1.3254471,0.5725708,2.4199066,0.1600952,2.5078964,1.8683472v10.1265259
		c-0.029068,2.0245056-1.3136597,1.8927917-1.9626312,2.1585693c-1.774071,0.1474915-1.5690081,1.6901245-0.3724136,1.7350769
		C5.4294729,32.79776,6.6582785,32.789093,8.1392889,32.789093c3.0217285,0,6.6123047,0.0299683,7.410553,0.0063171
		C16.6851406,32.7575378,16.8320675,31.1257935,14.7948065,30.9775085"/>
	<path fill="#F15A29" d="M38.1918716,26.7250061c-0.1532135-0.7168884-0.7039795-0.7208252-1.5077362-0.9787292
		c-1.5941467-0.2208252-1.9861908-1.6451721-0.215271-1.7476807h2.6194611
		c1.3977356-0.0157776,4.4925232-0.0670471,5.3787842-0.0228882c1.6082916,0.0362854,1.9602661,1.1916809,0.0133514,1.7106323
		c-0.5122681,0.138031-1.3584442,0.6104431-1.3741608,1.6167908c-0.004715,0.5331116,0,3.8234558,0,3.8234558
		s-0.8556061,2.1948547-9.2199707,2.0450134c-5.1572132-0.12146-8.7839222-0.2618408-8.9905567-8.8046875
		c-0.0282898-11.0729361,6.9273529-9.8150015,9.63167-10.0208426c3.8388367,0.0575867,5.8470459,0.5315552,6.9689941,0.9495544
		c1.7222137,0.6072693,1.7952881,1.4424734,1.8204346,2.9551382c0.0235596,1.5221252-0.3127136,2.9441223-2.0231323,3.019043
		c-2.3979034,0.2019043-2.5778198-0.8580933-2.7490997-1.8226318c-0.3527679-2.8486633-0.5397644-3.0024719-3.6031342-3.0253296
		c-4.4508991-0.0283813-4.9403706,2.3186951-4.8390217,7.6224976c0.0817108,4.0001221,0.157135,6.9039917,4.5003834,6.8432617
		c2.3216858,0.0055237,3.6290741-0.1608887,3.6290741-1.8525696C38.2319412,29.0350342,38.3576431,27.5184326,38.1918716,26.7250061
		"/>
</g>
<g>
</g>
<g>
</g>
<g>
</g>
<g>
</g>
<g>
</g>
<g>
</g>
</svg>
