<?xml version="1.0" encoding="utf-8"?>
<!-- Generator: Adobe Illustrator 24.1.0, SVG Export Plug-In . SVG Version: 6.00 Build 0)  -->
<svg version="1.1" id="Layer_1" xmlns="http://www.w3.org/2000/svg" xmlns:xlink="http://www.w3.org/1999/xlink" x="0px" y="0px"
	 viewBox="0 0 116.4790649 47.7042389" enable-background="new 0 0 116.4790649 47.7042389" xml:space="preserve">
<rect fill="#FFFFFF" width="110.6129837" height="47.7042389"/>
<path d="M114.0473785,42.2644653c1.3545227,0,2.4316864,1.1057281,2.4316864,2.4858856
	c0,1.4038315-1.0771637,2.4977188-2.442688,2.4977188c-1.3521576,0-2.4528961-1.0938873-2.4528961-2.4977188
	c0-1.3801575,1.1007385-2.4858856,2.4528961-2.4858856H114.0473785z M114.036377,42.6501312
	c-1.0889435,0-1.9806976,0.9408875-1.9806976,2.1002197c0,1.1806412,0.8917542,2.1104813,1.9916992,2.1104813
	c1.101532,0.0110397,1.9814911-0.9298401,1.9814911-2.0994339c0-1.1703796-0.8799591-2.1112671-1.9814911-2.1112671H114.036377z
	 M113.5736237,46.198349h-0.439209v-2.7713776c0.2310028-0.0346985,0.451767-0.0686188,0.7817535-0.0686188
	c0.417984,0,0.6929779,0.0891266,0.8579712,0.2113647c0.1657715,0.1190948,0.2537689,0.3099518,0.2537689,0.5749359
	c0,0.3619995-0.2427673,0.5851974-0.5405426,0.6727371v0.0236588c0.2435608,0.0418015,0.4085541,0.2626266,0.4627686,0.6727371
	c0.0659943,0.4314041,0.132782,0.5954437,0.1767731,0.6845627h-0.4619751
	c-0.0659943-0.089119-0.132782-0.343071-0.1885681-0.7066422c-0.0652161-0.3533249-0.2412109-0.4858246-0.5939789-0.4858246
	h-0.3087616V46.198349z M113.5736237,44.6635971h0.3197632c0.3653412,0,0.6709747-0.1324921,0.6709747-0.4763489
	c0-0.2429123-0.1759949-0.4850388-0.6709747-0.4850388c-0.1414185,0-0.2411957,0.0102539-0.3197632,0.0220947V44.6635971z"/>
<g>
	<path d="M103.8382263,41.1865997c-2.7766113,0-5.0252228,1.0165863-5.0252228,2.2682037
		c0,1.2539902,2.2486115,2.2697906,5.0252228,2.2697906c2.7750244,0,5.0252228-1.0158005,5.0252228-2.2697906
		C108.8634491,42.203186,106.6132507,41.1865997,103.8382263,41.1865997 M108.5090942,43.2955017h-0.9247437
		c-0.0612793-0.5418243-0.4376221-1.0276337-1.0182343-1.3998871
		C107.6503448,42.2213287,108.3888855,42.7323914,108.5090942,43.2955017 M107.2425842,43.2955017h-1.1510315
		c-0.0447845-0.638031-0.3496246-1.2035065-0.8131714-1.590744
		C106.3657532,41.9918213,107.1404419,42.5896454,107.2425842,43.2955017 M103.8382263,45.3870468
		c-1.0622406,0-1.925705-0.8643799-1.925705-1.9322433c0-1.0662689,0.8634644-1.9314423,1.925705-1.9314423
		c1.0630188,0,1.9249115,0.8651733,1.9249115,1.9314423C105.7631378,44.5226669,104.9012451,45.3870468,103.8382263,45.3870468
		 M101.583313,43.2955017h-1.1510162c0.1013489-0.7058563,0.8799591-1.3036804,1.9642029-1.590744
		C101.9337311,42.0919952,101.628891,42.6574707,101.583313,43.2955017 M101.1103363,41.8956146
		c-0.5806274,0.3722534-0.956955,0.8580627-1.0198212,1.3998871h-0.9216003
		C99.2883453,42.7323914,100.026886,42.2213287,101.1103363,41.8956146 M99.1720581,43.6338348h0.9192505
		c0.0714874,0.5347137,0.4431152,1.0158081,1.0190277,1.3841171C100.0355225,44.6930161,99.302475,44.1914215,99.1720581,43.6338348
		 M100.433075,43.6338348h1.1526031c0.0479279,0.632515,0.3527679,1.1916809,0.8108215,1.5726089
		C101.3193207,44.92173,100.5469971,44.3325958,100.433075,43.6338348 M106.0915527,43.6338348h1.150238
		c-0.1123505,0.698761-0.8885956,1.2878952-1.9649811,1.5726089
		C105.7372131,44.8255157,106.0420532,44.2663498,106.0915527,43.6338348 M106.5661163,45.0155792
		c0.5743256-0.3659363,0.9483032-0.8470306,1.0166626-1.3817444h0.9216003
		C108.3723907,44.1914215,107.6377716,44.6930161,106.5661163,45.0155792"/>
	<path d="M103.5653687,43.4566956c0-0.1474762,0.116272-0.2673492,0.2631989-0.2673492
		c0.1461334,0,0.2647705,0.119873,0.2647705,0.2673492c0,0.1459045-0.1186371,0.2649994-0.2647705,0.2649994
		C103.6816406,43.7216949,103.5653687,43.6026001,103.5653687,43.4566956"/>
	<path d="M103.8385468,42.2899475l0.3535461-0.3541107c-0.2176361-0.2208252-0.4918365-0.2208252-0.7094727,0
		L103.8385468,42.2899475z"/>
	<path d="M104.1201324,42.7050171c0-0.2720795,0.219986-0.4944916,0.4926147-0.4944916
		c0.2734222,0,0.49263,0.2224121,0.49263,0.4944916c0,0.2736816-0.2192078,0.495285-0.49263,0.495285
		C104.3401184,43.2003021,104.1201324,42.9786987,104.1201324,42.7050171"/>
	<path d="M102.5655823,42.7050171c0-0.2720795,0.219986-0.4944916,0.4926147-0.4944916
		c0.2718506,0,0.4918365,0.2224121,0.4918365,0.4944916c0,0.2736816-0.219986,0.495285-0.4918365,0.495285
		C102.7855682,43.2003021,102.5655823,42.9786987,102.5655823,42.7050171"/>
	<path d="M102.5939484,44.2338486c0-0.2744522,0.219986-0.4937057,0.4918365-0.4937057
		c0.2718353,0,0.4918365,0.2192535,0.4918365,0.4937057c0,0.2713089-0.2200012,0.4929199-0.4918365,0.4929199
		C102.8139343,44.7267685,102.5939484,44.5051575,102.5939484,44.2338486"/>
	<path d="M104.0801392,44.2246246c0-0.2728729,0.219986-0.4952698,0.4910431-0.4952698
		c0.2726288,0,0.4942017,0.2223969,0.4942017,0.4952698c0,0.2728806-0.2215729,0.4937134-0.4942017,0.4937134
		C104.3001251,44.718338,104.0801392,44.4975052,104.0801392,44.2246246"/>
	<path d="M103.8284912,44.6104431l-0.3551331,0.3517532c0.2192078,0.2208252,0.4910431,0.2208252,0.7110443,0
		L103.8284912,44.6104431z"/>
	<path d="M104.9649048,43.4582825l0.3535461,0.3564911c0.2192078-0.2192535,0.2192078-0.4960785,0-0.7121735L104.9649048,43.4582825
		z"/>
	<path d="M102.672287,43.4582825l-0.3504181,0.3564911c-0.2192078-0.2192535-0.2192078-0.4960785,0-0.7121735L102.672287,43.4582825
		z"/>
</g>
<path d="M0,47.7042389h110.6169281V0H0V47.7042389z M0.8948898,7.329895h35.5214615v31.5507202H0.8948898V7.329895z
	 M97.2226105,46.7483749H0.8948975v-7.0049515h96.327713V46.7483749z M109.6607513,46.7483749H98.1096497v-7.0049515h11.5511017
	V46.7483749z M109.6607513,38.8640442h-72.296875V0.9945221h72.296875V38.8640442z M4.2591858,1.9022675
	c0.4549026,0,0.8956757,0,1.242157,0.3280945c0.2388535,0.2247772,0.3276291,0.5299835,0.3276291,0.8359833
	c0,0.6814117-0.4156189,0.8872528-0.6387558,1.0039825L6.0253983,5.75177H4.9395828l-0.604187-1.5197601H3.8302002V5.75177
	H2.8394547V1.9022675H4.2591858z M3.8302002,2.5237427V3.608963h0.442337c0.4289856,0,0.584549-0.2350311,0.584549-0.5536499
	c0-0.5315704-0.4556961-0.5315704-0.6246185-0.5315704H3.8302002z M9.3173981,1.9022675v0.6624908H7.5598297v0.8880463h1.3639374
	v0.6648407H7.5598297v0.9456177h1.7575684V5.75177H6.5690842V1.9022675H9.3173981z M11.7758026,3.0079956
	c-0.0542145-0.1388092-0.1838531-0.4779358-0.6387634-0.4779358c-0.3331299,0-0.4737701,0.1963806-0.4737701,0.3517456
	c0,0.2649841,0.2977753,0.3572693,0.7794037,0.5126343c0.5091095,0.1695557,1.2500153,0.4045868,1.2500153,1.1837921
	c0,0.6577454-0.5444794,1.2303162-1.6090698,1.2303162c-0.3268433,0-0.8147583-0.0520477-1.1824646-0.4029999
	C9.650528,5.1547546,9.5680237,4.9197235,9.5146027,4.7517395L10.382782,4.545105
	c0.0549927,0.1727142,0.1846313,0.5749359,0.7275391,0.5749359c0.3394165,0,0.5774841-0.1608887,0.5774841-0.4132538
	c0-0.2720947-0.2859955-0.3825073-0.625412-0.4850311c-0.6175385-0.1892853-1.3639374-0.4164276-1.3639374-1.1995697
	c0-0.6009674,0.4541168-1.1774902,1.4440765-1.1774902c1.1290283,0,1.3678741,0.6404114,1.46138,0.8943634L11.7758026,3.0079956z
	 M15.6382141,1.9022675v0.7200623h-0.9216156V5.75177h-0.9938812V2.6223297h-0.9027557V1.9022675H15.6382141z M17.4382019,1.9022675
	c0.4541321,0,0.8956757,0,1.2421722,0.3280945c0.2372742,0.2247772,0.3252716,0.5299835,0.3252716,0.8359833
	c0,0.6814117-0.4140625,0.8872528-0.6387634,1.0039825L19.2020569,5.75177h-1.085022l-0.6049805-1.5197601h-0.5020447V5.75177
	h-0.9923248V1.9022675H17.4382019z M17.0100098,2.5237427V3.608963h0.4407654c0.4281921,0,0.584549-0.2350311,0.584549-0.5536499
	c0-0.5315704-0.4556885-0.5315704-0.6253967-0.5315704H17.0100098z M20.7380676,5.75177h-0.993103V1.9022675h0.993103V5.75177z
	 M24.7442627,4.398407c-0.0762177,0.7807922-0.5916138,1.410141-1.5847168,1.410141
	c-1.3757324,0-1.7025757-1.1017609-1.7025757-1.9795532c0-0.698761,0.2034912-1.9842987,1.718277-1.9842987
	c0.6859131,0,1.0261078,0.2649994,1.2288055,0.5189514c0.2639923,0.3336029,0.2993469,0.7358246,0.3190002,0.9692688
	l-0.9027557,0.0583649c-0.0274963-0.3075867-0.0683594-0.8612213-0.6387634-0.8612213
	c-0.5641174,0-0.6780396,0.5836182-0.6780396,1.3596649c0,0.6490784,0.0864258,1.2303162,0.6780396,1.2303162
	c0.5366211,0,0.6112671-0.5654755,0.64505-0.7720947L24.7442627,4.398407z M27.6552124,1.9022675v0.7200623h-0.9216003V5.75177
	h-0.9923248V2.6223297h-0.9035339V1.9022675H27.6552124z M30.7861481,1.9022675v0.6624908h-1.7583466v0.8880463h1.3639374v0.6648407
	h-1.3639374v0.9456177h1.7583466V5.75177h-2.7498779V1.9022675H30.7861481z M31.3023529,1.9022675h1.0653839
	c0.6921844,0,2.1001282,0.003952,2.1001282,1.896759c0,0.7216339-0.2529907,1.3691254-0.741684,1.6846008
	C33.3238983,5.75177,32.8367767,5.75177,32.4887238,5.75177h-1.1863708V1.9022675z M32.2923126,5.0869141h0.1704865
	c0.3928375,0,0.9506683-0.0410004,0.9506683-1.2989349c0-1.1829987-0.5507507-1.2232208-0.9506683-1.2232208h-0.1704865V5.0869141z"
	/>
<g>
	<path d="M2.9459229,41.2878571v2.0931396c0,0.5315552,0,0.9724197,0.3889084,0.9724197
		c0.1854248,0,0.2710571-0.1159286,0.3150558-0.241333c0.0502853-0.1435394,0.0502853-0.3320236,0.0502853-0.7310867v-2.0931396
		H4.205368v2.0592194c0,0.6498642,0,1.1538239-0.3323441,1.4503632c-0.1264954,0.1096268-0.307991,0.2082062-0.5908356,0.2082062
		c-0.9310303,0-0.9349594-0.8462372-0.9349594-1.624649v-2.0931396H2.9459229z"/>
	<path d="M5.2223587,42.2437286v0.3698883c0.0817108-0.2271271,0.1885605-0.4298248,0.505188-0.4298248
		c0.07621,0,0.3072052,0,0.4462662,0.2855072C6.253952,42.638855,6.253952,42.9038544,6.253952,43.1712189v1.7808075H5.6929779
		v-1.7808075c0-0.2405548-0.0149307-0.40065-0.1917038-0.40065c-0.2506332,0-0.2506332,0.2649841-0.2506332,0.5938721v1.5875854
		H4.6880875v-2.7082977H5.2223587z"/>
	<path d="M8.1993866,41.2881012v3.6633682H7.6800537v-0.444809c-0.0573578,0.1979523-0.1445694,0.4834518-0.4643402,0.4834518
		c-0.5397644,0-0.6434708-0.8391418-0.6434708-1.3777924c0-0.216095,0-1.4054108,0.6678238-1.4054108
		c0.2710648,0,0.3543472,0.1727142,0.4069901,0.2839203v-1.2027283H8.1993866z M7.6470566,43.3812256
		c0-0.2421112,0-0.6758881-0.2459259-0.6758881c-0.2176285,0-0.2451324,0.3525391-0.2451324,0.7855225
		c0,0.5276108,0,0.9779434,0.2419968,0.9779434c0.2490616,0,0.2490616-0.4124756,0.2490616-0.6112137V43.3812256z"/>
	<path d="M9.130722,43.7218628c-0.0023651,0.369873-0.0070648,0.7649994,0.2718506,0.7649994
		c0.2427673,0,0.2702637-0.2941742,0.2867737-0.4684677l0.5059814,0.0449524
		c-0.040863,0.2523727-0.1555786,0.9440384-0.8061218,0.9440384c-0.6191101,0-0.8398819-0.6538086-0.8398819-1.3738556
		c0-0.1766663,0.0164948-0.604126,0.1516342-0.9329987c0.1445618-0.3470154,0.4101257-0.5165863,0.6843262-0.5165863
		c0.3535614,0,0.5711823,0.2649994,0.6607513,0.4945068c0.1437836,0.3675232,0.149292,0.7137451,0.149292,1.0434113H9.130722z
		 M9.66185,43.2872925c0.0023499-0.1474762,0.0109863-0.6049042-0.2639923-0.6049042
		c-0.2529907,0-0.2569275,0.4124756-0.2616425,0.6049042H9.66185z"/>
	<path d="M11.0345154,42.2437286v0.6530304c0.0510559-0.2310791,0.1500549-0.6924591,0.4768982-0.6924591
		c0.040863,0,0.069931,0.0063171,0.0974274,0.0173492v0.7374115c-0.0479279-0.0102539-0.0730743-0.0102539-0.0942841-0.0102539
		c-0.4140472,0-0.4140472,0.625412-0.4140472,0.8312531v1.1719666h-0.5609741v-2.7082977H11.0345154z"/>
	<path d="M14.0943604,44.3532562h0.451767v0.5986023h-1.5085144v-0.5986023h0.4588318v-2.1633148
		c-0.1264954,0.1711426-0.2372742,0.3012695-0.4588318,0.4605865v-0.7192688
		c0.3221283-0.2302856,0.4824066-0.4676819,0.5971222-0.6758881h0.4596252V44.3532562z"/>
	<path d="M15.0419617,41.2878571h1.6239929v0.6159515c-0.2773438,0.5165863-0.6434631,1.2784424-0.6638947,3.0482101h-0.6513367
		c0.0023651-0.2752457,0.0125732-0.8628082,0.2121429-1.5875931c0.1987762-0.7137451,0.447052-1.120697,0.5876923-1.3572998
		h-1.1533813L15.0419617,41.2878571z"/>
	<path d="M19.0699921,41.2878571c0.2757721,0,0.5429077,0,0.7503204,0.3154755
		c0.1437836,0.2121429,0.197998,0.5031586,0.197998,0.7957611c0,0.6474915-0.2506409,0.8438721-0.3857727,0.9550781
		l0.5036163,1.5978394h-0.6544647l-0.3653412-1.444046h-0.3032684v1.444046h-0.5994873v-3.6641541H19.0699921z
		 M18.8130798,41.8825073v1.0323792h0.2655487c0.2584991,0,0.3543396-0.2255554,0.3543396-0.5284119
		c0-0.5039673-0.2765503-0.5039673-0.3794708-0.5039673H18.8130798z"/>
	<path d="M20.8761139,43.7218628c-0.004715,0.369873-0.007843,0.7649994,0.2702789,0.7649994
		c0.2412109,0,0.2710571-0.2941742,0.2867737-0.4684677l0.5052032,0.0449524
		c-0.0416412,0.2523727-0.1532135,0.9440384-0.8037567,0.9440384c-0.6191254,0-0.8398895-0.6538086-0.8398895-1.3738556
		c0-0.1766663,0.0149231-0.604126,0.1500549-0.9329987c0.1445618-0.3470154,0.4116974-0.5165863,0.6851196-0.5165863
		c0.3535614,0,0.5704041,0.2649994,0.6599731,0.4945068c0.1453552,0.3675232,0.1484985,0.7137451,0.1484985,1.0434113H20.8761139z
		 M21.404892,43.2872925c0.0046997-0.1474762,0.012558-0.6049042-0.2624207-0.6049042
		c-0.2545624,0-0.2592773,0.4124756-0.2616425,0.6049042H21.404892z"/>
	<path d="M23.8204651,42.2438202c-0.0172882,0.2326508-0.0172882,0.3848724-0.0172882,0.6916656v2.9330521h-0.5523224v-1.1964111
		c-0.0557861,0.1096268-0.1712799,0.3178329-0.417984,0.3178329c-0.3779144,0-0.6395569-0.4889755-0.6395569-1.3454742
		c0-0.3738251,0.0204315-1.4401093,0.6843414-1.4401093c0.2875519,0,0.4109039,0.2476501,0.4792633,0.3911896
		c0.0738525-0.1151428,0.1036987-0.1758728,0.157135-0.3517456H23.8204651z M23.2508545,43.3227081
		c0-0.4298096-0.0526428-0.6175232-0.2388611-0.6175232c-0.1995544,0-0.2357025,0.1916504-0.2357025,0.8233795
		c0,0.5883408,0.0070801,0.9400864,0.2357025,0.9400864c0.2192078,0,0.2388611-0.3517456,0.2388611-0.7468643V43.3227081z"/>
	<path d="M24.7892914,42.2437286v1.7421722c0,0.2697296,0,0.4384995,0.1916962,0.4384995
		c0.2498474,0,0.2498474-0.2145157,0.2498474-0.7973404v-1.3833313h0.5625458v2.7082977h-0.5287628v-0.3738327
		c-0.1005707,0.2310791-0.1924896,0.429039-0.5209045,0.429039c-0.5161896,0-0.5161896-0.5063324-0.5161896-1.0000381v-1.7634659
		H24.7892914z"/>
	<path d="M26.2259827,41.2670441h0.5688324v0.7452393h-0.5688324V41.2670441z M26.7908783,44.9517365h-0.5625458v-2.708252
		h0.5625458V44.9517365z"/>
	<path d="M27.7172241,42.2437286v0.6530304c0.0494843-0.2310791,0.1477051-0.6924591,0.4753265-0.6924591
		c0.0416412,0,0.0707092,0.0063171,0.0982208,0.0173492v0.7374115c-0.0487213-0.0102539-0.074646-0.0102539-0.0935059-0.0102539
		c-0.4140472,0-0.4140472,0.625412-0.4140472,0.8312531v1.1719666h-0.5625458v-2.7082977H27.7172241z"/>
	<path d="M28.993866,43.7218628c-0.004715,0.369873-0.0094299,0.7649994,0.2702789,0.7649994
		c0.2419891,0,0.2726288-0.2941742,0.2867737-0.4684677l0.505188,0.0449524
		c-0.0416412,0.2523727-0.15242,0.9440384-0.8045349,0.9440384c-0.6183319,0-0.840683-0.6538086-0.840683-1.3738556
		c0-0.1766663,0.0164948-0.604126,0.15242-0.9329987c0.1429901-0.3470154,0.4101257-0.5165863,0.6843262-0.5165863
		c0.3527832,0,0.5696259,0.2649994,0.6599731,0.4945068c0.1437836,0.3675232,0.1484985,0.7137451,0.1484985,1.0434113H28.993866z
		 M29.5218506,43.2872925c0.0046997-0.1474762,0.0149231-0.6049042-0.2616425-0.6049042
		c-0.2545624,0-0.2584839,0.4124756-0.2631989,0.6049042H29.5218506z"/>
	<path d="M31.3325348,43.0531311c-0.0330048-0.1387939-0.0911407-0.3706665-0.2962036-0.3706665
		c-0.1304321,0-0.1767883,0.1285553-0.1767883,0.2381744c0,0.2137299,0.1115723,0.2618408,0.3370667,0.37146
		c0.2828369,0.1325073,0.599472,0.2823486,0.599472,0.8312607c0,0.3990631-0.2113495,0.8840942-0.7684021,0.8840942
		c-0.6638947,0-0.7346039-0.6056976-0.7574005-0.8075943l0.4478455-0.0985794
		c0.0149231,0.1025238,0.0652161,0.4053726,0.3182068,0.4053726c0.0573425,0,0.2254791-0.0173492,0.2254791-0.253952
		c0-0.212944-0.1225586-0.266571-0.3229065-0.3564758c-0.2129211-0.0875397-0.6065521-0.266571-0.6065521-0.8501892
		c0-0.5828247,0.3559113-0.862793,0.7173309-0.862793c0.3394165,0,0.6096954,0.262619,0.6843262,0.7097931L31.3325348,43.0531311z"
		/>
	<path d="M34.0882263,41.2876282l0.7794037,3.6641464h-0.6120605l-0.1382751-0.7516022h-0.7676086l-0.1343536,0.7516022h-0.5523376
		l0.8179016-3.6641464H34.0882263z M34.0057373,43.5676575l-0.272644-1.4937286l-0.2671204,1.4937286H34.0057373z"/>
	<path d="M36.0504761,43.2664642c-0.021225-0.3919678-0.0919342-0.5063171-0.2223511-0.5063171
		c-0.1681366,0-0.2820587,0.1813965-0.2820587,0.8028717c0,0.4061508,0.0322113,0.8351898,0.2694855,0.8351898
		c0.1822815,0,0.2223511-0.2200394,0.2349243-0.5015869l0.5224762,0.0441589
		c-0.0235748,0.2807693-0.0840759,1.0647049-0.7911835,1.0647049c-0.6874695,0-0.8021851-0.8273163-0.8021851-1.4054031
		c0-0.7287292,0.1964264-1.4164581,0.8320313-1.4164581c0.1862183,0,0.3857727,0.048111,0.5452728,0.2791901
		c0.1885529,0.2752533,0.2050629,0.5449677,0.2160645,0.7752686L36.0504761,43.2664642z"/>
	<path d="M37.8834686,43.2664642c-0.0196533-0.3919678-0.0911407-0.5063171-0.2207794-0.5063171
		c-0.1689301,0-0.2844238,0.1813965-0.2844238,0.8028717c0,0.4061508,0.033783,0.8351898,0.2710571,0.8351898
		c0.1815033,0,0.2207794-0.2200394,0.2341461-0.5015869l0.5240479,0.0441589
		c-0.0235748,0.2807693-0.0848541,1.0647049-0.7911835,1.0647049c-0.6882629,0-0.8021851-0.8273163-0.8021851-1.4054031
		c0-0.7287292,0.1956329-1.4164581,0.8296814-1.4164581c0.1869965,0,0.3865509,0.048111,0.5476227,0.2791901
		c0.1877747,0.2752533,0.2042694,0.5449677,0.2160645,0.7752686L37.8834686,43.2664642z"/>
	<path d="M40.2866974,43.5952759c0,0.8675308-0.2325592,1.4117126-0.8226013,1.4117126
		c-0.5829773,0-0.8218384-0.5378723-0.8218384-1.4117126c0-0.845459,0.2207794-1.4117279,0.8233948-1.4117279
		C40.065918,42.183548,40.2866974,42.7498169,40.2866974,43.5952759 M39.4640961,42.7111664
		c-0.1807098,0-0.2396393,0.2192535-0.2396393,0.8841095c0,0.720047,0.0738525,0.8840942,0.2411957,0.8840942
		c0.1657867,0,0.2388611-0.1577377,0.2388611-0.8840942c0-0.698761-0.0644379-0.8841095-0.2388611-0.8841095H39.4640961z"/>
	<path d="M40.6363373,42.2437286h0.5326843v0.3698883c0.0573578-0.1569366,0.1595001-0.4298248,0.49263-0.4298248
		c0.3425446,0,0.3999023,0.2689362,0.4336853,0.4298248c0.062851-0.1829681,0.1681366-0.4298248,0.4957733-0.4298248
		c0.5169678,0,0.5169678,0.5055389,0.5169678,0.9953003v1.772934h-0.5609741V43.2556c0-0.3067932,0-0.4850311-0.1807098-0.4850311
		c-0.2058411,0-0.2129059,0.2153015-0.2129059,0.6049042v1.5765533h-0.5609894v-1.7137756
		c0-0.3312378-0.0094299-0.46138-0.1767731-0.46138c-0.2034912,0-0.2176361,0.220047-0.2176361,0.5986023v1.5765533h-0.5617523
		V42.2437286z"/>
	<path d="M44.0369873,42.2438812v0.4061737c0.0707245-0.1735077,0.1791382-0.4456024,0.4541321-0.4456024
		c0.1351318,0,0.2875519,0.0772858,0.3849792,0.2097931c0.1972046,0.2681427,0.2631989,0.6924438,0.2631989,1.1467133
		c0,0.3864517-0.0400696,1.4290695-0.6858978,1.4290695c-0.2207642,0-0.3237-0.1466904-0.3841858-0.2350235v1.1136017h-0.5539093
		v-3.6247253H44.0369873z M44.0692139,43.8472443c0,0.3903961,0,0.6214752,0.2380524,0.6214752
		c0.2294159,0,0.2498474-0.3351822,0.2498474-0.9077606c0-0.4763489-0.0157166-0.8556976-0.2341309-0.8556976
		c-0.2537689,0-0.2537689,0.384079-0.2537689,0.625412V43.8472443z"/>
	<path d="M45.4720459,43.0292511c0.0157166-0.1514282,0.050293-0.4763641,0.335495-0.6971893
		c0.1445618-0.1104126,0.3134766-0.1482697,0.4816132-0.1482697c0.2113495,0,0.4321289,0.0725555,0.5869141,0.2854919
		c0.1209869,0.1648407,0.1296387,0.4724121,0.1296387,0.8013v1.075737c0,0.462944,0.0125732,0.511055,0.033783,0.6056976h-0.521698
		c-0.0259247-0.1088409-0.0282898-0.1703568-0.0282898-0.4172058c-0.0730591,0.1758728-0.2058411,0.4724121-0.5570374,0.4724121
		c-0.2726288,0-0.5287628-0.2097855-0.5287628-0.7429276c0-0.7508087,0.4376221-0.9495544,1.0394592-0.9937134v-0.1041107
		c0-0.2358093,0-0.4834595-0.1995697-0.4834595c-0.1893463,0-0.2254944,0.2026978-0.2419891,0.4195709L45.4720459,43.0292511z
		 M46.443161,43.6554413c-0.3221436,0.0552216-0.458847,0.159317-0.458847,0.5102692
		c0,0.1948013,0.053421,0.3407059,0.1885681,0.3407059c0.0707092,0,0.132782-0.0441589,0.1854248-0.1459045
		c0.0762024-0.1569443,0.0848541-0.3257141,0.0848541-0.5733566V43.6554413z"/>
	<path d="M47.9746094,42.2437286v0.3698883c0.0817108-0.2271271,0.1877747-0.4298248,0.5036163-0.4298248
		c0.0785675,0,0.3079834,0,0.4462585,0.2855072c0.0832825,0.1695557,0.0832825,0.4345551,0.0832825,0.7019196v1.7808075h-0.5617523
		v-1.7808075c0-0.2405548-0.01651-0.40065-0.1932831-0.40065c-0.2498474,0-0.2498474,0.2649841-0.2498474,0.5938721v1.5875854
		h-0.5617676v-2.7082977H47.9746094z"/>
	<path d="M49.6563568,42.2437286l0.2757721,1.6593628l0.2616272-1.6593628h0.4839783l-0.608902,2.7571945
		c-0.1139221,0.5102692-0.202713,0.9116974-0.6521149,0.9116974c-0.108429,0-0.1705017-0.0205078-0.2412109-0.0425873v-0.5938644
		c0.0534363,0.0102463,0.0958557,0.0141907,0.1602783,0.0141907c0.2215729,0,0.2671356-0.0646667,0.3362732-0.3880234
		l-0.5790405-2.6586075H49.6563568z"/>
	<path d="M50.8476715,41.2670441h0.5680542v0.7452393h-0.5680542V41.2670441z M51.4125824,44.9517365h-0.562561v-2.708252h0.562561
		V44.9517365z"/>
	<path d="M52.3756104,42.2437286v0.3698883c0.0817108-0.2271271,0.1869812-0.4298248,0.5036163-0.4298248
		c0.0785675,0,0.3079834,0,0.447052,0.2855072c0.082489,0.1695557,0.082489,0.4345551,0.082489,0.7019196v1.7808075h-0.5609741
		v-1.7808075c0-0.2405548-0.0172882-0.40065-0.1940613-0.40065c-0.2498474,0-0.2498474,0.2649841-0.2498474,0.5938721v1.5875854
		h-0.5617676v-2.7082977H52.3756104z"/>
	<path d="M55.525238,42.2882843c-0.0330048-0.0118256-0.069931-0.0205078-0.1225739-0.0205078
		c-0.0659943,0-0.1767731,0.0086823-0.2136993,0.2468567c0.1516266,0.2066345,0.1516266,0.482666,0.1516266,0.543396
		c0,0.5418091-0.3449097,0.8131104-0.7291107,0.8131104c-0.1233521,0-0.1964111-0.0276031-0.2671356-0.0512543
		C54.21315,43.9200439,54.21315,44.0241394,54.21315,44.0462265c0,0.1466904,0.1194153,0.1577301,0.3354797,0.1813889
		c0.4604034,0.032341,0.5986938,0.0425949,0.7424622,0.1790314c0.1555786,0.1459045,0.2089996,0.3698883,0.2089996,0.600174
		c0,0.8407211-0.6591949,0.9014511-0.9876099,0.9014511c-0.1728363,0-0.8281097,0-0.8281097-0.6443405
		c0-0.3359756,0.2011414-0.444809,0.3268585-0.5047531c-0.0652161-0.0449524-0.2616425-0.1648254-0.2616425-0.4653091
		c0-0.330452,0.2121429-0.495285,0.348053-0.6017456c-0.1233521-0.085968-0.29776-0.2161102-0.29776-0.6743164
		c0-0.6427612,0.4046173-0.8344116,0.7534637-0.8344116c0.2215576,0,0.3370514,0.0662384,0.4337006,0.1246033
		c0.029068-0.2791901,0.0754242-0.5347137,0.3834076-0.5347137c0.0762177,0,0.1123505,0.0141907,0.1547852,0.0260315V42.2882843z
		 M54.1510773,45.1613998c0,0.1932297,0.1429901,0.2728806,0.4462585,0.2728806
		c0.2930603,0,0.4164124-0.0796509,0.4164124-0.2831268c0-0.2097855-0.1374969-0.2594757-0.2231293-0.2649994
		c-0.0652161-0.0118256-0.3896942-0.0402222-0.4619751-0.0488968C54.2618561,44.881424,54.1510773,44.9579239,54.1510773,45.1613998
		 M54.3812866,43.0461884c0,0.1648407,0.0133514,0.4164276,0.1924896,0.4164276
		c0.1484833,0,0.1838379-0.1474762,0.1838379-0.4329834c0-0.3351898-0.0620575-0.4384918-0.1752014-0.4384918
		C54.4339142,42.5911407,54.3812866,42.7330933,54.3812866,43.0461884"/>
	<path d="M57.609024,41.2878571c0.2859802,0,0.5853271,0,0.7927551,0.2799835
		c0.1869812,0.2649841,0.2278442,0.6159515,0.2278442,0.8675385c0,0.3627777-0.0730743,0.732666-0.2859955,0.9503326
		c-0.2058411,0.2145233-0.5436859,0.2145233-0.7110443,0.2145233h-0.2129059v1.3517761h-0.5979156v-3.6641541H57.609024z
		 M57.4196777,41.8825073v1.0875854h0.1893463c0.2097778,0,0.3857727-0.0599365,0.3857727-0.5496979
		c0-0.5378876-0.2545624-0.5378876-0.3857727-0.5378876H57.4196777z"/>
	<path d="M58.7664032,43.0292511c0.0149384-0.1514282,0.0487213-0.4763641,0.3347015-0.6971893
		c0.1437836-0.1104126,0.3126984-0.1482697,0.480835-0.1482697c0.2129211,0,0.4337006,0.0725555,0.5869141,0.2854919
		c0.1217804,0.1648407,0.1304169,0.4724121,0.1304169,0.8013v1.075737c0,0.462944,0.0125732,0.511055,0.0330048,0.6056976H59.812149
		c-0.0259247-0.1088409-0.0298615-0.1703568-0.0298615-0.4172058c-0.0730591,0.1758728-0.2042694,0.4724121-0.5570374,0.4724121
		c-0.2710571,0-0.5279846-0.2097855-0.5279846-0.7429276c0-0.7508087,0.4368439-0.9495544,1.0402527-0.9937134v-0.1041107
		c0-0.2358093,0-0.4834595-0.2003632-0.4834595c-0.1885529,0-0.2262726,0.2026978-0.2427673,0.4195709L58.7664032,43.0292511z
		 M59.7375183,43.6554413c-0.3237152,0.0552216-0.4596252,0.159317-0.4596252,0.5102692
		c0,0.1948013,0.053421,0.3407059,0.1885529,0.3407059c0.0707092,0,0.132782-0.0441589,0.1862183-0.1459045
		c0.0762024-0.1569443,0.0848541-0.3257141,0.0848541-0.5733566V43.6554413z"/>
	<path d="M61.2314148,42.2437286v0.6530304c0.0487061-0.2310791,0.1469116-0.6924591,0.47612-0.6924591
		c0.0408478,0,0.0699158,0.0063171,0.0974274,0.0173492v0.7374115c-0.0487213-0.0102539-0.0730743-0.0102539-0.0950775-0.0102539
		c-0.4124756,0-0.4124756,0.625412-0.4124756,0.8312531v1.1719666h-0.5625458v-2.7082977H61.2314148z"/>
	<path d="M62.5072784,43.7218628c-0.004715,0.369873-0.0086365,0.7649994,0.2710724,0.7649994
		c0.2411957,0,0.2702637-0.2941742,0.2867737-0.4684677l0.5044098,0.0449524
		c-0.040863,0.2523727-0.1532135,0.9440384-0.8037567,0.9440384c-0.6199036,0-0.840683-0.6538086-0.840683-1.3738556
		c0-0.1766663,0.0157166-0.604126,0.1508484-0.9329987c0.1437836-0.3470154,0.4109192-0.5165863,0.6843262-0.5165863
		c0.3551331,0,0.5719757,0.2649994,0.6607666,0.4945068c0.1445618,0.3675232,0.1484985,0.7137451,0.1484985,1.0434113H62.5072784z
		 M63.0360565,43.2872925c0.0046997-0.1474762,0.012558-0.6049042-0.2616425-0.6049042
		c-0.2545624,0-0.2592773,0.4124756-0.2631989,0.6049042H63.0360565z"/>
	<path d="M64.4478455,42.2437286v0.3698883c0.0832672-0.2271271,0.1885529-0.4298248,0.5059662-0.4298248
		c0.0762177,0,0.3056335,0,0.4454803,0.2855072c0.0809326,0.1695557,0.0809326,0.4345551,0.0809326,0.7019196v1.7808075h-0.5609741
		v-1.7808075c0-0.2405548-0.0157166-0.40065-0.1940613-0.40065c-0.2482758,0-0.2482758,0.2649841-0.2482758,0.5938721v1.5875854
		h-0.5617676v-2.7082977H64.4478455z"/>
	<path d="M66.519455,41.3864441v0.8588715h0.3739777v0.5922852H66.519455v0.9929352c0,0.5102692,0,0.5757294,0.4022675,0.5441818
		v0.577301c-0.0817108,0.0212936-0.1964264,0.0552063-0.3488464,0.0552063c-0.1846313,0-0.388916-0.0623016-0.5044098-0.2807617
		c-0.0982056-0.1916504-0.0982056-0.4661026-0.0982056-0.8139114v-1.0749512h-0.2215729v-0.5922852h0.2498474l0.0447845-0.7965546
		L66.519455,41.3864441z"/>
	<path d="M69.7796326,43.5952759c0,0.8675308-0.2333527,1.4117126-0.8226013,1.4117126
		c-0.5829773,0-0.8226166-0.5378723-0.8226166-1.4117126c0-0.845459,0.2215576-1.4117279,0.8249664-1.4117279
		C69.558075,42.183548,69.7796326,42.7498169,69.7796326,43.5952759 M68.9570313,42.7111664
		c-0.183075,0-0.2404327,0.2192535-0.2404327,0.8841095c0,0.720047,0.0754395,0.8840942,0.2427826,0.8840942
		c0.1657715,0,0.2380676-0.1577377,0.2380676-0.8840942c0-0.698761-0.0644379-0.8841095-0.2380676-0.8841095H68.9570313z"/>
	<path d="M70.6251068,42.2437286v0.6530304c0.0487061-0.2310791,0.1484833-0.6924591,0.47612-0.6924591
		c0.0408478,0,0.0699158,0.0063171,0.0982056,0.0173492v0.7374115c-0.0494995-0.0102539-0.074646-0.0102539-0.0950623-0.0102539
		c-0.4140625,0-0.4140625,0.625412-0.4140625,0.8312531v1.1719666H70.130127v-2.7082977H70.6251068z"/>
	<path d="M73.3968353,41.2876282l0.7793884,3.6641464h-0.6112671l-0.1374817-0.7516022h-0.7684021l-0.1335602,0.7516022h-0.5531311
		l0.8186798-3.6641464H73.3968353z M73.3151245,43.5676575l-0.272644-1.4937286l-0.2671204,1.4937286H73.3151245z"/>
	<path d="M75.9130554,41.2881012v3.6633682h-0.5216827v-0.444809c-0.0573578,0.1979523-0.1422119,0.4834518-0.4627686,0.4834518
		c-0.5405579,0-0.6434784-0.8391418-0.6434784-1.3777924c0-0.216095,0-1.4054108,0.6686096-1.4054108
		c0.2695007,0,0.3527832,0.1727142,0.405426,0.2839203v-1.2027283H75.9130554z M75.3591614,43.3812256
		c0-0.2421112,0-0.6758881-0.2459259-0.6758881c-0.2168427,0-0.2459259,0.3525391-0.2459259,0.7855225
		c0,0.5276108,0,0.9779434,0.2412109,0.9779434c0.2506409,0,0.2506409-0.4124756,0.2506409-0.6112137V43.3812256z"/>
	<path d="M76.8806305,42.2437286v1.7421722c0,0.2697296,0,0.4384995,0.1940613,0.4384995
		c0.2482758,0,0.2482758-0.2145157,0.2482758-0.7973404v-1.3833313h0.5625458v2.7082977h-0.5287628v-0.3738327
		c-0.1029358,0.2310791-0.1924896,0.429039-0.5209045,0.429039c-0.5162048,0-0.5162048-0.5063324-0.5162048-1.0000381v-1.7634659
		H76.8806305z"/>
	<rect x="78.3213959" y="41.2875519" width="0.5609894" height="3.6641846"/>
	<path d="M79.9489441,41.3864441v0.8588715h0.3739777v0.5922852h-0.3739777v0.9929352c0,0.5102692,0,0.5757294,0.4030457,0.5441818
		v0.577301c-0.082489,0.0212936-0.1964264,0.0552063-0.3496246,0.0552063c-0.1830597,0-0.388916-0.0623016-0.5036316-0.2807617
		c-0.0974121-0.1916504-0.0974121-0.4661026-0.0974121-0.8139114v-1.0749512h-0.2231445v-0.5922852h0.2498474l0.0447845-0.7965546
		L79.9489441,41.3864441z"/>
	<path d="M83.6157227,42.9969025v1.9551163h-0.2545624l-0.0762177-0.4172058
		c-0.0620728,0.1261826-0.2349243,0.4724121-0.6654663,0.4724121c-0.6804047,0-1.0135345-0.8139038-1.0135345-1.8249741
		c0-0.5418243,0.0911407-1.9488068,1.0677338-1.9488068c0.7574005,0,0.8901825,0.7263641,0.9420471,1.2532043l-0.5405579,0.1190796
		c-0.029068-0.2736664-0.0683594-0.7192688-0.3896942-0.7192688c-0.3409882,0-0.447052,0.495285-0.447052,1.2476807
		c0,0.6593323,0.0730591,1.2192764,0.4682617,1.2192764c0.348053,0,0.3606262-0.4889755,0.3684845-0.7231979h-0.4109039v-0.633316
		H83.6157227z"/>
	<path d="M84.5801544,42.2437286v1.7421722c0,0.2697296,0,0.4384995,0.1932678,0.4384995
		c0.2498474,0,0.2498474-0.2145157,0.2498474-0.7973404v-1.3833313h0.5617676v2.7082977h-0.5279846v-0.3738327
		c-0.1029205,0.2310791-0.1940613,0.429039-0.5216827,0.429039c-0.5162048,0-0.5162048-0.5063324-0.5162048-1.0000381v-1.7634659
		H84.5801544z"/>
	<path d="M86.0259552,43.0292511c0.0141449-0.1514282,0.0487061-0.4763641,0.3354797-0.6971893
		c0.1429901-0.1104126,0.3111267-0.1482697,0.4800568-0.1482697c0.210556,0,0.4344788,0.0725555,0.5868988,0.2854919
		c0.1225739,0.1648407,0.1304321,0.4724121,0.1304321,0.8013v1.075737c0,0.462944,0.0125732,0.511055,0.0322113,0.6056976
		h-0.5209045c-0.0251465-0.1088409-0.0275116-0.1703568-0.0275116-0.4172058
		c-0.0738525,0.1758728-0.2058411,0.4724121-0.558609,0.4724121c-0.2710571,0-0.5295563-0.2097855-0.5295563-0.7429276
		c0-0.7508087,0.4391937-0.9495544,1.0418243-0.9937134v-0.1041107c0-0.2358093,0-0.4834595-0.2011414-0.4834595
		c-0.1885681,0-0.2247009,0.2026978-0.2412109,0.4195709L86.0259552,43.0292511z M86.9962769,43.6554413
		c-0.3237152,0.0552216-0.458847,0.159317-0.458847,0.5102692c0,0.1948013,0.0542145,0.3407059,0.1885681,0.3407059
		c0.0691376,0,0.1312103-0.0441589,0.1854248-0.1459045c0.0769958-0.1569443,0.0848541-0.3257141,0.0848541-0.5733566V43.6554413z"
		/>
	<path d="M88.4893951,42.2437286v0.6530304c0.0487061-0.2310791,0.1484833-0.6924591,0.47612-0.6924591
		c0.0408478,0,0.0707092,0.0063171,0.0982056,0.0173492v0.7374115c-0.0494995-0.0102539-0.0738525-0.0102539-0.0950623-0.0102539
		c-0.4124908,0-0.4124908,0.625412-0.4124908,0.8312531v1.1719666h-0.5617523v-2.7082977H88.4893951z"/>
	<path d="M90.806427,41.2881012v3.6633682h-0.5201111v-0.444809c-0.0565796,0.1979523-0.1437836,0.4834518-0.4627686,0.4834518
		c-0.5413361,0-0.6442566-0.8391418-0.6442566-1.3777924c0-0.216095,0-1.4054108,0.6678162-1.4054108
		c0.2710724,0,0.3543549,0.1727142,0.4069977,0.2839203v-1.2027283H90.806427z M90.2541046,43.3812256
		c0-0.2421112,0-0.6758881-0.2459259-0.6758881c-0.2184143,0-0.2451324,0.3525391-0.2451324,0.7855225
		c0,0.5276108,0,0.9779434,0.2412109,0.9779434c0.2498474,0,0.2498474-0.4124756,0.2498474-0.6112137V43.3812256z"/>
	<path d="M91.2403564,41.2670441h0.5680389v0.7452393h-0.5680389V41.2670441z M91.8052673,44.9517365h-0.5633545v-2.708252
		h0.5633545V44.9517365z"/>
	<path d="M92.2391205,43.0292511c0.01651-0.1514282,0.0487213-0.4763641,0.335495-0.6971893
		c0.1445618-0.1104126,0.3126984-0.1482697,0.4816132-0.1482697c0.2129211,0,0.434494,0.0725555,0.5853424,0.2854919
		c0.1233521,0.1648407,0.1312103,0.4724121,0.1312103,0.8013v1.075737c0,0.462944,0.0133514,0.511055,0.0322113,0.6056976
		h-0.5201263c-0.024353-0.1088409-0.0274963-0.1703568-0.0274963-0.4172058
		c-0.074646,0.1758728-0.2042847,0.4724121-0.5586243,0.4724121c-0.2718353,0-0.5279694-0.2097855-0.5279694-0.7429276
		c0-0.7508087,0.4360504-0.9495544,1.0410309-0.9937134v-0.1041107c0-0.2358093,0-0.4834595-0.2019348-0.4834595
		c-0.1885529,0-0.2262726,0.2026978-0.2411957,0.4195709L92.2391205,43.0292511z M93.2118073,43.6554413
		c-0.3244934,0.0552216-0.4604187,0.159317-0.4604187,0.5102692c0,0.1948013,0.0542145,0.3407059,0.1901398,0.3407059
		c0.0683441,0,0.1296387-0.0441589,0.1846313-0.1459045c0.0769958-0.1569443,0.0856476-0.3257141,0.0856476-0.5733566V43.6554413z"
		/>
	<path d="M94.7417603,42.2437286v0.3698883c0.0817108-0.2271271,0.1885529-0.4298248,0.505188-0.4298248
		c0.0762024,0,0.3072052,0,0.4454803,0.2855072c0.0817108,0.1695557,0.0817108,0.4345551,0.0817108,0.7019196v1.7808075h-0.5617676
		v-1.7808075c0-0.2405548-0.0157166-0.40065-0.1924896-0.40065c-0.2498474,0-0.2498474,0.2649841-0.2498474,0.5938721v1.5875854
		H94.207489v-2.7082977H94.7417603z"/>
</g>
<g>
	<path d="M45.1955719,11.9438324c-0.0754395,1.2248077-0.5971222,2.2161713-1.6020203,2.2161713
		c-1.3977203,0-1.7277069-1.7366486-1.7277069-3.1160278c0-1.0970459,0.2066345-3.122345,1.7418518-3.122345
		c0.6929779,0,1.0371094,0.4172058,1.2445221,0.8170624c0.2679138,0.5260315,0.3032684,1.1601257,0.3244934,1.5236969
		l-0.9169006,0.0914917c-0.0274963-0.4803009-0.0675659-1.3509827-0.6466064-1.3509827
		c-0.5704041,0-0.6874695,0.9156342-0.6874695,2.1412354c0,1.0181732,0.0903473,1.9330292,0.6874695,1.9330292
		c0.5452576,0,0.6191101-0.8888397,0.6552582-1.2161407L45.1955719,11.9438324z"/>
	<polygon points="49.0364532,14.0672455 48.0315552,14.0672455 48.0315552,11.5900421 46.9221802,11.5900421 46.9221802,14.0672455 
		45.9180756,14.0672455 45.9180756,8.0110626 46.9221802,8.0110626 46.9221802,10.454361 48.0315552,10.454361 
		48.0315552,8.0110626 49.0364532,8.0110626 	"/>
	<polygon points="52.8260345,8.0112915 52.8260345,9.0554962 51.041748,9.0554962 51.041748,10.4545898 52.4253235,10.4545898 
		52.4253235,11.4980011 51.041748,11.4980011 51.041748,12.9862213 52.8260345,12.9862213 52.8260345,14.0674896 
		50.0376434,14.0674896 50.0376434,8.0112915 	"/>
	<path d="M56.62323,11.9438324c-0.0754395,1.2248077-0.5994873,2.2161713-1.6035767,2.2161713
		c-1.3977356,0-1.7277222-1.7366486-1.7277222-3.1160278c0-1.0970459,0.2058563-3.122345,1.7418518-3.122345
		c0.6945496,0,1.038681,0.4172058,1.2460938,0.8170624c0.2679138,0.5260315,0.301712,1.1601257,0.3237,1.5236969
		l-0.9153137,0.0914917c-0.029068-0.4803009-0.069931-1.3509827-0.6481934-1.3509827
		c-0.5711823,0-0.6890411,0.9156342-0.6890411,2.1412354c0,1.0181732,0.0895691,1.9330292,0.6890411,1.9330292
		c0.5429077,0,0.6191254-0.8888397,0.65448-1.2161407L56.62323,11.9438324z"/>
	<polygon points="58.3479614,8.0112915 58.3479614,10.5366211 59.463623,8.0112915 60.4826508,8.0112915 59.3324127,10.2377167 
		60.5792847,14.0674896 59.5398254,14.0674896 58.7258606,11.2803345 58.3479614,12.0169525 58.3479614,14.0674896 
		57.3430634,14.0674896 57.3430634,8.0112915 	"/>
	<polygon points="65.3462677,8.0112915 65.3462677,9.1469879 64.409729,9.1469879 64.409729,14.0674896 63.4048462,14.0674896 
		63.4048462,9.1469879 62.4879456,9.1469879 62.4879456,8.0112915 	"/>
	<polygon points="68.9586029,14.0672455 67.9537048,14.0672455 67.9537048,11.5900421 66.8459015,11.5900421 66.8459015,14.0672455 
		65.8394318,14.0672455 65.8394318,8.0110626 66.8459015,8.0110626 66.8459015,10.454361 67.9537048,10.454361 
		67.9537048,8.0110626 68.9586029,8.0110626 	"/>
	<rect x="69.9609528" y="8.0111847" width="1.0041046" height="6.0561523"/>
	<path d="M73.9381714,9.7542572c-0.0542145-0.2176666-0.1846466-0.7508087-0.6474152-0.7508087
		c-0.3370514,0-0.4816132,0.3067932-0.4816132,0.5528564c0,0.4164276,0.3024902,0.5615387,0.7919617,0.8068085
		c0.5161896,0.2626343,1.2665253,0.6372528,1.2665253,1.8604736c0,1.0363159-0.5515594,1.9361877-1.6318665,1.9361877
		c-0.3291931,0-0.8257446-0.0843964-1.1973724-0.638031c-0.2529907-0.3903961-0.3378448-0.7610779-0.3928528-1.0244904
		l0.881546-0.327301c0.0549927,0.2720947,0.1854095,0.9077606,0.7361755,0.9077606
		c0.3457031,0,0.5861206-0.2531586,0.5861206-0.6538086c0-0.4258728-0.289917-0.5993805-0.6340485-0.7626343
		c-0.6253967-0.2989044-1.3843689-0.6530151-1.3843689-1.8880768c0-0.9432526,0.4611969-1.8510132,1.4676514-1.8510132
		c1.1416016,0,1.3812256,1.0087128,1.4794464,1.4077759L73.9381714,9.7542572z"/>
	<path d="M77.5146637,8.01091h1.5627136c0.4533386,0,0.9695282,0,1.2531738,0.5197296
		c0.169693,0.3075867,0.2388458,0.6979828,0.2388458,1.0781097c0,0.9724426-0.4399872,1.1901093-0.65448,1.2989502
		c0.1532135,0.073349,0.2977753,0.1364288,0.4627686,0.3722534c0.1657715,0.237381,0.3174133,0.5993805,0.3174133,1.108078
		c0,0.5252533-0.1728516,1.1341095-0.5036163,1.3983002c-0.3496399,0.280777-0.7008362,0.280777-1.1141052,0.280777h-1.5627136
		V8.01091z M78.4849854,10.4542084h0.3237c0.2757721,0,0.736969,0,0.736969-0.7531738
		c0-0.7090149-0.4611969-0.7090149-0.6615448-0.7090149h-0.3991241V10.4542084z M78.4849854,13.02211h0.4957581
		c0.4329071,0,0.6882629-0.1979523,0.6882629-0.7989197c0-0.7878723-0.468277-0.7878723-0.6961212-0.7878723h-0.4878998V13.02211z"
		/>
	<path d="M84.6840057,11.044281c0,1.1065063-0.1516418,3.1152496-1.6664276,3.1152496
		c-1.4723663,0-1.6656494-1.8999023-1.6656494-3.1152496c0-1.1616974,0.1728516-3.1223297,1.6656494-3.1223297
		C84.4773712,7.9219513,84.6840057,9.7816315,84.6840057,11.044281 M82.4118195,11.044281
		c0,1.2989502,0.0958405,2.0332031,0.6057587,2.0332031c0.5169678,0,0.6073303-0.7539673,0.6073303-2.0332031
		c0-1.2705383-0.0840759-2.0410614-0.6073303-2.0410614C82.5076599,9.0032196,82.4118195,9.7287903,82.4118195,11.044281"/>
	<polygon points="86.2450867,8.0112915 86.7950592,9.5925751 87.3725281,8.0112915 88.3373566,8.0112915 87.2554626,10.7550812 
		88.4740601,14.0674896 87.3725281,14.0674896 86.6976318,12.0903015 85.9488831,14.0674896 84.984848,14.0674896 
		86.2450867,10.9632874 85.1231232,8.0112915 	"/>
	<polygon points="44.7489929,17.0987396 44.7489929,18.1429443 43.0354156,18.1429443 43.0354156,19.7218628 44.3561401,19.7218628 
		44.3561401,20.7660522 43.0354156,20.7660522 43.0354156,23.1549377 42.0297394,23.1549377 42.0297394,17.0987396 	"/>
	<path d="M48.3822784,20.129364c0,1.1088715-0.1508484,3.1144562-1.6656342,3.1144562
		c-1.4731598,0-1.6664429-1.8967438-1.6664429-3.1144562c0-1.1616974,0.1720734-3.1231232,1.6664429-3.1231232
		C48.1756439,17.0062408,48.3822784,18.8690796,48.3822784,20.129364 M46.1108856,20.129364
		c0,1.2989502,0.0974121,2.0339813,0.6057587,2.0339813c0.5161896,0,0.6049652-0.7516022,0.6049652-2.0339813
		c0-1.2705383-0.0817108-2.0426483-0.6049652-2.0426483C46.2082977,18.0867157,46.1108856,18.8130798,46.1108856,20.129364"/>
	<path d="M50.6579437,17.0988312c0.4604034,0,0.9082489,0,1.2586517,0.516571
		c0.2404175,0.3541107,0.33078,0.8359833,0.33078,1.3147125c0,1.074173-0.4195557,1.3998871-0.6473999,1.582077l0.8469543,2.6428223
		h-1.0999451l-0.6136169-2.3888855h-0.509903v2.3888855h-1.0048981v-6.0561829H50.6579437z M50.223465,18.0791321v1.7066956
		h0.4478302c0.4337006,0,0.5931854-0.3714752,0.5931854-0.870697c0-0.8359985-0.4627686-0.8359985-0.6348267-0.8359985H50.223465z"
		/>
	<path d="M56.9653931,18.8416138c-0.0534363-0.2168732-0.1854248-0.7547455-0.6474152-0.7547455
		c-0.3370514,0-0.480835,0.31073-0.480835,0.5536499c0,0.417984,0.3024902,0.564682,0.7911835,0.8091736
		c0.516983,0.262619,1.2665253,0.6348724,1.2665253,1.8620453c0,1.0331573-0.550766,1.9322357-1.6302948,1.9322357
		c-0.3307648,0-0.8265381-0.0812378-1.1981659-0.6348724c-0.2545624-0.3903961-0.338623-0.7610779-0.393631-1.026062
		l0.8823242-0.3265076c0.0549927,0.2720795,0.186203,0.9069672,0.736969,0.9069672
		c0.3425598,0,0.584549-0.253952,0.584549-0.6530151c0-0.4250946-0.2883453-0.5986023-0.6340485-0.763443
		c-0.6261902-0.2989044-1.3827972-0.6545868-1.3827972-1.888855c0-0.944046,0.4611969-1.8517914,1.4676514-1.8517914
		c1.1416016,0,1.382019,1.0086975,1.478653,1.4085541L56.9653931,18.8416138z"/>
	<path d="M59.971344,17.0988312c0.4839783,0,0.9852448,0,1.329361,0.4637299
		c0.3158569,0.4345551,0.3849945,1.0158081,0.3849945,1.4330139c0,0.5993805-0.1233521,1.2074585-0.4824066,1.5702362
		c-0.3425598,0.3549042-0.9090424,0.3549042-1.188736,0.3549042h-0.3590546v2.2342987H58.649826v-6.0561829H59.971344z
		 M59.6555023,18.0791321v1.7966003h0.3158417c0.3519745,0,0.6473999-0.098587,0.6473999-0.9077606
		c0-0.8888397-0.4250641-0.8888397-0.6473999-0.8888397H59.6555023z"/>
	<polygon points="65.0915527,17.0987396 65.0915527,18.1429443 63.3080444,18.1429443 63.3080444,19.5396729 64.6916351,19.5396729 
		64.6916351,20.584671 63.3080444,20.584671 63.3080444,22.0736694 65.0915527,22.0736694 65.0915527,23.1549377 
		62.3039398,23.1549377 62.3039398,17.0987396 	"/>
	<path d="M68.8886719,21.0289154c-0.0754395,1.2263947-0.5986938,2.2153778-1.6027985,2.2153778
		c-1.3969421,0-1.7277069-1.7342834-1.7277069-3.1152344c0-1.0970459,0.2050629-3.1231384,1.7410583-3.1231384
		c0.6953278,0,1.038681,0.4195709,1.2460938,0.818634c0.2679138,0.5260468,0.301712,1.1609192,0.3229218,1.5252991
		l-0.9145355,0.0891113c-0.0298615-0.4803009-0.069931-1.3517761-0.6481934-1.3517761
		c-0.5704041,0-0.6882477,0.9172211-0.6882477,2.1420288c0,1.0165863,0.0895691,1.9338074,0.6882477,1.9338074
		c0.5444794,0,0.6183319-0.888031,0.6536865-1.2161255L68.8886719,21.0289154z"/>
	<rect x="69.6097565" y="17.0990753" width="1.0048828" height="6.0561523"/>
	<polygon points="74.3363495,17.0987396 74.3363495,18.1429443 72.6227722,18.1429443 72.6227722,19.7218628 73.9442902,19.7218628 
		73.9442902,20.7660522 72.6227722,20.7660522 72.6227722,23.1549377 71.6178894,23.1549377 71.6178894,17.0987396 	"/>
	<rect x="74.8031158" y="17.0990753" width="1.0056763" height="6.0561523"/>
	<path d="M79.9788818,21.0289154c-0.0770111,1.2263947-0.5994873,2.2153778-1.6043701,2.2153778
		c-1.3969421,0-1.7269287-1.7342834-1.7269287-3.1152344c0-1.0970459,0.2050629-3.1231384,1.7418518-3.1231384
		c0.6945496,0,1.038681,0.4195709,1.2437439,0.818634c0.268692,0.5260468,0.3040619,1.1609192,0.3244781,1.5252991
		l-0.9161072,0.0891113c-0.0267029-0.4803009-0.0683441-1.3517761-0.6466064-1.3517761
		c-0.5704041,0-0.6882629,0.9172211-0.6882629,2.1420288c0,1.0165863,0.0895691,1.9338074,0.6882629,1.9338074
		c0.5444794,0,0.6199036-0.888031,0.6544647-1.2161255L79.9788818,21.0289154z"/>
	<path d="M85.7563934,21.0289154c-0.0754395,1.2263947-0.6002655,2.2153778-1.6035767,2.2153778
		c-1.3977356,0-1.7285004-1.7342834-1.7285004-3.1152344c0-1.0970459,0.2066345-3.1231384,1.74263-3.1231384
		c0.6929779,0,1.0394592,0.4195709,1.2460938,0.818634c0.2679138,0.5260468,0.301712,1.1609192,0.3237,1.5252991
		l-0.9153137,0.0891113c-0.0274963-0.4803009-0.069931-1.3517761-0.6481934-1.3517761
		c-0.5711823,0-0.6890411,0.9172211-0.6890411,2.1420288c0,1.0165863,0.0895691,1.9338074,0.6890411,1.9338074
		c0.5437012,0,0.620697-0.888031,0.65448-1.2161255L85.7563934,21.0289154z"/>
	<path d="M89.6436157,20.129364c0,1.1088715-0.1516266,3.1144562-1.6672058,3.1144562
		c-1.4715881,0-1.6640778-1.8967438-1.6640778-3.1144562c0-1.1616974,0.1712799-3.1231232,1.6640778-3.1231232
		C89.4369812,17.0062408,89.6436157,18.8690796,89.6436157,20.129364 M87.3722229,20.129364
		c0,1.2989502,0.0950623,2.0339813,0.604187,2.0339813c0.5177612,0,0.6065369-0.7516022,0.6065369-2.0339813
		c0-1.2705383-0.082489-2.0426483-0.6065369-2.0426483C87.4672852,18.0867157,87.3722229,18.8130798,87.3722229,20.129364"/>
	<polygon points="91.5606995,17.0987396 92.7384338,20.8567505 92.7384338,17.0987396 93.5225372,17.0987396 93.5225372,23.1549377 
		92.6213684,23.1549377 91.2236328,18.7691498 91.2236328,23.1549377 90.4379578,23.1549377 90.4379578,17.0987396 	"/>
	<polygon points="96.8249207,17.0987396 96.8249207,18.2320709 95.8891602,18.2320709 95.8891602,23.1549377 94.8827057,23.1549377 
		94.8827057,18.2320709 93.9681702,18.2320709 93.9681702,17.0987396 	"/>
	<polygon points="100.1065521,17.0987396 100.1065521,18.1429443 98.3230438,18.1429443 98.3230438,19.5396729 
		99.7074127,19.5396729 99.7074127,20.584671 98.3230438,20.584671 98.3230438,22.0736694 100.1065521,22.0736694 
		100.1065521,23.1549377 97.318161,23.1549377 97.318161,17.0987396 	"/>
	<polygon points="101.8168335,17.0987396 102.9945679,20.8567505 102.9945679,17.0987396 103.7794647,17.0987396 
		103.7794647,23.1549377 102.8790741,23.1549377 101.4805603,18.7691498 101.4805603,23.1549377 100.6964417,23.1549377 
		100.6964417,17.0987396 	"/>
	<polygon points="107.0824738,17.0987396 107.0824738,18.2320709 106.1467133,18.2320709 106.1467133,23.1549377 
		105.1410522,23.1549377 105.1410522,18.2320709 104.2257233,18.2320709 104.2257233,17.0987396 	"/>
	<rect x="42.0299835" y="26.185257" width="1.005661" height="6.0561523"/>
	<polygon points="45.1203766,26.185318 46.2965393,29.9433289 46.2965393,26.185318 47.0814362,26.185318 47.0814362,32.2415161 
		46.1794739,32.2415161 44.7833099,27.8557281 44.7833099,32.2415161 43.9984131,32.2415161 43.9984131,26.185318 	"/>
	<polygon points="50.7613373,26.185318 50.7613373,27.2303162 49.0485382,27.2303162 49.0485382,28.8084412 50.3700562,28.8084412 
		50.3700562,29.8526306 49.0485382,29.8526306 49.0485382,32.2415161 48.0428772,32.2415161 48.0428772,26.185318 	"/>
	<path d="M54.3946381,29.2160187c0,1.1088715-0.1516266,3.1152496-1.6672058,3.1152496
		c-1.4723663,0-1.6640778-1.8967438-1.6640778-3.1152496c0-1.1624908,0.1712799-3.1223297,1.6640778-3.1223297
		C54.1872253,26.093689,54.3946381,27.9557343,54.3946381,29.2160187 M52.1232452,29.2160187
		c0,1.2989502,0.0958405,2.0347748,0.604187,2.0347748c0.5177612,0,0.6073303-0.7523956,0.6073303-2.0347748
		c0-1.2697449-0.0840759-2.0410614-0.6073303-2.0410614C52.2190857,27.1749573,52.1232452,27.9013214,52.1232452,29.2160187"/>
	<path d="M56.6694183,26.1854858c0.4611969,0,0.9098206,0,1.2602386,0.516571
		c0.2411957,0.3556824,0.3307648,0.8359833,0.3307648,1.3162842c0,1.0726013-0.4211121,1.3991089-0.6481781,1.5812836
		l0.8461761,2.6420441h-1.0991669l-0.6136169-2.3888855h-0.5083313v2.3888855h-1.0056763v-6.0561829H56.6694183z
		 M56.2373047,27.1657867v1.7059021h0.4462585c0.4352722,0,0.5916138-0.3706818,0.5916138-0.8699036
		c0-0.8359985-0.4619751-0.8359985-0.633255-0.8359985H56.2373047z"/>
	<polygon points="60.598465,26.185318 61.2450714,29.9252014 61.9741821,26.185318 63.4057007,26.185318 63.4057007,32.2415161 
		62.4636688,32.2415161 62.4636688,27.1656342 61.5279236,32.2415161 60.7901611,32.2415161 59.9376984,27.1656342 
		59.9376984,32.2415161 59.1182404,32.2415161 59.1182404,26.185318 	"/>
	<path d="M66.232666,26.1856384l1.3089447,6.0554047h-1.026886l-0.2333527-1.2445221h-1.2869415l-0.2286377,1.2445221h-0.9286804
		l1.3773041-6.0554047H66.232666z M66.0943909,29.9538879l-0.4596252-2.4693146l-0.4486237,2.4693146H66.0943909z"/>
	<polygon points="70.4010315,26.185318 70.4010315,27.3194275 69.4644928,27.3194275 69.4644928,32.2415161 68.4611816,32.2415161 
		68.4611816,27.3194275 67.5450745,27.3194275 67.5450745,26.185318 	"/>
	<rect x="70.8959198" y="26.185257" width="1.0056763" height="6.0561523"/>
	<path d="M76.0705719,29.2160187c0,1.1088715-0.15242,3.1152496-1.6656342,3.1152496
		c-1.4731598,0-1.6656494-1.8967438-1.6656494-3.1152496c0-1.1624908,0.1728516-3.1223297,1.6656494-3.1223297
		C75.8639374,26.093689,76.0705719,27.9557343,76.0705719,29.2160187 M73.7991791,29.2160187
		c0,1.2989502,0.0958405,2.0347748,0.6057587,2.0347748c0.5177612,0,0.6049652-0.7523956,0.6049652-2.0347748
		c0-1.2697449-0.0817108-2.0410614-0.6049652-2.0410614C73.8950195,27.1749573,73.7991791,27.9013214,73.7991791,29.2160187"/>
	<polygon points="77.9877319,26.185318 79.1654663,29.9433289 79.1654663,26.185318 79.9487915,26.185318 79.9487915,32.2415161 
		79.0499725,32.2415161 77.6506653,27.8557281 77.6506653,32.2415161 76.8665619,32.2415161 76.8665619,26.185318 	"/>
</g>
<path display="none" d="M18.1404572,25.9276581c0.5578308,0.7453003,0.9868011,1.3478394,0.9868011,1.3478394
	c0.7605438,1.0118561,4.380188,7.0672607,5.9963379,7.2044983l8.0807343,0.0110321
	c1.3278046-0.0236511,1.6169281-1.7839661,0.1217804-2.1633148c-0.6403351-0.2121582-2.6673889-0.3619995-5.3300629-3.724884
	c-1.5517273-1.9148865-2.9659576-3.6759949-3.6227875-4.591629c3.7076416,0,4.9914398-1.1065063,5.037796-5.329834
	c0.0400696-7.3693237-2.8826752-6.1161346-10.8981934-6.2943726c0,0-12.4986191-0.0417938-12.797966-0.0599365
	c-2.7137451-0.085968-3.5292816,2.2216797,0.1814957,2.3983459c1.9099884,0.1380157,2.9062347,1.1506653,3.0500031,3.9543915
	v9.9877014c-0.1147003,2.8881073-0.1665649,3.5395508-3.6039124,3.8155823
	c-1.8762054,0.0236664-2.1221237,1.9992828,0.4462662,2.014267c0.3512039-0.0102539,12.4247665-0.0173492,12.4365463-0.0173492
	c2.7679596,0.1111908,2.5086823-1.905426,0.6866913-2.0008545c-2.4159698-0.1837616-3.552063,0.201889-3.6384888-2.8691864
	c-0.0133514-0.3288727-0.069931-2.1577911-0.069931-2.7445679C15.2106476,24.2399139,17.1614838,24.4978027,18.1404572,25.9276581
	 M22.5795593,18.6174774c-0.0777893,3.6807251-0.719696,3.3960114-4.1374054,3.4780426c-0.4109192,0.0102539-2.379837,0-3.1042328,0
	c0.0251465-1.1412048,0.0251465-5.9710236,0.0251465-5.9710236c0-0.7973328,0.4486237-1.3770142,1.2987213-1.4054108
	C22.4750519,14.536911,22.6518402,15.2017517,22.5795593,18.6174774"/>
<path fill="#D71920" d="M18.0935268,25.9276581c0.5578308,0.7453003,0.9868011,1.3478394,0.9868011,1.3478394
	c0.7605438,1.0118561,4.380188,7.0672607,5.9963379,7.2044983l8.0807323,0.0110321
	c1.3278046-0.0236511,1.6169281-1.7839661,0.1217804-2.1633148c-0.6403351-0.2121582-2.667387-0.3619995-5.330061-3.724884
	c-1.5517273-1.9148865-2.9659576-3.6759949-3.6227875-4.591629c3.7076416,0,4.9914398-1.1065063,5.037796-5.329834
	c0.0400696-7.3693237-2.8826752-6.1161346-10.8981934-6.2943726c0,0-12.4986191-0.0417938-12.797966-0.0599365
	c-2.7137451-0.085968-3.5292816,2.2216797,0.1814957,2.3983459c1.9099884,0.1380157,2.9062352,1.1506653,3.0500035,3.9543915
	v9.9877014c-0.1147003,2.8881073-0.1665649,3.5395508-3.6039128,3.8155823
	c-1.8762054,0.0236664-2.1221237,1.9992828,0.4462662,2.014267c0.3512039-0.0102539,12.4247665-0.0173492,12.4365463-0.0173492
	c2.7679596,0.1111908,2.5086823-1.905426,0.6866913-2.0008545c-2.4159698-0.1837616-3.552063,0.201889-3.6384888-2.8691864
	c-0.0133514-0.3288727-0.069931-2.1577911-0.069931-2.7445679C15.1637173,24.2399139,17.1145535,24.4978027,18.0935268,25.9276581
	 M22.532629,18.6174774c-0.0777893,3.6807251-0.719696,3.3960114-4.1374054,3.4780426c-0.4109192,0.0102539-2.379837,0-3.1042328,0
	c0.0251465-1.1412048,0.0251465-5.9710236,0.0251465-5.9710236c0-0.7973328,0.4486237-1.3770142,1.2987213-1.4054108
	C22.4281216,14.536911,22.6049099,15.2017517,22.532629,18.6174774"/>
<g>
</g>
<g>
</g>
<g>
</g>
<g>
</g>
<g>
</g>
<g>
</g>
</svg>
