<svg xmlns="http://www.w3.org/2000/svg" xmlns:svg="http://www.w3.org/2000/svg" viewBox="0 0 83.38 52.93">
 <g class="layer">
  <title>Layer 1</title>
  <path d="m82.54,26.48c0,-13.41 -9.56,-24.68 -21.76,-25.64c0,0 -0.59,-0.03 -0.93,-0.04l0,-0.01l-0.01,0c-10.27,-0.24 -25.93,-0.39 -36.25,0l-0.05,0l0,0.01l-0.93,0.04c-12.2,0.96 -21.76,12.23 -21.76,25.64c0,13.81 10.15,25.21 22.69,25.67l0,0.01l0.01,0c10.29,0.24 25.97,0.39 36.27,0.01l0,-0.01l0.04,0l0,-0.01c12.55,-0.45 22.69,-11.85 22.69,-25.67" fill="#FFF" id="svg_10"/>
  <path d="m60.34,50.13l-0.03,0.01l-0.01,0c-0.79,0.13 -4.48,0.23 -9.25,0.28c-10.29,0.09 -25.64,0.01 -27.99,-0.28c-9.03,-0.41 -16.49,-6.87 -19.33,-15.75l75.92,0c-2.84,8.88 -10.29,15.33 -19.31,15.73m-37.29,-47.33c2.53,-0.4 33.84,-0.4 37.25,0c11.56,0.52 20.59,10.92 20.59,23.68c0,1.92 -0.23,3.79 -0.61,5.57l-77.17,0c-0.39,-1.79 -0.63,-3.65 -0.63,-5.57c0,-12.76 9.04,-23.15 20.57,-23.68m60.33,23.68c0,-13.69 -9.76,-25.19 -22.21,-26.16c0,0 -0.6,-0.03 -0.96,-0.04l0,-0.03c-10.48,-0.24 -26.47,-0.39 -37,0l-0.05,0l0,0.03l-0.95,0.04c-12.45,0.97 -22.21,12.47 -22.21,26.16c0,14.09 10.36,25.73 23.16,26.19l0,0.03l0.01,0c10.51,0.24 26.51,0.39 37.01,0l0.03,0l0,-0.03c12.81,-0.45 23.17,-12.09 23.17,-26.19" fill="#094" id="svg_11"/>
  <path d="m52.36,42.97l0.85,0l0,1.15l-0.85,0l0,-1.15zm1.71,0l0.84,0l0,1.15l-0.84,0l0,-1.15zm1.69,0l0.87,0l0,1.15l-0.87,0l0,-1.15zm-4.37,4.57l0.97,0l0,-2.09l0.85,0l0,2.09l0.85,0l0,-2.09l0.84,0l0,2.09l0.85,0l0,-2.09l0.87,0l0,0.47c0,0.48 -0.08,0.76 -0.71,0.87l0.56,0.93c0.59,-0.17 1.11,-0.49 1.11,-1.79l0,-4.28l-6.2,0l0,5.89l0.01,0zm3.01,-9.72l0.19,0c0.31,0.72 0.79,1.36 1.31,1.88l-2.81,0c0.52,-0.52 1,-1.16 1.32,-1.88m-1.81,2.33l0,0.85l3.8,0l0,-0.85c0.37,0.32 0.75,0.59 1.11,0.77l0.88,-1.16c-1.4,-0.47 -2.71,-1.48 -3.33,-2.65l-1.11,0c-0.59,1.11 -1.79,2.07 -3.09,2.56c0.29,-0.77 0.48,-1.63 0.61,-2.56l-1,0c-0.35,1.43 -0.97,3.13 -2.59,4.56l0.84,1.37c0.27,-0.27 0.49,-0.53 0.72,-0.8l0,5.29l1.11,0l0,-7.09c0.08,-0.17 0.13,-0.35 0.2,-0.51l0.75,0.99c0.35,-0.19 0.75,-0.45 1.11,-0.77" fill="#094" id="svg_12"/>
  <path d="m28.46,46.34l0,-2.53l2.31,0c-0.2,1.33 -1.28,2.09 -2.31,2.53m1.75,-6.89l1,0l0,2.96l-1,0l0,-2.96zm3.11,2.96l-0.99,0l0,-2.96l0.99,0l0,2.96zm-6.87,0.55l1.05,0l0,3.15l-1.05,0l0,-3.15zm1.05,-1.28l-1.07,0l0,-2.75l1.07,0l0,2.75zm5.25,2.13l2.32,0l0,-1.4l-0.79,0l0,-4.24l-1.96,0l0,-1.05l-1.12,0l0,1.05l-1.96,0l0,4.24l-0.79,0l0,-4.76l-2.99,0l0,9.73l2.99,0l0,-0.6l0.79,0.93c1.49,-0.87 2.19,-2.23 2.48,-3.65l0.08,0c0.29,1.43 0.99,2.79 2.48,3.65l1.07,-1.25c-1.11,-0.41 -2.37,-1.21 -2.6,-2.65" fill="#094" id="svg_13"/>
  <path d="m49.5,25.72l0,-9.32l-7.52,0l0,3.13l4.05,0l0,4.08c-1.33,0.83 -2.65,1.17 -4.44,1.17c-2.05,0 -3.48,-0.55 -4.55,-1.81c-1.17,-1.39 -1.77,-3.27 -1.77,-5.97c0,-2.67 0.63,-4.6 1.93,-5.96c0.99,-1.03 2.43,-1.6 3.97,-1.6c1.47,0 2.51,0.25 3.29,0.85c0.47,0.32 1.13,0.95 1.72,2.27l3.03,-1.47c-0.36,-1.11 -1.05,-1.99 -1.65,-2.6c-1.47,-1.39 -3.61,-2.17 -5.95,-2.17c-2.4,0 -4.17,0.47 -5.8,1.55c-2.72,1.84 -4.19,5.03 -4.19,9.19c0,3.25 0.87,6.08 2.45,7.96c1.65,2 4.17,3.01 7.43,3.01a16,16 0 0 0 3.87,-0.49c1.39,-0.36 2.28,-0.79 4.13,-1.8l-0.01,-0.01l0.01,-0.01z" fill="#094" id="svg_14"/>
 </g>
</svg>