<svg xmlns="http://www.w3.org/2000/svg" xmlns:svg="http://www.w3.org/2000/svg" viewBox="0 0 83.37 52.92">
 <g class="layer">
  <title>Layer 1</title>
  <path d="m82.53,26.49c0,-13.43 -9.56,-24.68 -21.77,-25.64c0,0 -0.59,-0.03 -0.93,-0.04l0,-0.01l-0.01,0c-10.27,-0.24 -25.92,-0.39 -36.24,0l-0.05,0l0,0.01l-0.93,0.04c-12.21,0.96 -21.76,12.21 -21.76,25.64c0,13.81 10.15,25.21 22.69,25.67l0,0.01l0.01,0c10.29,0.25 25.97,0.4 36.25,0.01l0,-0.01l0.04,0l0,-0.01c12.56,-0.45 22.71,-11.85 22.71,-25.67" fill="#FFF" id="svg_15"/>
  <path d="m60.32,50.15l-0.01,0l-0.01,0.01c-0.79,0.13 -4.48,0.21 -9.27,0.27c-10.29,0.11 -25.63,0.01 -27.99,-0.27c-9.01,-0.43 -16.48,-6.87 -19.33,-15.75l75.92,0c-2.84,8.88 -10.29,15.32 -19.31,15.73m-37.28,-47.36c2.53,-0.39 33.84,-0.39 37.25,0c11.56,0.55 20.59,10.95 20.59,23.69c0,1.92 -0.23,3.79 -0.61,5.57l-77.18,0c-0.39,-1.79 -0.61,-3.65 -0.61,-5.57c0,-12.75 9.03,-23.15 20.57,-23.69m60.32,23.69c0,-13.69 -9.75,-25.19 -22.21,-26.16c0,0 -0.59,-0.03 -0.95,-0.04l0,-0.03l-0.01,0c-10.47,-0.23 -26.45,-0.39 -36.99,0l-0.05,0l0,0.03l-0.96,0.04c-12.44,0.97 -22.2,12.47 -22.2,26.16c0,14.09 10.36,25.73 23.16,26.19l0,0.01l0.01,0c10.49,0.25 26.51,0.4 37,0.03l0,-0.03l0.05,0l-0.01,-0.01c12.81,-0.45 23.16,-12.09 23.16,-26.19" fill="#00A0E9" id="svg_16"/>
  <path d="m52.11,42.99l0.87,0l0,1.12l-0.87,0l0,-1.12zm1.71,0l0.84,0l0,1.12l-0.84,0l0,-1.12zm1.71,0l0.85,0l0,1.12l-0.85,0l0,-1.12zm-4.39,4.56l0.97,0l0,-2.09l0.87,0l0,2.09l0.84,0l0,-2.09l0.85,0l0,2.09l0.85,0l0,-2.09l0.85,0l0,0.48c0,0.45 -0.08,0.76 -0.71,0.85l0.57,0.93c0.59,-0.17 1.09,-0.49 1.09,-1.77l0,-4.29l-6.2,0l0,5.89l0.02,0zm3,-9.72l0.2,0c0.31,0.71 0.79,1.35 1.32,1.89l-2.83,0c0.51,-0.55 1,-1.19 1.31,-1.89m-1.8,2.35l0,0.84l3.8,0l0,-0.84c0.37,0.32 0.77,0.56 1.12,0.76l0.87,-1.16c-1.4,-0.47 -2.71,-1.49 -3.33,-2.65l-1.11,0c-0.59,1.11 -1.79,2.07 -3.09,2.56c0.29,-0.79 0.48,-1.63 0.63,-2.56l-1,0c-0.35,1.43 -0.97,3.13 -2.59,4.57l0.84,1.36c0.25,-0.27 0.49,-0.53 0.69,-0.81l0,5.31l1.13,0l0,-7.09c0.07,-0.16 0.13,-0.33 0.2,-0.51l0.73,0.99c0.36,-0.2 0.75,-0.44 1.11,-0.76" fill="#00A0E9" id="svg_17"/>
  <path d="m28.21,46.35l0,-2.53l2.32,0c-0.21,1.33 -1.29,2.11 -2.32,2.53m1.75,-6.89l1,0l0,2.96l-1,0l0,-2.96zm3.11,2.96l-0.99,0l0,-2.96l0.99,0l0,2.96zm-6.88,0.55l1.07,0l0,3.13l-1.07,0l0,-3.13zm1.07,-1.27l-1.07,0l0,-2.76l1.07,0l0,2.76zm5.25,2.12l2.32,0l0,-1.4l-0.79,0l0,-4.23l-1.96,0l0,-1.07l-1.12,0l0,1.07l-1.96,0l0,4.23l-0.79,0l0,-4.76l-2.97,0l0,9.73l2.97,0l0,-0.6l0.79,0.93c1.51,-0.85 2.19,-2.23 2.48,-3.67l0.08,0c0.31,1.44 0.99,2.81 2.49,3.67l1.04,-1.25c-1.09,-0.41 -2.35,-1.2 -2.59,-2.65" fill="#00A0E9" id="svg_18"/>
  <path d="m33.61,9.7c-2,1.55 -3.15,4.53 -3.15,8.16c0,2.91 0.68,5.48 1.85,7.11c1.23,1.73 3.09,2.61 5.56,2.61c0.96,0 2,-0.15 2.87,-0.41c1.03,-0.32 1.73,-0.67 3.13,-1.57l0,-8.4l-5.76,0l0,2.91l3.03,0l0,3.53c-0.95,0.68 -1.91,0.99 -3.2,0.99c-1.52,0 -2.53,-0.47 -3.29,-1.53c-0.87,-1.17 -1.31,-2.95 -1.31,-5.27s0.49,-4.15 1.41,-5.28c0.71,-0.84 1.76,-1.33 2.87,-1.33c1.08,0 1.83,0.23 2.37,0.72c0.51,0.39 0.93,1.04 1.25,1.92l0.04,0.09l2.39,-1.36l-0.01,-0.08a5.87,5.87 0 0 0 -1.24,-2.25c-1.11,-1.23 -2.69,-1.91 -4.47,-1.91c-1.8,0 -3.13,0.43 -4.35,1.36" fill="#00A0E9" id="svg_19"/>
  <path d="m48.27,8.66l0,2.85l2.52,0l0,15.96l3.17,0l0,-18.81l-5.69,0z" fill="#00A0E9" id="svg_20"/>
  <path d="m22.85,18.35l-3.77,0l0,-6.73l3.77,0s2.69,-0.04 2.71,3.4c0.01,3.41 -2.71,3.33 -2.71,3.33m5.75,-3.71c-0.01,-0.68 -0.2,-2.28 -1.03,-3.61c0,0 -1.32,-2.4 -4.83,-2.37l-6.67,0l0,18.81l3,0l0,-6.15l3.77,-0.01c3.51,0.03 4.72,-2.36 4.72,-2.36c1.07,-1.73 1.01,-3.92 1.01,-3.92s0.01,-0.16 0.01,-0.39" fill="#00A0E9" id="svg_22"/>
  <path d="m57.13,27.47l12.43,0l0,-2.77l-8.76,-0.03c0.43,-2.53 3.53,-4.55 3.53,-4.55c2.43,-1.59 3.59,-2.88 3.59,-2.88c1.91,-2.05 1.41,-4.53 1.41,-4.53c-0.41,-2.88 -2.97,-3.83 -2.97,-3.83c-3.83,-1.73 -8,-0.47 -9.61,4.04c0.36,0.17 2.69,1.28 2.69,1.28c1.68,-4.67 5.6,-2.65 5.6,-2.65c1.61,0.77 1.19,2.61 1.19,2.61c-0.16,1.36 -2.35,2.69 -2.35,2.69c-2.65,1.87 -3.96,3.48 -3.96,3.48c-1.88,2 -2.55,4.37 -2.79,7.13" fill="#00A0E9" id="svg_23"/>
 </g>
</svg>