<svg xmlns="http://www.w3.org/2000/svg" xmlns:svg="http://www.w3.org/2000/svg" viewBox="0 0 75.29 52.92">
 <g class="layer">
  <title>Layer 1</title>
  <path d="m68.1,0.54l-60.92,0c-3.55,0 -6.44,2.88 -6.44,6.43l0,39c0,3.55 2.89,6.43 6.44,6.43l60.92,0c3.55,0 6.44,-2.88 6.44,-6.43l0,-39c0,-3.55 -2.89,-6.43 -6.44,-6.43" fill="#FFF" id="svg_24"/>
  <path d="m48.37,43.05l0.87,0l0,1.15l-0.87,0l0,-1.15zm1.71,0l0.85,0l0,1.15l-0.85,0l0,-1.15zm1.69,0l0.87,0l0,1.15l-0.87,0l0,-1.15zm-4.36,4.57l0.96,0l0,-2.09l0.87,0l0,2.09l0.84,0l0,-2.09l0.85,0l0,2.09l0.84,0l0,-2.09l0.87,0l0,0.47c0,0.47 -0.08,0.76 -0.69,0.87l0.55,0.93c0.6,-0.17 1.11,-0.49 1.11,-1.79l0,-4.28l-6.19,0l0,5.89l-0.01,0zm3,-9.72l0.19,0c0.32,0.72 0.79,1.36 1.31,1.89l-2.81,0c0.52,-0.53 1.01,-1.17 1.32,-1.89m-1.8,2.35l0,0.84l3.79,0l0,-0.84c0.37,0.31 0.76,0.57 1.12,0.76l0.87,-1.16c-1.4,-0.45 -2.71,-1.47 -3.33,-2.64l-1.09,0c-0.6,1.09 -1.8,2.07 -3.09,2.55c0.28,-0.77 0.47,-1.63 0.61,-2.55l-1.01,0c-0.33,1.43 -0.96,3.12 -2.59,4.56l0.85,1.36c0.25,-0.25 0.49,-0.53 0.72,-0.8l0,5.29l1.11,0l0,-7.09c0.07,-0.16 0.13,-0.33 0.2,-0.51l0.73,0.99c0.36,-0.19 0.75,-0.45 1.12,-0.76" fill="#E4007F" id="svg_25"/>
  <path d="m24.5,46.43l0,-2.52l2.31,0c-0.2,1.31 -1.28,2.08 -2.31,2.52m1.75,-6.88l1,0l0,2.95l-1,0l0,-2.95zm3.11,2.95l-1,0l0,-2.95l1,0l0,2.95zm-6.87,0.56l1.05,0l0,3.13l-1.05,0l0,-3.13zm1.05,-1.28l-1.05,0l0,-2.75l1.05,0l0,2.75zm5.25,2.13l2.31,0l0,-1.41l-0.79,0l0,-4.23l-1.96,0l0,-1.05l-1.11,0l0,1.05l-1.96,0l0,4.23l-0.79,0l0,-4.76l-2.99,0l0,9.73l2.99,0l0,-0.6l0.79,0.93c1.49,-0.87 2.19,-2.23 2.47,-3.65l0.09,0c0.29,1.43 0.97,2.79 2.48,3.65l1.07,-1.25c-1.12,-0.41 -2.37,-1.21 -2.6,-2.64" fill="#E4007F" id="svg_26"/>
  <path d="m68.73,50.36l-62.17,0a4.01,4.01 0 0 1 -4.01,-4l0,-11.55l70.18,0l0,11.55c0,2.2 -1.8,4 -4,4m-62.17,-47.8l62.17,0c2.2,0 4,1.8 4,4.01l0,25.89l-70.18,0l0,-25.89c0,-2.21 1.8,-4.01 4.01,-4.01m62.17,-2.56l-62.17,0c-3.61,0 -6.56,2.95 -6.56,6.57l0,39.79a6.57,6.57 0 0 0 6.56,6.56l62.17,0a6.57,6.57 0 0 0 6.56,-6.56l0,-39.79c0,-3.63 -2.95,-6.57 -6.56,-6.57" fill="#E4007F" id="svg_27"/>
  <path d="m28.22,7.92l0,2.92l2.37,0l0,16.07l3.21,0l0,-18.99l-5.59,0l0.01,0z" fill="#E4007F" id="svg_28"/>
  <path d="m50.94,17.39s-1.44,-3.12 -5.77,-3.07c0,0 -1.72,-0.07 -3.27,0.96l0.4,-4.44l8.49,0l0,-2.91l-11.23,0l-0.89,11.07l2.85,0.28s0.27,-1.11 1.47,-1.75c0,0 1.45,-0.89 3.36,-0.23c0,0 1.2,0.43 1.91,1.85c0,0 0.72,1.52 0.13,3.29c0,0 -0.37,1.36 -1.8,2.03c0,0 -1.13,0.61 -3.04,0.11c0,0 -1.73,-0.49 -2.47,-2.35l-2.65,1.53s2.55,5.33 8.75,3.56c0,0 2.87,-0.65 3.97,-3.17c0,0 1.55,-3.36 -0.21,-6.77" fill="#E4007F" id="svg_30"/>
  <path d="m68.69,15.69l-5.83,0l0,-5.81l-2.93,0l0,5.81l-5.81,0l0,2.93l5.81,0l0,6.16l2.93,0l0,-6.16l5.83,0l0,-2.93z" fill="#E4007F" id="svg_31"/>
  <path d="m19.47,15.59c-0.76,0.33 -1.81,0.35 -1.81,0.35l-3.97,0l0,-5.76l4,0c1.51,0.03 2.16,0.52 2.16,0.52c0.69,0.48 0.89,1.11 0.89,1.11c0.51,1.27 0.01,2.56 0.01,2.56c-0.35,0.84 -1.28,1.23 -1.28,1.23m2.95,4.57c-0.87,-1.77 -1.75,-2.31 -1.77,-2.31c2.37,-0.57 3.11,-2.85 3.11,-2.85c0.69,-2.16 0.11,-3.92 0.11,-3.92c-0.56,-2.17 -2.52,-2.96 -2.52,-2.96c-1.39,-0.61 -3.77,-0.61 -3.77,-0.61l0,0.01l-7.12,0l0,19.41l3.24,0l0,-8.03l2.56,0c2.2,0.03 2.67,1.51 2.67,1.51s1.05,1.88 2.45,6.52l4.01,0c-1.37,-3.8 -2.96,-6.76 -2.96,-6.77" fill="#E4007F" id="svg_33"/>
 </g>
</svg>