<svg xmlns="http://www.w3.org/2000/svg" xmlns:svg="http://www.w3.org/2000/svg" viewBox="0 0 75.28 52.91">
 <g class="layer">
  <title>Layer 1</title>
  <path d="m68.11,0.54l-60.92,0c-3.55,0 -6.44,2.88 -6.44,6.43l0,38.99a6.45,6.45 0 0 0 6.44,6.44l60.92,0c3.55,0 6.43,-2.89 6.43,-6.44l0,-38.99c0,-3.55 -2.88,-6.43 -6.43,-6.43" fill="#FFF" id="svg_34"/>
  <path d="m48.38,43.06l0.85,0l0,1.15l-0.85,0l0,-1.15zm1.71,0l0.84,0l0,1.15l-0.84,0l0,-1.15zm1.69,0l0.87,0l0,1.15l-0.87,0l0,-1.15zm-4.37,4.57l0.97,0l0,-2.11l0.85,0l0,2.11l0.85,0l0,-2.11l0.84,0l0,2.11l0.85,0l0,-2.11l0.87,0l0,0.48c0,0.47 -0.08,0.76 -0.71,0.87l0.56,0.93c0.59,-0.17 1.11,-0.49 1.11,-1.79l0,-4.29l-6.2,0l0,5.91l0.01,0zm3,-9.72l0.2,0c0.31,0.72 0.79,1.36 1.31,1.88l-2.81,0c0.52,-0.52 1.01,-1.16 1.31,-1.88m-1.8,2.33l0,0.85l3.8,0l0,-0.85c0.37,0.32 0.76,0.57 1.11,0.77l0.88,-1.17c-1.4,-0.45 -2.71,-1.47 -3.33,-2.64l-1.11,0c-0.59,1.11 -1.79,2.07 -3.08,2.56c0.28,-0.77 0.47,-1.63 0.61,-2.56l-1.01,0c-0.33,1.44 -0.96,3.12 -2.57,4.56l0.84,1.37q0.39,-0.4 0.72,-0.8l0,5.29l1.11,0l0,-7.09c0.07,-0.17 0.12,-0.35 0.2,-0.51l0.73,0.99c0.36,-0.2 0.75,-0.45 1.11,-0.77" fill="#E60012" id="svg_35"/>
  <path d="m24.51,46.43l0,-2.53l2.31,0c-0.2,1.32 -1.29,2.09 -2.31,2.53m1.75,-6.88l1,0l0,2.93l-1,0l0,-2.93zm3.11,2.93l-1,0l0,-2.93l1,0l0,2.93zm-6.87,0.56l1.05,0l0,3.13l-1.05,0l0,-3.13zm1.05,-1.28l-1.05,0l0,-2.75l1.05,0l0,2.75zm5.25,2.13l2.31,0l0,-1.41l-0.79,0l0,-4.23l-1.95,0l0,-1.05l-1.12,0l0,1.05l-1.96,0l0,4.23l-0.79,0l0,-4.75l-2.99,0l0,9.72l2.99,0l0,-0.59l0.79,0.93c1.49,-0.87 2.19,-2.23 2.47,-3.65l0.09,0c0.29,1.43 0.97,2.79 2.48,3.65l1.05,-1.27c-1.11,-0.4 -2.36,-1.2 -2.59,-2.64" fill="#E60012" id="svg_36"/>
  <path d="m68.72,50.36l-62.16,0c-2.21,0 -4,-1.8 -4,-4.01l0,-11.55l70.17,0l0,11.55c0,2.21 -1.8,4.01 -4.01,4.01m-62.16,-47.8l62.16,0c2.21,0 4.01,1.79 4.01,4l0,25.89l-70.17,0l0,-25.89c0,-2.21 1.79,-4 4,-4m62.16,-2.56l-62.16,0a6.57,6.57 0 0 0 -6.56,6.56l0,39.79a6.57,6.57 0 0 0 6.56,6.56l62.16,0c3.63,0 6.56,-2.95 6.56,-6.56l0,-39.79c0,-3.61 -2.93,-6.56 -6.56,-6.56" fill="#E60012" id="svg_37"/>
  <path d="m44.76,24.98c-2.49,0 -3.73,-1.11 -3.73,-3.12c0,-1.49 0.8,-2.56 2.24,-2.99c0.92,-0.31 1.68,-0.33 2.65,-0.11c1.71,0.33 2.64,1.43 2.64,3.08c0,2.04 -1.24,3.13 -3.8,3.13m0.04,-15.39c2.01,0 3.09,1.08 3.09,2.88c0,1.65 -0.91,2.68 -2.56,2.88l-0.08,0l-0.11,0.03c0,-0.01 -0.04,0 -0.04,0l-0.07,0c-0.2,0.01 -0.24,0.01 -0.4,0c-1.95,-0.07 -2.93,-1.15 -2.93,-2.93c0,-1.76 1.11,-2.85 3.09,-2.85m5.39,8.35c-0.65,-0.6 -1.2,-0.96 -1.72,-1.13c1.68,-0.65 2.51,-2.12 2.51,-4.51c0,-0.89 -0.21,-1.79 -0.61,-2.49c-1.01,-1.79 -2.85,-2.73 -5.56,-2.73c-3.85,0 -6.15,2 -6.15,5.23c0,1.31 0.41,2.52 1.13,3.32l0.17,0.19c0.47,0.52 0.77,0.87 1.28,1.08a4,4 0 0 0 -1.53,0.89c-1.24,1.07 -1.85,2.43 -1.85,4.16c0,1.49 0.49,2.87 1.35,3.77c1.35,1.4 2.91,2 5.53,2c2.32,0 3.99,-0.51 5.2,-1.49s1.81,-2.43 1.81,-4.29c0,-1.73 -0.52,-3.07 -1.56,-3.99" fill="#E60012" id="svg_38"/>
  <path d="m28.32,7.91l0,2.93l2.37,0l0,16.05l3.21,0l0,-18.99l-5.59,0l0.01,0.01z" fill="#E60012" id="svg_39"/>
  <path d="m68.78,15.7l-5.81,0l0,-5.83l-2.92,0l0,5.83l-5.83,0l0,2.92l5.83,0l0,6.17l2.92,0l0,-6.17l5.81,0l0,-2.92z" fill="#E60012" id="svg_40"/>
  <path d="m19.58,15.59c-0.76,0.33 -1.81,0.35 -1.81,0.35l-3.97,0l0,-5.76l4.01,0c1.51,0.01 2.15,0.52 2.15,0.52c0.69,0.48 0.88,1.11 0.88,1.11c0.52,1.27 0.03,2.56 0.03,2.56c-0.35,0.83 -1.28,1.23 -1.28,1.23m2.95,4.56c-0.88,-1.76 -1.75,-2.29 -1.77,-2.29c2.37,-0.57 3.11,-2.85 3.11,-2.85c0.69,-2.16 0.11,-3.92 0.11,-3.92c-0.56,-2.17 -2.52,-2.96 -2.52,-2.96c-1.39,-0.63 -3.77,-0.61 -3.77,-0.61l-7.13,0.01l0,19.41l3.25,0l0,-8.03l2.55,0c2.2,0.03 2.67,1.51 2.67,1.51s1.05,1.88 2.45,6.51l4.03,0c-1.39,-3.79 -2.96,-6.75 -2.96,-6.77" fill="#E60012" id="svg_42"/>
 </g>
</svg>